M48
;Layer_Color=9474304
;FILE_FORMAT=2:5
INCH,TZ
;TYPE=PLATED
T1F00S00C0.01378
T2F00S00C0.04000
T3F00S00C0.05118
T4F00S00C0.11811
;TYPE=NON_PLATED
T5F00S00C0.12598
%
T01
X469500Y302000
X449000Y302500
X450000Y297500
Y293000
X428000Y298000
X416876Y266376
X428783Y255376
X425281Y240932
X446500Y240000
X457605Y240734
X456812Y255312
X370624Y266376
X359000Y263000
X361500Y253000
X356697Y243803
X336211Y257755
X335521Y287753
X335500Y293000
Y298000
X315500Y303000
X359000Y292500
X301000Y290000
Y298000
X306000Y453500
X266500Y436500
X316828Y417029
X352500Y460500
X356000
X358000Y458500
X360138Y456298
X420000Y452000
Y464000
Y437000
X447000Y426500
X426500Y317000
X364437Y316500
X506988Y415117
X520500Y437500
X495500Y440500
X481875Y456019
X480000Y461500
X477000
T02
X482992Y238189
Y250000
X494811
Y238189
X494803Y279528
Y291339
Y303150
X454000Y223661
X444000
X431000
X421000
X364016Y223677
X354016
X341016
X331016
X304410Y238189
Y250000
X292590
Y238189
X292598Y279528
Y291339
Y303150
X292590Y332677
Y344488
Y356299
X304410
Y344488
Y332677
X292598Y385827
Y397638
Y409449
X494803
Y397638
Y385827
X494811Y356299
Y344488
Y332677
X482992
Y344488
Y356299
T03
X353740Y364173
Y384252
Y414173
X433661
Y374016
Y333858
T04
X511811Y244094
Y291339
X275590
Y244094
Y344488
Y397638
X511811
Y344488
T05
X511811Y208661
X275590
Y452756
X511811
M30
