G04*
G04 #@! TF.GenerationSoftware,Altium Limited,Altium Designer,20.1.12 (249)*
G04*
G04 Layer_Color=16711935*
%FSLAX25Y25*%
%MOIN*%
G70*
G04*
G04 #@! TF.SameCoordinates,187957CB-44C1-49C2-83CB-A2E739709334*
G04*
G04*
G04 #@! TF.FilePolarity,Negative*
G04*
G01*
G75*
%ADD29C,0.07800*%
%ADD30C,0.08674*%
%ADD31R,0.08674X0.08674*%
%ADD32C,0.13811*%
%ADD33C,0.08800*%
%ADD34C,0.20472*%
%ADD35C,0.03162*%
G36*
X413000Y192500D02*
X374000D01*
X374000Y469000D01*
X413000D01*
X413000Y192500D01*
D02*
G37*
D29*
X354016Y223677D02*
D03*
X364016D02*
D03*
X341016D02*
D03*
X331016D02*
D03*
X444000Y223661D02*
D03*
X454000D02*
D03*
X431000D02*
D03*
X421000D02*
D03*
D30*
X353740Y414173D02*
D03*
X433661D02*
D03*
Y374016D02*
D03*
Y333858D02*
D03*
X353740Y384252D02*
D03*
D31*
Y364173D02*
D03*
D32*
X275590Y291339D02*
D03*
Y344488D02*
D03*
X511811Y397638D02*
D03*
X275590D02*
D03*
X511811Y344488D02*
D03*
Y291339D02*
D03*
Y244094D02*
D03*
X275590D02*
D03*
D33*
X292598Y279528D02*
D03*
Y291339D02*
D03*
Y303150D02*
D03*
X292590Y356299D02*
D03*
X304410D02*
D03*
Y344488D02*
D03*
Y332677D02*
D03*
X292590Y344488D02*
D03*
Y332677D02*
D03*
X494803Y385827D02*
D03*
Y397638D02*
D03*
Y409449D02*
D03*
X292598D02*
D03*
Y397638D02*
D03*
Y385827D02*
D03*
X494811Y356299D02*
D03*
Y344488D02*
D03*
X482992Y356299D02*
D03*
Y344488D02*
D03*
Y332677D02*
D03*
X494811D02*
D03*
X494803Y279528D02*
D03*
Y291339D02*
D03*
Y303150D02*
D03*
X494811Y250000D02*
D03*
Y238189D02*
D03*
X482992Y250000D02*
D03*
Y238189D02*
D03*
X292590D02*
D03*
Y250000D02*
D03*
X304410Y238189D02*
D03*
Y250000D02*
D03*
D34*
X275590Y452756D02*
D03*
X511811D02*
D03*
X275590Y208661D02*
D03*
X511811D02*
D03*
D35*
X469500Y302000D02*
D03*
X315500Y303000D02*
D03*
M02*
