G04*
G04 #@! TF.GenerationSoftware,Altium Limited,Altium Designer,20.1.12 (249)*
G04*
G04 Layer_Color=65535*
%FSLAX25Y25*%
%MOIN*%
G70*
G04*
G04 #@! TF.SameCoordinates,187957CB-44C1-49C2-83CB-A2E739709334*
G04*
G04*
G04 #@! TF.FilePolarity,Positive*
G04*
G01*
G75*
%ADD10C,0.01000*%
%ADD11C,0.00984*%
%ADD12C,0.00800*%
%ADD13C,0.00787*%
G36*
X468947Y353000D02*
Y310000D01*
X450053D01*
Y353000D01*
X468947D01*
D02*
G37*
G36*
X459500Y208000D02*
X438539D01*
Y217099D01*
X459500D01*
Y208000D01*
D02*
G37*
G36*
X316826Y211504D02*
Y211500D01*
Y211495D01*
Y211481D01*
Y211463D01*
X316821Y211412D01*
X316816Y211347D01*
X316807Y211269D01*
X316793Y211176D01*
X316775Y211075D01*
X316752Y210964D01*
X316719Y210848D01*
X316678Y210728D01*
X316627Y210603D01*
X316572Y210479D01*
X316502Y210354D01*
X316419Y210234D01*
X316327Y210118D01*
X316220Y210012D01*
X316216Y210008D01*
X316193Y209989D01*
X316160Y209961D01*
X316110Y209924D01*
X316050Y209883D01*
X315976Y209837D01*
X315893Y209790D01*
X315795Y209740D01*
X315685Y209684D01*
X315564Y209638D01*
X315435Y209592D01*
X315292Y209550D01*
X315139Y209513D01*
X314973Y209485D01*
X314802Y209467D01*
X314617Y209462D01*
X314548D01*
X314520Y209467D01*
X314451Y209472D01*
X314363Y209481D01*
X314266Y209490D01*
X314155Y209509D01*
X314035Y209532D01*
X313911Y209559D01*
X313781Y209596D01*
X313647Y209638D01*
X313509Y209689D01*
X313379Y209753D01*
X313245Y209823D01*
X313121Y209906D01*
X313005Y210003D01*
X313000Y210008D01*
X312977Y210026D01*
X312949Y210058D01*
X312913Y210104D01*
X312866Y210160D01*
X312815Y210225D01*
X312765Y210303D01*
X312709Y210396D01*
X312654Y210497D01*
X312598Y210608D01*
X312548Y210733D01*
X312501Y210867D01*
X312464Y211010D01*
X312437Y211167D01*
X312414Y211333D01*
X312409Y211509D01*
Y215459D01*
X313435D01*
Y211500D01*
Y211495D01*
Y211472D01*
Y211444D01*
X313439Y211403D01*
X313444Y211352D01*
X313449Y211297D01*
X313458Y211232D01*
X313472Y211167D01*
X313509Y211019D01*
X313532Y210945D01*
X313559Y210867D01*
X313596Y210793D01*
X313638Y210724D01*
X313684Y210654D01*
X313735Y210594D01*
X313739Y210590D01*
X313749Y210580D01*
X313767Y210566D01*
X313790Y210548D01*
X313823Y210520D01*
X313860Y210497D01*
X313906Y210470D01*
X313957Y210442D01*
X314017Y210409D01*
X314081Y210382D01*
X314155Y210359D01*
X314234Y210335D01*
X314322Y210312D01*
X314414Y210299D01*
X314511Y210289D01*
X314617Y210285D01*
X314645D01*
X314668Y210289D01*
X314696D01*
X314728Y210294D01*
X314802Y210303D01*
X314895Y210322D01*
X314992Y210349D01*
X315102Y210391D01*
X315213Y210442D01*
X315320Y210507D01*
X315430Y210590D01*
X315481Y210636D01*
X315528Y210691D01*
X315574Y210747D01*
X315620Y210811D01*
X315662Y210881D01*
X315694Y210955D01*
X315726Y211033D01*
X315754Y211121D01*
X315777Y211213D01*
X315791Y211315D01*
X315800Y211421D01*
X315805Y211532D01*
Y215459D01*
X316826Y215459D01*
Y211504D01*
D02*
G37*
G36*
X301048Y211504D02*
Y211500D01*
Y211495D01*
Y211481D01*
Y211463D01*
X301044Y211412D01*
X301039Y211347D01*
X301030Y211269D01*
X301016Y211176D01*
X300998Y211075D01*
X300974Y210964D01*
X300942Y210848D01*
X300901Y210728D01*
X300850Y210603D01*
X300794Y210479D01*
X300725Y210354D01*
X300642Y210234D01*
X300549Y210118D01*
X300443Y210012D01*
X300439Y210008D01*
X300415Y209989D01*
X300383Y209961D01*
X300332Y209924D01*
X300272Y209883D01*
X300198Y209837D01*
X300115Y209790D01*
X300018Y209740D01*
X299907Y209684D01*
X299787Y209638D01*
X299658Y209592D01*
X299515Y209550D01*
X299362Y209513D01*
X299196Y209485D01*
X299025Y209467D01*
X298840Y209462D01*
X298771D01*
X298743Y209467D01*
X298674Y209472D01*
X298586Y209481D01*
X298489Y209490D01*
X298378Y209509D01*
X298258Y209532D01*
X298133Y209559D01*
X298004Y209596D01*
X297870Y209638D01*
X297731Y209689D01*
X297602Y209753D01*
X297468Y209823D01*
X297343Y209906D01*
X297228Y210003D01*
X297223Y210008D01*
X297200Y210026D01*
X297172Y210058D01*
X297135Y210104D01*
X297089Y210160D01*
X297038Y210225D01*
X296987Y210303D01*
X296932Y210396D01*
X296877Y210497D01*
X296821Y210608D01*
X296770Y210733D01*
X296724Y210867D01*
X296687Y211010D01*
X296659Y211167D01*
X296636Y211333D01*
X296632Y211509D01*
Y215459D01*
X297657D01*
Y211500D01*
Y211495D01*
Y211472D01*
Y211444D01*
X297662Y211403D01*
X297667Y211352D01*
X297671Y211297D01*
X297680Y211232D01*
X297694Y211167D01*
X297731Y211019D01*
X297754Y210945D01*
X297782Y210867D01*
X297819Y210793D01*
X297861Y210724D01*
X297907Y210654D01*
X297958Y210594D01*
X297962Y210590D01*
X297972Y210580D01*
X297990Y210566D01*
X298013Y210548D01*
X298045Y210520D01*
X298082Y210497D01*
X298129Y210470D01*
X298179Y210442D01*
X298239Y210409D01*
X298304Y210382D01*
X298378Y210359D01*
X298457Y210335D01*
X298544Y210312D01*
X298637Y210299D01*
X298734Y210289D01*
X298840Y210285D01*
X298868D01*
X298891Y210289D01*
X298919D01*
X298951Y210294D01*
X299025Y210303D01*
X299117Y210322D01*
X299214Y210349D01*
X299325Y210391D01*
X299436Y210442D01*
X299542Y210507D01*
X299653Y210590D01*
X299704Y210636D01*
X299750Y210691D01*
X299796Y210747D01*
X299843Y210811D01*
X299884Y210881D01*
X299917Y210955D01*
X299949Y211033D01*
X299977Y211121D01*
X300000Y211213D01*
X300013Y211315D01*
X300023Y211421D01*
X300027Y211532D01*
Y215459D01*
X301048D01*
Y211504D01*
D02*
G37*
G36*
X322194Y214632D02*
X320351D01*
Y209545D01*
X319334D01*
Y214632D01*
X317505D01*
Y215459D01*
X322194D01*
Y214632D01*
D02*
G37*
G36*
X309549Y215455D02*
X309614Y215450D01*
X309702Y215445D01*
X309794Y215431D01*
X309905Y215418D01*
X310020Y215394D01*
X310141Y215367D01*
X310270Y215334D01*
X310399Y215293D01*
X310533Y215242D01*
X310663Y215182D01*
X310787Y215113D01*
X310908Y215034D01*
X311023Y214942D01*
X311028Y214937D01*
X311046Y214919D01*
X311078Y214886D01*
X311115Y214849D01*
X311157Y214794D01*
X311208Y214734D01*
X311263Y214660D01*
X311319Y214577D01*
X311369Y214484D01*
X311425Y214383D01*
X311476Y214267D01*
X311517Y214147D01*
X311554Y214018D01*
X311587Y213879D01*
X311605Y213731D01*
X311610Y213574D01*
Y213569D01*
Y213565D01*
Y213551D01*
Y213537D01*
X311605Y213491D01*
X311600Y213431D01*
X311591Y213357D01*
X311577Y213274D01*
X311563Y213181D01*
X311540Y213080D01*
X311508Y212973D01*
X311471Y212863D01*
X311425Y212752D01*
X311369Y212636D01*
X311305Y212525D01*
X311226Y212419D01*
X311139Y212317D01*
X311037Y212221D01*
X311032Y212216D01*
X311009Y212202D01*
X310977Y212174D01*
X310931Y212147D01*
X310875Y212110D01*
X310801Y212068D01*
X310718Y212027D01*
X310626Y211980D01*
X310515Y211934D01*
X310399Y211893D01*
X310265Y211851D01*
X310122Y211814D01*
X309970Y211786D01*
X309803Y211763D01*
X309628Y211745D01*
X309438Y211740D01*
X308219D01*
Y209545D01*
X307188D01*
Y215459D01*
X309522D01*
X309549Y215455D01*
D02*
G37*
G36*
X306417Y214632D02*
X304573D01*
Y209545D01*
X303557D01*
Y214632D01*
X301728D01*
Y215459D01*
X306417D01*
Y214632D01*
D02*
G37*
G36*
X293370Y215533D02*
X293435Y215528D01*
X293509Y215519D01*
X293592Y215510D01*
X293684Y215496D01*
X293781Y215478D01*
X293883Y215450D01*
X293989Y215422D01*
X294095Y215390D01*
X294206Y215348D01*
X294317Y215302D01*
X294423Y215247D01*
X294530Y215187D01*
X294534Y215182D01*
X294553Y215173D01*
X294585Y215150D01*
X294622Y215122D01*
X294668Y215085D01*
X294724Y215043D01*
X294784Y214992D01*
X294848Y214932D01*
X294918Y214863D01*
X294987Y214789D01*
X295056Y214711D01*
X295130Y214618D01*
X295199Y214521D01*
X295269Y214420D01*
X295334Y214309D01*
X295393Y214189D01*
X295398Y214179D01*
X295407Y214161D01*
X295421Y214124D01*
X295440Y214073D01*
X295463Y214013D01*
X295491Y213939D01*
X295518Y213851D01*
X295546Y213754D01*
X295574Y213648D01*
X295601Y213533D01*
X295629Y213408D01*
X295652Y213274D01*
X295671Y213135D01*
X295689Y212987D01*
X295698Y212835D01*
X295703Y212673D01*
Y212345D01*
Y212341D01*
Y212336D01*
Y212322D01*
Y212308D01*
Y212262D01*
X295698Y212197D01*
X295694Y212123D01*
X295689Y212036D01*
X295680Y211934D01*
X295666Y211828D01*
X295648Y211712D01*
X295629Y211588D01*
X295606Y211463D01*
X295578Y211333D01*
X295541Y211199D01*
X295500Y211070D01*
X295454Y210941D01*
X295403Y210816D01*
X295398Y210807D01*
X295389Y210788D01*
X295370Y210756D01*
X295347Y210710D01*
X295315Y210654D01*
X295278Y210590D01*
X295232Y210520D01*
X295181Y210446D01*
X295126Y210368D01*
X295061Y210285D01*
X294992Y210202D01*
X294913Y210118D01*
X294830Y210035D01*
X294742Y209957D01*
X294645Y209883D01*
X294543Y209813D01*
X294539Y209809D01*
X294520Y209800D01*
X294488Y209781D01*
X294446Y209758D01*
X294391Y209730D01*
X294326Y209703D01*
X294257Y209670D01*
X294174Y209638D01*
X294081Y209606D01*
X293984Y209573D01*
X293878Y209545D01*
X293767Y209518D01*
X293647Y209495D01*
X293522Y209476D01*
X293393Y209467D01*
X293259Y209462D01*
X293227D01*
X293190Y209467D01*
X293139D01*
X293074Y209472D01*
X293000Y209481D01*
X292917Y209490D01*
X292829Y209509D01*
X292732Y209527D01*
X292631Y209550D01*
X292525Y209578D01*
X292414Y209610D01*
X292303Y209652D01*
X292192Y209698D01*
X292081Y209753D01*
X291975Y209813D01*
X291970Y209818D01*
X291952Y209832D01*
X291919Y209850D01*
X291882Y209878D01*
X291836Y209915D01*
X291781Y209957D01*
X291721Y210012D01*
X291656Y210072D01*
X291587Y210137D01*
X291517Y210211D01*
X291443Y210294D01*
X291374Y210382D01*
X291300Y210479D01*
X291231Y210585D01*
X291166Y210696D01*
X291106Y210811D01*
X291102Y210821D01*
X291092Y210839D01*
X291078Y210876D01*
X291060Y210927D01*
X291037Y210987D01*
X291009Y211061D01*
X290981Y211149D01*
X290954Y211246D01*
X290926Y211347D01*
X290898Y211463D01*
X290870Y211588D01*
X290847Y211721D01*
X290829Y211860D01*
X290810Y212003D01*
X290801Y212156D01*
X290797Y212313D01*
Y212646D01*
Y212650D01*
Y212655D01*
Y212669D01*
Y212683D01*
Y212729D01*
X290801Y212789D01*
X290806Y212867D01*
X290815Y212955D01*
X290824Y213052D01*
X290834Y213158D01*
X290852Y213274D01*
X290870Y213399D01*
X290894Y213523D01*
X290926Y213653D01*
X290958Y213782D01*
X291000Y213916D01*
X291046Y214045D01*
X291102Y214170D01*
X291106Y214179D01*
X291115Y214198D01*
X291134Y214235D01*
X291157Y214281D01*
X291189Y214336D01*
X291231Y214397D01*
X291272Y214470D01*
X291328Y214544D01*
X291383Y214623D01*
X291448Y214706D01*
X291522Y214794D01*
X291600Y214877D01*
X291684Y214960D01*
X291771Y215039D01*
X291868Y215113D01*
X291970Y215182D01*
X291975Y215187D01*
X291998Y215196D01*
X292025Y215214D01*
X292067Y215237D01*
X292123Y215265D01*
X292187Y215293D01*
X292256Y215325D01*
X292340Y215362D01*
X292432Y215394D01*
X292529Y215427D01*
X292635Y215455D01*
X292746Y215482D01*
X292866Y215505D01*
X292986Y215524D01*
X293116Y215533D01*
X293250Y215538D01*
X293319D01*
X293370Y215533D01*
D02*
G37*
G36*
X346500Y208000D02*
X325539D01*
Y217099D01*
X346500D01*
Y208000D01*
D02*
G37*
G36*
X335000Y310000D02*
X316000D01*
Y353000D01*
X335000D01*
Y310000D01*
D02*
G37*
G36*
X488826Y211504D02*
Y211500D01*
Y211495D01*
Y211481D01*
Y211463D01*
X488821Y211412D01*
X488816Y211347D01*
X488807Y211269D01*
X488793Y211176D01*
X488775Y211075D01*
X488752Y210964D01*
X488719Y210848D01*
X488678Y210728D01*
X488627Y210603D01*
X488572Y210479D01*
X488502Y210354D01*
X488419Y210234D01*
X488327Y210118D01*
X488221Y210012D01*
X488216Y210008D01*
X488193Y209989D01*
X488160Y209961D01*
X488110Y209924D01*
X488050Y209883D01*
X487976Y209837D01*
X487892Y209790D01*
X487795Y209740D01*
X487685Y209684D01*
X487564Y209638D01*
X487435Y209592D01*
X487292Y209550D01*
X487139Y209513D01*
X486973Y209485D01*
X486802Y209467D01*
X486617Y209462D01*
X486548D01*
X486520Y209467D01*
X486451Y209472D01*
X486363Y209481D01*
X486266Y209490D01*
X486155Y209509D01*
X486035Y209532D01*
X485911Y209559D01*
X485781Y209596D01*
X485647Y209638D01*
X485508Y209689D01*
X485379Y209753D01*
X485245Y209823D01*
X485120Y209906D01*
X485005Y210003D01*
X485000Y210008D01*
X484977Y210026D01*
X484949Y210058D01*
X484913Y210104D01*
X484866Y210160D01*
X484816Y210225D01*
X484765Y210303D01*
X484709Y210396D01*
X484654Y210497D01*
X484598Y210608D01*
X484548Y210733D01*
X484501Y210867D01*
X484464Y211010D01*
X484437Y211167D01*
X484414Y211333D01*
X484409Y211509D01*
Y215459D01*
X485435D01*
Y211500D01*
Y211495D01*
Y211472D01*
Y211444D01*
X485439Y211403D01*
X485444Y211352D01*
X485449Y211297D01*
X485458Y211232D01*
X485472Y211167D01*
X485508Y211019D01*
X485532Y210945D01*
X485559Y210867D01*
X485596Y210793D01*
X485638Y210724D01*
X485684Y210654D01*
X485735Y210594D01*
X485740Y210590D01*
X485749Y210580D01*
X485767Y210566D01*
X485790Y210548D01*
X485823Y210520D01*
X485860Y210497D01*
X485906Y210470D01*
X485957Y210442D01*
X486017Y210409D01*
X486081Y210382D01*
X486155Y210359D01*
X486234Y210335D01*
X486322Y210312D01*
X486414Y210299D01*
X486511Y210289D01*
X486617Y210285D01*
X486645D01*
X486668Y210289D01*
X486696D01*
X486728Y210294D01*
X486802Y210303D01*
X486895Y210322D01*
X486992Y210349D01*
X487102Y210391D01*
X487213Y210442D01*
X487320Y210507D01*
X487430Y210590D01*
X487481Y210636D01*
X487528Y210691D01*
X487574Y210747D01*
X487620Y210811D01*
X487662Y210881D01*
X487694Y210955D01*
X487726Y211033D01*
X487754Y211121D01*
X487777Y211213D01*
X487791Y211315D01*
X487800Y211421D01*
X487805Y211532D01*
Y215459D01*
X488826Y215459D01*
Y211504D01*
D02*
G37*
G36*
X473048Y211504D02*
Y211500D01*
Y211495D01*
Y211481D01*
Y211463D01*
X473044Y211412D01*
X473039Y211347D01*
X473030Y211269D01*
X473016Y211176D01*
X472998Y211075D01*
X472974Y210964D01*
X472942Y210848D01*
X472901Y210728D01*
X472850Y210603D01*
X472794Y210479D01*
X472725Y210354D01*
X472642Y210234D01*
X472549Y210118D01*
X472443Y210012D01*
X472439Y210008D01*
X472415Y209989D01*
X472383Y209961D01*
X472332Y209924D01*
X472272Y209883D01*
X472198Y209837D01*
X472115Y209790D01*
X472018Y209740D01*
X471907Y209684D01*
X471787Y209638D01*
X471658Y209592D01*
X471515Y209550D01*
X471362Y209513D01*
X471196Y209485D01*
X471025Y209467D01*
X470840Y209462D01*
X470771D01*
X470743Y209467D01*
X470674Y209472D01*
X470586Y209481D01*
X470489Y209490D01*
X470378Y209509D01*
X470258Y209532D01*
X470133Y209559D01*
X470004Y209596D01*
X469870Y209638D01*
X469731Y209689D01*
X469602Y209753D01*
X469468Y209823D01*
X469343Y209906D01*
X469228Y210003D01*
X469223Y210008D01*
X469200Y210026D01*
X469172Y210058D01*
X469135Y210104D01*
X469089Y210160D01*
X469038Y210225D01*
X468987Y210303D01*
X468932Y210396D01*
X468877Y210497D01*
X468821Y210608D01*
X468770Y210733D01*
X468724Y210867D01*
X468687Y211010D01*
X468659Y211167D01*
X468636Y211333D01*
X468632Y211509D01*
Y215459D01*
X469657D01*
Y211500D01*
Y211495D01*
Y211472D01*
Y211444D01*
X469662Y211403D01*
X469667Y211352D01*
X469671Y211297D01*
X469680Y211232D01*
X469694Y211167D01*
X469731Y211019D01*
X469754Y210945D01*
X469782Y210867D01*
X469819Y210793D01*
X469861Y210724D01*
X469907Y210654D01*
X469958Y210594D01*
X469962Y210590D01*
X469972Y210580D01*
X469990Y210566D01*
X470013Y210548D01*
X470045Y210520D01*
X470082Y210497D01*
X470129Y210470D01*
X470179Y210442D01*
X470239Y210409D01*
X470304Y210382D01*
X470378Y210359D01*
X470457Y210335D01*
X470544Y210312D01*
X470637Y210299D01*
X470734Y210289D01*
X470840Y210285D01*
X470868D01*
X470891Y210289D01*
X470919D01*
X470951Y210294D01*
X471025Y210303D01*
X471117Y210322D01*
X471214Y210349D01*
X471325Y210391D01*
X471436Y210442D01*
X471542Y210507D01*
X471653Y210590D01*
X471704Y210636D01*
X471750Y210691D01*
X471796Y210747D01*
X471843Y210811D01*
X471884Y210881D01*
X471916Y210955D01*
X471949Y211033D01*
X471977Y211121D01*
X472000Y211213D01*
X472014Y211315D01*
X472023Y211421D01*
X472027Y211532D01*
Y215459D01*
X473048D01*
Y211504D01*
D02*
G37*
G36*
X494194Y214632D02*
X492351D01*
Y209545D01*
X491334D01*
Y214632D01*
X489505D01*
Y215459D01*
X494194D01*
Y214632D01*
D02*
G37*
G36*
X481549Y215455D02*
X481614Y215450D01*
X481702Y215445D01*
X481794Y215431D01*
X481905Y215418D01*
X482020Y215394D01*
X482141Y215367D01*
X482270Y215334D01*
X482399Y215293D01*
X482533Y215242D01*
X482663Y215182D01*
X482787Y215113D01*
X482907Y215034D01*
X483023Y214942D01*
X483028Y214937D01*
X483046Y214919D01*
X483078Y214886D01*
X483115Y214849D01*
X483157Y214794D01*
X483208Y214734D01*
X483263Y214660D01*
X483319Y214577D01*
X483369Y214484D01*
X483425Y214383D01*
X483476Y214267D01*
X483517Y214147D01*
X483554Y214018D01*
X483587Y213879D01*
X483605Y213731D01*
X483610Y213574D01*
Y213569D01*
Y213565D01*
Y213551D01*
Y213537D01*
X483605Y213491D01*
X483601Y213431D01*
X483591Y213357D01*
X483577Y213274D01*
X483564Y213181D01*
X483540Y213080D01*
X483508Y212973D01*
X483471Y212863D01*
X483425Y212752D01*
X483369Y212636D01*
X483305Y212525D01*
X483226Y212419D01*
X483139Y212317D01*
X483037Y212221D01*
X483032Y212216D01*
X483009Y212202D01*
X482977Y212174D01*
X482931Y212147D01*
X482875Y212110D01*
X482801Y212068D01*
X482718Y212027D01*
X482626Y211980D01*
X482515Y211934D01*
X482399Y211893D01*
X482265Y211851D01*
X482122Y211814D01*
X481970Y211786D01*
X481803Y211763D01*
X481628Y211745D01*
X481438Y211740D01*
X480219D01*
Y209545D01*
X479188D01*
Y215459D01*
X481522D01*
X481549Y215455D01*
D02*
G37*
G36*
X478417Y214632D02*
X476574D01*
Y209545D01*
X475557D01*
Y214632D01*
X473728D01*
Y215459D01*
X478417D01*
Y214632D01*
D02*
G37*
G36*
X465370Y215533D02*
X465435Y215528D01*
X465509Y215519D01*
X465592Y215510D01*
X465684Y215496D01*
X465781Y215478D01*
X465883Y215450D01*
X465989Y215422D01*
X466095Y215390D01*
X466206Y215348D01*
X466317Y215302D01*
X466423Y215247D01*
X466530Y215187D01*
X466534Y215182D01*
X466553Y215173D01*
X466585Y215150D01*
X466622Y215122D01*
X466668Y215085D01*
X466724Y215043D01*
X466784Y214992D01*
X466848Y214932D01*
X466918Y214863D01*
X466987Y214789D01*
X467056Y214711D01*
X467130Y214618D01*
X467200Y214521D01*
X467269Y214420D01*
X467334Y214309D01*
X467393Y214189D01*
X467398Y214179D01*
X467407Y214161D01*
X467421Y214124D01*
X467440Y214073D01*
X467463Y214013D01*
X467490Y213939D01*
X467518Y213851D01*
X467546Y213754D01*
X467574Y213648D01*
X467601Y213533D01*
X467629Y213408D01*
X467652Y213274D01*
X467671Y213135D01*
X467689Y212987D01*
X467698Y212835D01*
X467703Y212673D01*
Y212345D01*
Y212341D01*
Y212336D01*
Y212322D01*
Y212308D01*
Y212262D01*
X467698Y212197D01*
X467694Y212123D01*
X467689Y212036D01*
X467680Y211934D01*
X467666Y211828D01*
X467648Y211712D01*
X467629Y211588D01*
X467606Y211463D01*
X467578Y211333D01*
X467541Y211199D01*
X467500Y211070D01*
X467454Y210941D01*
X467403Y210816D01*
X467398Y210807D01*
X467389Y210788D01*
X467370Y210756D01*
X467347Y210710D01*
X467315Y210654D01*
X467278Y210590D01*
X467232Y210520D01*
X467181Y210446D01*
X467126Y210368D01*
X467061Y210285D01*
X466992Y210202D01*
X466913Y210118D01*
X466830Y210035D01*
X466742Y209957D01*
X466645Y209883D01*
X466543Y209813D01*
X466539Y209809D01*
X466520Y209800D01*
X466488Y209781D01*
X466446Y209758D01*
X466391Y209730D01*
X466326Y209703D01*
X466257Y209670D01*
X466174Y209638D01*
X466081Y209606D01*
X465984Y209573D01*
X465878Y209545D01*
X465767Y209518D01*
X465647Y209495D01*
X465522Y209476D01*
X465393Y209467D01*
X465259Y209462D01*
X465227D01*
X465190Y209467D01*
X465139D01*
X465074Y209472D01*
X465000Y209481D01*
X464917Y209490D01*
X464829Y209509D01*
X464732Y209527D01*
X464631Y209550D01*
X464525Y209578D01*
X464414Y209610D01*
X464303Y209652D01*
X464192Y209698D01*
X464081Y209753D01*
X463975Y209813D01*
X463970Y209818D01*
X463952Y209832D01*
X463919Y209850D01*
X463882Y209878D01*
X463836Y209915D01*
X463781Y209957D01*
X463721Y210012D01*
X463656Y210072D01*
X463587Y210137D01*
X463517Y210211D01*
X463443Y210294D01*
X463374Y210382D01*
X463300Y210479D01*
X463231Y210585D01*
X463166Y210696D01*
X463106Y210811D01*
X463101Y210821D01*
X463092Y210839D01*
X463078Y210876D01*
X463060Y210927D01*
X463037Y210987D01*
X463009Y211061D01*
X462981Y211149D01*
X462954Y211246D01*
X462926Y211347D01*
X462898Y211463D01*
X462871Y211588D01*
X462847Y211721D01*
X462829Y211860D01*
X462811Y212003D01*
X462801Y212156D01*
X462797Y212313D01*
Y212646D01*
Y212650D01*
Y212655D01*
Y212669D01*
Y212683D01*
Y212729D01*
X462801Y212789D01*
X462806Y212867D01*
X462815Y212955D01*
X462824Y213052D01*
X462834Y213158D01*
X462852Y213274D01*
X462871Y213399D01*
X462894Y213523D01*
X462926Y213653D01*
X462958Y213782D01*
X463000Y213916D01*
X463046Y214045D01*
X463101Y214170D01*
X463106Y214179D01*
X463115Y214198D01*
X463134Y214235D01*
X463157Y214281D01*
X463189Y214336D01*
X463231Y214397D01*
X463272Y214470D01*
X463328Y214544D01*
X463383Y214623D01*
X463448Y214706D01*
X463522Y214794D01*
X463600Y214877D01*
X463684Y214960D01*
X463771Y215039D01*
X463869Y215113D01*
X463970Y215182D01*
X463975Y215187D01*
X463998Y215196D01*
X464025Y215214D01*
X464067Y215237D01*
X464123Y215265D01*
X464187Y215293D01*
X464256Y215325D01*
X464340Y215362D01*
X464432Y215394D01*
X464529Y215427D01*
X464635Y215455D01*
X464746Y215482D01*
X464866Y215505D01*
X464987Y215524D01*
X465116Y215533D01*
X465250Y215538D01*
X465319D01*
X465370Y215533D01*
D02*
G37*
G36*
X436500Y208000D02*
X415539D01*
Y217099D01*
X436500D01*
Y208000D01*
D02*
G37*
G36*
X369500D02*
X348539D01*
Y217099D01*
X369500D01*
Y208000D01*
D02*
G37*
%LPC*%
G36*
X465420Y342133D02*
X453580D01*
Y339876D01*
X462849Y336870D01*
X453580Y333891D01*
Y331643D01*
D01*
X465420Y335880D01*
Y342133D01*
D02*
G37*
G36*
Y330265D02*
X453580D01*
Y328212D01*
X458510D01*
Y322921D01*
X453580D01*
Y320867D01*
X465420D01*
Y330265D01*
D02*
G37*
%LPD*%
G36*
Y337878D02*
X453580Y342133D01*
X465420D01*
Y337878D01*
D02*
G37*
G36*
Y322921D02*
X460166D01*
Y328212D01*
X465420D01*
Y322921D01*
D02*
G37*
%LPC*%
G36*
X455111Y216199D02*
X454950D01*
X454833Y216188D01*
X454611Y216160D01*
X454511Y216138D01*
X454417Y216115D01*
X454322Y216093D01*
X454245Y216071D01*
X454167Y216049D01*
X454101Y216027D01*
X454039Y216004D01*
X453995Y215982D01*
X453951Y215966D01*
X453923Y215954D01*
X453906Y215949D01*
X453901Y215943D01*
X453718Y215844D01*
X453634Y215788D01*
X453557Y215727D01*
X453484Y215671D01*
X453418Y215610D01*
X453357Y215555D01*
X453301Y215499D01*
X453251Y215450D01*
X453212Y215400D01*
X453174Y215355D01*
X453146Y215316D01*
X453124Y215288D01*
X453101Y215266D01*
X453096Y215250D01*
X453090Y215244D01*
X453041Y215161D01*
X452996Y215072D01*
X452957Y214989D01*
X452924Y214900D01*
X452874Y214734D01*
X452841Y214584D01*
X452824Y214511D01*
X452818Y214451D01*
X452813Y214389D01*
X452807Y214345D01*
X452802Y214306D01*
Y214273D01*
Y214256D01*
Y214251D01*
X453990D01*
X453995Y214334D01*
X454001Y214412D01*
X454039Y214550D01*
X454084Y214672D01*
X454145Y214778D01*
X454200Y214861D01*
X454223Y214895D01*
X454245Y214922D01*
X454267Y214944D01*
X454284Y214961D01*
X454289Y214967D01*
X454295Y214972D01*
X454356Y215022D01*
X454417Y215067D01*
X454484Y215100D01*
X454550Y215133D01*
X454683Y215183D01*
X454805Y215216D01*
X454916Y215233D01*
X454961Y215244D01*
X455005D01*
X455038Y215250D01*
X455083D01*
X455183Y215244D01*
X455272Y215239D01*
X455360Y215222D01*
X455438Y215205D01*
X455510Y215183D01*
X455577Y215161D01*
X455638Y215133D01*
X455693Y215111D01*
X455738Y215083D01*
X455782Y215055D01*
X455816Y215033D01*
X455843Y215011D01*
X455865Y214994D01*
X455882Y214978D01*
X455888Y214972D01*
X455893Y214967D01*
X455938Y214911D01*
X455982Y214850D01*
X456049Y214722D01*
X456093Y214595D01*
X456126Y214467D01*
X456148Y214356D01*
X456154Y214306D01*
Y214262D01*
X456160Y214229D01*
Y214201D01*
Y214184D01*
Y214178D01*
X456154Y214084D01*
X456148Y213990D01*
X456132Y213907D01*
X456110Y213829D01*
X456087Y213757D01*
X456060Y213690D01*
X456026Y213629D01*
X455999Y213574D01*
X455971Y213529D01*
X455938Y213485D01*
X455910Y213452D01*
X455888Y213418D01*
X455865Y213396D01*
X455854Y213379D01*
X455843Y213374D01*
X455838Y213368D01*
X455777Y213318D01*
X455710Y213279D01*
X455638Y213241D01*
X455571Y213207D01*
X455427Y213157D01*
X455288Y213124D01*
X455222Y213113D01*
X455161Y213107D01*
X455111Y213102D01*
X455061Y213096D01*
X455027Y213091D01*
X454250D01*
Y212153D01*
X454950D01*
X455066Y212147D01*
X455183Y212142D01*
X455283Y212125D01*
X455377Y212103D01*
X455466Y212081D01*
X455549Y212058D01*
X455621Y212031D01*
X455688Y212003D01*
X455743Y211970D01*
X455793Y211942D01*
X455838Y211920D01*
X455871Y211897D01*
X455899Y211875D01*
X455915Y211859D01*
X455927Y211853D01*
X455932Y211847D01*
X455993Y211787D01*
X456043Y211725D01*
X456087Y211659D01*
X456126Y211587D01*
X456160Y211514D01*
X456182Y211442D01*
X456226Y211304D01*
X456237Y211243D01*
X456248Y211181D01*
X456254Y211126D01*
X456259Y211082D01*
X456265Y211043D01*
Y211010D01*
Y210993D01*
Y210987D01*
X456259Y210887D01*
X456254Y210793D01*
X456237Y210704D01*
X456215Y210621D01*
X456193Y210543D01*
X456165Y210477D01*
X456137Y210410D01*
X456110Y210355D01*
X456076Y210305D01*
X456049Y210260D01*
X456021Y210221D01*
X455999Y210194D01*
X455976Y210171D01*
X455960Y210155D01*
X455954Y210144D01*
X455949Y210138D01*
X455888Y210088D01*
X455821Y210044D01*
X455749Y210005D01*
X455682Y209972D01*
X455538Y209922D01*
X455399Y209888D01*
X455333Y209872D01*
X455272Y209866D01*
X455222Y209861D01*
X455172Y209855D01*
X455138Y209850D01*
X455083D01*
X454983Y209855D01*
X454894Y209861D01*
X454805Y209877D01*
X454728Y209894D01*
X454650Y209916D01*
X454578Y209938D01*
X454517Y209966D01*
X454461Y209994D01*
X454406Y210022D01*
X454361Y210049D01*
X454322Y210071D01*
X454289Y210094D01*
X454267Y210110D01*
X454250Y210127D01*
X454239Y210133D01*
X454234Y210138D01*
X454178Y210194D01*
X454134Y210255D01*
X454089Y210316D01*
X454056Y210382D01*
X454001Y210510D01*
X453962Y210627D01*
X453940Y210737D01*
X453934Y210782D01*
X453929Y210821D01*
X453923Y210854D01*
Y210876D01*
Y210893D01*
Y210898D01*
X452735D01*
D01*
X452741Y210732D01*
X452763Y210577D01*
X452796Y210427D01*
X452835Y210288D01*
X452885Y210160D01*
X452941Y210044D01*
X453002Y209933D01*
X453063Y209833D01*
X453118Y209744D01*
X453179Y209666D01*
X453235Y209600D01*
X453285Y209544D01*
X453324Y209500D01*
X453357Y209472D01*
X453379Y209450D01*
X453385Y209444D01*
X453512Y209350D01*
X453645Y209267D01*
X453784Y209195D01*
X453923Y209128D01*
X454067Y209078D01*
X454206Y209034D01*
X454339Y208995D01*
X454472Y208967D01*
X454595Y208945D01*
X454705Y208928D01*
X454811Y208917D01*
X454894Y208912D01*
X454966Y208906D01*
X455022Y208900D01*
X452735D01*
X457447D01*
Y210987D01*
X457442Y211098D01*
X457436Y211204D01*
X457397Y211398D01*
X457375Y211487D01*
X457353Y211570D01*
X457325Y211648D01*
X457297Y211720D01*
X457264Y211787D01*
X457236Y211842D01*
X457214Y211892D01*
X457192Y211931D01*
X457170Y211964D01*
X457153Y211992D01*
X457148Y212003D01*
X457142Y212009D01*
X457081Y212086D01*
X457014Y212158D01*
X456876Y212286D01*
X456726Y212397D01*
X456581Y212486D01*
X456515Y212525D01*
X456454Y212552D01*
X456398Y212580D01*
X456348Y212602D01*
X456309Y212619D01*
X456282Y212630D01*
X456259Y212641D01*
X456254D01*
X456426Y212730D01*
X456581Y212830D01*
X456715Y212935D01*
X456776Y212985D01*
X456826Y213035D01*
X456876Y213085D01*
X456914Y213130D01*
X456953Y213168D01*
X456981Y213207D01*
X457003Y213235D01*
X457025Y213257D01*
X457031Y213268D01*
X457036Y213274D01*
X457092Y213352D01*
X457136Y213435D01*
X457181Y213512D01*
X457214Y213590D01*
X457270Y213746D01*
X457303Y213884D01*
X457314Y213945D01*
X457325Y214001D01*
X457331Y214051D01*
X457336Y214090D01*
X457342Y214129D01*
Y214151D01*
Y214167D01*
Y214173D01*
X457336Y214345D01*
X457314Y214511D01*
X457286Y214667D01*
X457247Y214806D01*
X457203Y214939D01*
X457153Y215061D01*
X457097Y215172D01*
X457042Y215277D01*
X456981Y215366D01*
X456931Y215444D01*
X456876Y215511D01*
X456831Y215561D01*
X456792Y215605D01*
X456765Y215638D01*
X456742Y215655D01*
X456737Y215660D01*
X456620Y215755D01*
X456493Y215838D01*
X456359Y215910D01*
X456221Y215971D01*
X456082Y216027D01*
X455943Y216066D01*
X455804Y216104D01*
X455677Y216132D01*
X455549Y216154D01*
X455438Y216171D01*
X455333Y216182D01*
X455244Y216193D01*
X455166D01*
X455111Y216199D01*
D02*
G37*
G36*
X442967D02*
X442806D01*
X442690Y216188D01*
X442468Y216160D01*
X442368Y216138D01*
X442274Y216115D01*
X442179Y216093D01*
X442101Y216071D01*
X442024Y216049D01*
X441957Y216027D01*
X441896Y216004D01*
X441852Y215982D01*
X441807Y215966D01*
X441780Y215954D01*
X441763Y215949D01*
X441757Y215943D01*
X441574Y215844D01*
X441491Y215788D01*
X441413Y215727D01*
X441341Y215671D01*
X441274Y215610D01*
X441213Y215555D01*
X441158Y215499D01*
X441108Y215450D01*
X441069Y215400D01*
X441030Y215355D01*
X441003Y215316D01*
X440980Y215288D01*
X440958Y215266D01*
X440953Y215250D01*
X440947Y215244D01*
X440897Y215161D01*
X440853Y215072D01*
X440814Y214989D01*
X440780Y214900D01*
X440731Y214734D01*
X440697Y214584D01*
X440681Y214511D01*
X440675Y214451D01*
X440669Y214389D01*
X440664Y214345D01*
X440658Y214306D01*
Y214273D01*
Y214256D01*
Y214251D01*
X441846D01*
X441852Y214334D01*
X441857Y214412D01*
X441896Y214550D01*
X441940Y214672D01*
X442001Y214778D01*
X442057Y214861D01*
X442079Y214895D01*
X442101Y214922D01*
X442124Y214944D01*
X442140Y214961D01*
X442146Y214967D01*
X442151Y214972D01*
X442212Y215022D01*
X442274Y215067D01*
X442340Y215100D01*
X442407Y215133D01*
X442540Y215183D01*
X442662Y215216D01*
X442773Y215233D01*
X442817Y215244D01*
X442862D01*
X442895Y215250D01*
X442940D01*
X443039Y215244D01*
X443128Y215239D01*
X443217Y215222D01*
X443295Y215205D01*
X443367Y215183D01*
X443433Y215161D01*
X443495Y215133D01*
X443550Y215111D01*
X443594Y215083D01*
X443639Y215055D01*
X443672Y215033D01*
X443700Y215011D01*
X443722Y214994D01*
X443739Y214978D01*
X443744Y214972D01*
X443750Y214967D01*
X443794Y214911D01*
X443839Y214850D01*
X443905Y214722D01*
X443950Y214595D01*
X443983Y214467D01*
X444005Y214356D01*
X444011Y214306D01*
Y214262D01*
X444016Y214229D01*
Y214201D01*
Y214184D01*
Y214178D01*
X444011Y214084D01*
X444005Y213990D01*
X443988Y213907D01*
X443966Y213829D01*
X443944Y213757D01*
X443916Y213690D01*
X443883Y213629D01*
X443855Y213574D01*
X443827Y213529D01*
X443794Y213485D01*
X443766Y213452D01*
X443744Y213418D01*
X443722Y213396D01*
X443711Y213379D01*
X443700Y213374D01*
X443694Y213368D01*
X443633Y213318D01*
X443567Y213279D01*
X443495Y213241D01*
X443428Y213207D01*
X443284Y213157D01*
X443145Y213124D01*
X443078Y213113D01*
X443017Y213107D01*
X442967Y213102D01*
X442917Y213096D01*
X442884Y213091D01*
X442107D01*
Y212153D01*
X442806D01*
X442923Y212147D01*
X443039Y212142D01*
X443139Y212125D01*
X443234Y212103D01*
X443322Y212081D01*
X443406Y212058D01*
X443478Y212031D01*
X443544Y212003D01*
X443600Y211970D01*
X443650Y211942D01*
X443694Y211920D01*
X443728Y211897D01*
X443755Y211875D01*
X443772Y211859D01*
X443783Y211853D01*
X443789Y211847D01*
X443850Y211787D01*
X443900Y211725D01*
X443944Y211659D01*
X443983Y211587D01*
X444016Y211514D01*
X444038Y211442D01*
X444083Y211304D01*
X444094Y211243D01*
X444105Y211181D01*
X444110Y211126D01*
X444116Y211082D01*
X444122Y211043D01*
Y211010D01*
Y210993D01*
Y210987D01*
X444116Y210887D01*
X444110Y210793D01*
X444094Y210704D01*
X444072Y210621D01*
X444050Y210543D01*
X444022Y210477D01*
X443994Y210410D01*
X443966Y210355D01*
X443933Y210305D01*
X443905Y210260D01*
X443877Y210221D01*
X443855Y210194D01*
X443833Y210171D01*
X443816Y210155D01*
X443811Y210144D01*
X443805Y210138D01*
X443744Y210088D01*
X443678Y210044D01*
X443606Y210005D01*
X443539Y209972D01*
X443395Y209922D01*
X443256Y209888D01*
X443189Y209872D01*
X443128Y209866D01*
X443078Y209861D01*
X443028Y209855D01*
X442995Y209850D01*
X442940D01*
X442840Y209855D01*
X442751Y209861D01*
X442662Y209877D01*
X442584Y209894D01*
X442507Y209916D01*
X442434Y209938D01*
X442373Y209966D01*
X442318Y209994D01*
X442262Y210022D01*
X442218Y210049D01*
X442179Y210071D01*
X442146Y210094D01*
X442124Y210110D01*
X442107Y210127D01*
X442096Y210133D01*
X442090Y210138D01*
X442035Y210194D01*
X441990Y210255D01*
X441946Y210316D01*
X441913Y210382D01*
X441857Y210510D01*
X441818Y210627D01*
X441796Y210737D01*
X441791Y210782D01*
X441785Y210821D01*
X441780Y210854D01*
Y210876D01*
Y210893D01*
Y210898D01*
X440592D01*
D01*
X440597Y210732D01*
X440620Y210577D01*
X440653Y210427D01*
X440692Y210288D01*
X440742Y210160D01*
X440797Y210044D01*
X440858Y209933D01*
X440919Y209833D01*
X440975Y209744D01*
X441036Y209666D01*
X441091Y209600D01*
X441141Y209544D01*
X441180Y209500D01*
X441213Y209472D01*
X441236Y209450D01*
X441241Y209444D01*
X441369Y209350D01*
X441502Y209267D01*
X441641Y209195D01*
X441780Y209128D01*
X441924Y209078D01*
X442063Y209034D01*
X442196Y208995D01*
X442329Y208967D01*
X442451Y208945D01*
X442562Y208928D01*
X442667Y208917D01*
X442751Y208912D01*
X442823Y208906D01*
X442878Y208900D01*
X440592D01*
X445304D01*
Y210987D01*
X445298Y211098D01*
X445293Y211204D01*
X445254Y211398D01*
X445232Y211487D01*
X445209Y211570D01*
X445182Y211648D01*
X445154Y211720D01*
X445121Y211787D01*
X445093Y211842D01*
X445071Y211892D01*
X445049Y211931D01*
X445026Y211964D01*
X445010Y211992D01*
X445004Y212003D01*
X444999Y212009D01*
X444938Y212086D01*
X444871Y212158D01*
X444732Y212286D01*
X444582Y212397D01*
X444438Y212486D01*
X444371Y212525D01*
X444310Y212552D01*
X444255Y212580D01*
X444205Y212602D01*
X444166Y212619D01*
X444138Y212630D01*
X444116Y212641D01*
X444110D01*
X444283Y212730D01*
X444438Y212830D01*
X444571Y212935D01*
X444632Y212985D01*
X444682Y213035D01*
X444732Y213085D01*
X444771Y213130D01*
X444810Y213168D01*
X444838Y213207D01*
X444860Y213235D01*
X444882Y213257D01*
X444887Y213268D01*
X444893Y213274D01*
X444949Y213352D01*
X444993Y213435D01*
X445037Y213512D01*
X445071Y213590D01*
X445126Y213746D01*
X445159Y213884D01*
X445171Y213945D01*
X445182Y214001D01*
X445187Y214051D01*
X445193Y214090D01*
X445198Y214129D01*
Y214151D01*
Y214167D01*
Y214173D01*
X445193Y214345D01*
X445171Y214511D01*
X445143Y214667D01*
X445104Y214806D01*
X445060Y214939D01*
X445010Y215061D01*
X444954Y215172D01*
X444899Y215277D01*
X444838Y215366D01*
X444788Y215444D01*
X444732Y215511D01*
X444688Y215561D01*
X444649Y215605D01*
X444621Y215638D01*
X444599Y215655D01*
X444593Y215660D01*
X444477Y215755D01*
X444349Y215838D01*
X444216Y215910D01*
X444077Y215971D01*
X443938Y216027D01*
X443800Y216066D01*
X443661Y216104D01*
X443533Y216132D01*
X443406Y216154D01*
X443295Y216171D01*
X443189Y216182D01*
X443100Y216193D01*
X443023D01*
X442967Y216199D01*
D02*
G37*
G36*
X452269Y216104D02*
D01*
Y209000D01*
X449716D01*
X452269Y216104D01*
X450915D01*
X449111Y210543D01*
X447324Y216104D01*
X445975D01*
D01*
X448517Y209000D01*
X445975D01*
D01*
X452269D01*
Y216104D01*
D02*
G37*
%LPD*%
G36*
X457447Y208900D02*
X455066D01*
X455261Y208906D01*
X455449Y208923D01*
X455621Y208950D01*
X455788Y208989D01*
X455943Y209028D01*
X456082Y209078D01*
X456215Y209128D01*
X456332Y209184D01*
X456437Y209233D01*
X456531Y209283D01*
X456609Y209333D01*
X456676Y209372D01*
X456726Y209411D01*
X456765Y209439D01*
X456787Y209455D01*
X456792Y209461D01*
X456909Y209572D01*
X457009Y209689D01*
X457097Y209811D01*
X457170Y209938D01*
X457236Y210066D01*
X457286Y210194D01*
X457331Y210316D01*
X457364Y210438D01*
X457392Y210549D01*
X457414Y210654D01*
X457425Y210749D01*
X457436Y210826D01*
X457442Y210893D01*
X457447Y210943D01*
Y208900D01*
D02*
G37*
G36*
X445304D02*
X442923D01*
X443117Y208906D01*
X443306Y208923D01*
X443478Y208950D01*
X443644Y208989D01*
X443800Y209028D01*
X443938Y209078D01*
X444072Y209128D01*
X444188Y209184D01*
X444294Y209233D01*
X444388Y209283D01*
X444466Y209333D01*
X444532Y209372D01*
X444582Y209411D01*
X444621Y209439D01*
X444643Y209455D01*
X444649Y209461D01*
X444765Y209572D01*
X444865Y209689D01*
X444954Y209811D01*
X445026Y209938D01*
X445093Y210066D01*
X445143Y210194D01*
X445187Y210316D01*
X445221Y210438D01*
X445248Y210549D01*
X445270Y210654D01*
X445282Y210749D01*
X445293Y210826D01*
X445298Y210893D01*
X445304Y210943D01*
Y208900D01*
D02*
G37*
%LPC*%
G36*
X309480Y214632D02*
X308219D01*
Y212567D01*
X309503D01*
X309545Y212572D01*
X309591Y212576D01*
X309642Y212581D01*
X309702Y212590D01*
X309762Y212599D01*
X309900Y212627D01*
X310039Y212673D01*
X310104Y212706D01*
X310168Y212738D01*
X310233Y212775D01*
X310288Y212821D01*
X310293Y212826D01*
X310302Y212835D01*
X310316Y212849D01*
X310335Y212867D01*
X310353Y212895D01*
X310381Y212927D01*
X310404Y212969D01*
X310432Y213011D01*
X310459Y213061D01*
X310482Y213117D01*
X310510Y213177D01*
X310529Y213246D01*
X310547Y213320D01*
X310561Y213399D01*
X310570Y213482D01*
X310575Y213569D01*
Y213574D01*
Y213593D01*
Y213616D01*
X310570Y213648D01*
X310566Y213690D01*
X310561Y213736D01*
X310552Y213791D01*
X310538Y213847D01*
X310506Y213967D01*
X310482Y214032D01*
X310450Y214096D01*
X310418Y214161D01*
X310381Y214221D01*
X310335Y214281D01*
X310284Y214336D01*
X310279Y214341D01*
X310270Y214350D01*
X310251Y214364D01*
X310228Y214383D01*
X310201Y214401D01*
X310164Y214429D01*
X310122Y214452D01*
X310076Y214480D01*
X310020Y214507D01*
X309960Y214535D01*
X309896Y214558D01*
X309822Y214581D01*
X309743Y214600D01*
X309660Y214618D01*
X309572Y214628D01*
X309480Y214632D01*
D02*
G37*
G36*
X293250Y214683D02*
X293222D01*
X293185Y214678D01*
X293139Y214674D01*
X293084Y214669D01*
X293019Y214655D01*
X292950Y214641D01*
X292871Y214618D01*
X292788Y214591D01*
X292705Y214554D01*
X292617Y214512D01*
X292529Y214461D01*
X292441Y214401D01*
X292358Y214332D01*
X292280Y214253D01*
X292206Y214161D01*
X292201Y214156D01*
X292192Y214138D01*
X292173Y214106D01*
X292146Y214064D01*
X292118Y214013D01*
X292086Y213944D01*
X292053Y213870D01*
X292016Y213782D01*
X291984Y213680D01*
X291947Y213569D01*
X291915Y213449D01*
X291887Y213315D01*
X291864Y213172D01*
X291845Y213020D01*
X291831Y212858D01*
X291827Y212683D01*
Y212345D01*
Y212341D01*
Y212336D01*
Y212322D01*
Y212304D01*
Y212281D01*
X291831Y212253D01*
Y212183D01*
X291841Y212105D01*
X291845Y212008D01*
X291859Y211906D01*
X291873Y211791D01*
X291896Y211671D01*
X291919Y211551D01*
X291952Y211426D01*
X291989Y211297D01*
X292030Y211176D01*
X292081Y211056D01*
X292141Y210945D01*
X292206Y210839D01*
X292210Y210835D01*
X292224Y210816D01*
X292247Y210788D01*
X292275Y210756D01*
X292317Y210714D01*
X292363Y210673D01*
X292418Y210622D01*
X292478Y210576D01*
X292552Y210525D01*
X292631Y210474D01*
X292714Y210433D01*
X292811Y210391D01*
X292913Y210359D01*
X293019Y210331D01*
X293134Y210312D01*
X293259Y210308D01*
X293291D01*
X293324Y210312D01*
X293370Y210317D01*
X293430Y210322D01*
X293495Y210335D01*
X293569Y210349D01*
X293647Y210372D01*
X293730Y210400D01*
X293813Y210433D01*
X293901Y210474D01*
X293989Y210525D01*
X294077Y210585D01*
X294160Y210654D01*
X294234Y210733D01*
X294308Y210825D01*
X294312Y210830D01*
X294322Y210848D01*
X294340Y210881D01*
X294368Y210922D01*
X294396Y210978D01*
X294423Y211042D01*
X294460Y211121D01*
X294493Y211209D01*
X294525Y211310D01*
X294562Y211426D01*
X294590Y211551D01*
X294622Y211685D01*
X294645Y211832D01*
X294664Y211994D01*
X294673Y212165D01*
X294677Y212345D01*
Y212650D01*
Y212655D01*
Y212659D01*
Y212673D01*
Y212692D01*
Y212715D01*
X294673Y212742D01*
Y212812D01*
X294668Y212895D01*
X294659Y212987D01*
X294645Y213094D01*
X294631Y213209D01*
X294613Y213329D01*
X294585Y213449D01*
X294557Y213574D01*
X294520Y213699D01*
X294479Y213824D01*
X294428Y213944D01*
X294368Y214055D01*
X294303Y214156D01*
X294299Y214161D01*
X294285Y214179D01*
X294266Y214207D01*
X294234Y214239D01*
X294197Y214276D01*
X294151Y214323D01*
X294095Y214369D01*
X294035Y214420D01*
X293961Y214470D01*
X293883Y214517D01*
X293795Y214563D01*
X293703Y214600D01*
X293601Y214637D01*
X293490Y214660D01*
X293375Y214678D01*
X293250Y214683D01*
D02*
G37*
G36*
X337721Y216149D02*
D01*
Y209899D01*
X334424D01*
X336156Y211753D01*
X336278Y211892D01*
X336394Y212020D01*
X336505Y212147D01*
X336599Y212269D01*
X336688Y212386D01*
X336771Y212497D01*
X336844Y212597D01*
X336910Y212691D01*
X336966Y212774D01*
X337010Y212852D01*
X337055Y212919D01*
X337088Y212974D01*
X337110Y213013D01*
X337127Y213046D01*
X337138Y213069D01*
X337143Y213074D01*
X337199Y213185D01*
X337243Y213291D01*
X337282Y213396D01*
X337315Y213496D01*
X337371Y213685D01*
X337388Y213768D01*
X337404Y213851D01*
X337421Y213923D01*
X337426Y213990D01*
X337432Y214051D01*
X337438Y214095D01*
X337443Y214134D01*
Y214167D01*
Y214184D01*
Y214190D01*
X337438Y214356D01*
X337415Y214517D01*
X337388Y214661D01*
X337349Y214800D01*
X337304Y214928D01*
X337254Y215044D01*
X337199Y215155D01*
X337143Y215250D01*
X337088Y215338D01*
X337032Y215416D01*
X336982Y215477D01*
X336938Y215533D01*
X336899Y215572D01*
X336871Y215605D01*
X336849Y215621D01*
X336844Y215627D01*
X336727Y215721D01*
X336599Y215799D01*
X336472Y215871D01*
X336339Y215927D01*
X336200Y215977D01*
X336067Y216021D01*
X335933Y216054D01*
X335806Y216082D01*
X335684Y216104D01*
X335573Y216121D01*
X335467Y216132D01*
X335384Y216143D01*
X335312D01*
X335256Y216149D01*
X335212D01*
X335079Y216143D01*
X334951Y216138D01*
X334829Y216121D01*
X334713Y216104D01*
X334601Y216082D01*
X334496Y216060D01*
X334402Y216032D01*
X334313Y216004D01*
X334230Y215977D01*
X334157Y215949D01*
X334096Y215927D01*
X334047Y215905D01*
X334002Y215888D01*
X333974Y215871D01*
X333952Y215866D01*
X333947Y215860D01*
X333847Y215805D01*
X333752Y215744D01*
X333664Y215677D01*
X333586Y215610D01*
X333508Y215544D01*
X333436Y215477D01*
X333375Y215411D01*
X333319Y215350D01*
X333270Y215288D01*
X333225Y215233D01*
X333186Y215177D01*
X333158Y215139D01*
X333136Y215100D01*
X333120Y215072D01*
X333108Y215055D01*
X333103Y215050D01*
X333053Y214950D01*
X333009Y214850D01*
X332964Y214750D01*
X332931Y214650D01*
X332881Y214456D01*
X332859Y214362D01*
X332848Y214273D01*
X332831Y214190D01*
X332825Y214118D01*
X332820Y214051D01*
X332814Y213995D01*
X332809Y213945D01*
Y213884D01*
X333991D01*
X333997Y213995D01*
X334002Y214101D01*
X334019Y214201D01*
X334041Y214289D01*
X334063Y214378D01*
X334091Y214456D01*
X334119Y214528D01*
X334152Y214595D01*
X334180Y214650D01*
X334207Y214700D01*
X334235Y214745D01*
X334257Y214778D01*
X334280Y214806D01*
X334296Y214828D01*
X334302Y214839D01*
X334307Y214844D01*
X334368Y214906D01*
X334440Y214961D01*
X334507Y215011D01*
X334585Y215050D01*
X334657Y215083D01*
X334729Y215111D01*
X334873Y215155D01*
X334940Y215172D01*
X335001Y215183D01*
X335057Y215189D01*
X335106Y215194D01*
X335145Y215200D01*
X335201D01*
X335290Y215194D01*
X335373Y215189D01*
X335451Y215172D01*
X335523Y215150D01*
X335656Y215100D01*
X335712Y215072D01*
X335767Y215044D01*
X335811Y215011D01*
X335850Y214983D01*
X335889Y214955D01*
X335917Y214933D01*
X335939Y214911D01*
X335956Y214895D01*
X335961Y214889D01*
X335967Y214883D01*
X336017Y214822D01*
X336061Y214761D01*
X336100Y214695D01*
X336133Y214622D01*
X336183Y214489D01*
X336222Y214362D01*
X336233Y214301D01*
X336239Y214245D01*
X336244Y214195D01*
X336250Y214151D01*
X336255Y214118D01*
Y214090D01*
Y214073D01*
Y214068D01*
X336244Y213923D01*
X336222Y213785D01*
X336189Y213651D01*
X336150Y213535D01*
X336128Y213485D01*
X336105Y213440D01*
X336089Y213396D01*
X336072Y213363D01*
X336061Y213335D01*
X336050Y213313D01*
X336039Y213302D01*
Y213296D01*
X335995Y213224D01*
X335945Y213146D01*
X335834Y212985D01*
X335712Y212824D01*
X335595Y212674D01*
X335539Y212608D01*
X335484Y212541D01*
X335439Y212486D01*
X335395Y212436D01*
X335362Y212397D01*
X335334Y212369D01*
X335317Y212347D01*
X335312Y212341D01*
X332942Y209761D01*
Y208950D01*
X332809D01*
D01*
X337721D01*
Y216149D01*
D02*
G37*
G36*
X344475Y216054D02*
X338181D01*
X340723Y208950D01*
X341922D01*
X344475Y216054D01*
D02*
G37*
G36*
X330478Y216077D02*
X327553D01*
X330322D01*
X327553Y215055D01*
Y214056D01*
X329296Y214650D01*
Y208950D01*
X330478D01*
Y216077D01*
D02*
G37*
%LPD*%
G36*
X341317Y210493D02*
X339530Y216054D01*
X343121D01*
X341317Y210493D01*
D02*
G37*
G36*
X331415Y336069D02*
X319575D01*
X331415Y340306D01*
Y336069D01*
D02*
G37*
%LPC*%
G36*
X319575Y346559D02*
D01*
Y344302D01*
X328844Y341296D01*
X319575Y338317D01*
Y336069D01*
X331415D01*
Y342304D01*
X319575Y346559D01*
D02*
G37*
G36*
X331415Y335542D02*
X329769D01*
Y330168D01*
X319575D01*
Y328115D01*
X331415D01*
Y335542D01*
D02*
G37*
G36*
X329889Y325848D02*
X325347D01*
Y321362D01*
X326911D01*
Y323804D01*
X329223D01*
X329353Y323665D01*
X329454Y323517D01*
X329556Y323351D01*
X329630Y323175D01*
X329704Y322990D01*
X329760Y322805D01*
X329806Y322611D01*
X329843Y322435D01*
X329880Y322259D01*
X329898Y322093D01*
X329917Y321945D01*
X329926Y321815D01*
Y321704D01*
X329935Y321630D01*
Y321556D01*
X329926Y321297D01*
X329889Y321047D01*
X329834Y320816D01*
X329769Y320603D01*
X329695Y320400D01*
X329602Y320215D01*
X329510Y320048D01*
X329408Y319891D01*
X329306Y319762D01*
X329214Y319641D01*
X329121Y319540D01*
X329047Y319457D01*
X328973Y319392D01*
X328927Y319345D01*
X328890Y319318D01*
X328881Y319308D01*
X328668Y319170D01*
X328446Y319040D01*
X328215Y318938D01*
X327965Y318846D01*
X327715Y318763D01*
X327475Y318698D01*
X327225Y318652D01*
X326994Y318605D01*
X326772Y318568D01*
X326568Y318550D01*
X326374Y318531D01*
X326217Y318513D01*
X326087D01*
X325986Y318504D01*
X325949D01*
X325921D01*
X325912D01*
X325902D01*
X324996D01*
X324644Y318513D01*
X324321Y318541D01*
X324015Y318578D01*
X323729Y318624D01*
X323470Y318679D01*
X323229Y318744D01*
X323007Y318809D01*
X322813Y318883D01*
X322637Y318948D01*
X322489Y319012D01*
X322360Y319077D01*
X322258Y319133D01*
X322175Y319179D01*
X322119Y319216D01*
X322082Y319234D01*
X322073Y319244D01*
X321897Y319383D01*
X321740Y319540D01*
X321610Y319706D01*
X321499Y319873D01*
X321398Y320048D01*
X321314Y320224D01*
X321250Y320400D01*
X321194Y320567D01*
X321157Y320724D01*
X321129Y320872D01*
X321102Y321001D01*
X321092Y321122D01*
X321083Y321214D01*
X321074Y321279D01*
Y321343D01*
X321083Y321538D01*
X321102Y321723D01*
X321129Y321899D01*
X321166Y322065D01*
X321213Y322222D01*
X321268Y322370D01*
X321407Y322639D01*
X321573Y322870D01*
X321749Y323073D01*
X321943Y323249D01*
X322147Y323397D01*
X322350Y323517D01*
X322545Y323610D01*
X322720Y323684D01*
X322887Y323748D01*
X323026Y323785D01*
X323081Y323804D01*
X323127Y323813D01*
X323164Y323822D01*
X323192Y323832D01*
X323211D01*
X323220D01*
Y325839D01*
X322887Y325783D01*
X322572Y325710D01*
X322276Y325626D01*
X321999Y325524D01*
X321749Y325413D01*
X321518Y325293D01*
X321305Y325173D01*
X321120Y325053D01*
X320954Y324933D01*
X320806Y324821D01*
X320685Y324720D01*
X320584Y324627D01*
X320500Y324553D01*
X320445Y324488D01*
X320408Y324451D01*
X320399Y324442D01*
X320223Y324220D01*
X320075Y323980D01*
X319945Y323721D01*
X319834Y323462D01*
X319733Y323203D01*
X319659Y322944D01*
X319594Y322685D01*
X319538Y322444D01*
X319501Y322213D01*
X319474Y321991D01*
X319446Y321797D01*
X319437Y321630D01*
X319427Y321501D01*
X319418Y321445D01*
Y316441D01*
X331582D01*
D01*
X326050D01*
X326356Y316450D01*
X326661Y316478D01*
X326938Y316506D01*
X327216Y316552D01*
X327475Y316598D01*
X327715Y316654D01*
X327937Y316709D01*
X328141Y316765D01*
X328326Y316829D01*
X328492Y316885D01*
X328640Y316931D01*
X328761Y316987D01*
X328853Y317024D01*
X328927Y317052D01*
X328964Y317070D01*
X328983Y317079D01*
X329214Y317199D01*
X329427Y317338D01*
X329630Y317477D01*
X329815Y317625D01*
X329991Y317773D01*
X330148Y317921D01*
X330287Y318060D01*
X330416Y318208D01*
X330537Y318337D01*
X330638Y318458D01*
X330722Y318568D01*
X330786Y318670D01*
X330842Y318744D01*
X330888Y318809D01*
X330907Y318846D01*
X330916Y318855D01*
X331036Y319077D01*
X331138Y319299D01*
X331221Y319521D01*
X331304Y319753D01*
X331369Y319974D01*
X331415Y320187D01*
X331462Y320400D01*
X331499Y320603D01*
X331526Y320789D01*
X331545Y320955D01*
X331563Y321103D01*
X331573Y321233D01*
Y321334D01*
X331582Y321417D01*
Y321501D01*
Y321482D01*
X331573Y321750D01*
X331563Y322009D01*
X331545Y322259D01*
X331517Y322500D01*
X331480Y322731D01*
X331443Y322944D01*
X331406Y323138D01*
X331369Y323323D01*
X331332Y323489D01*
X331295Y323638D01*
X331258Y323767D01*
X331221Y323869D01*
X331193Y323961D01*
X331175Y324017D01*
X331156Y324063D01*
Y324072D01*
X331073Y324276D01*
X330981Y324479D01*
X330879Y324655D01*
X330777Y324831D01*
X330666Y324988D01*
X330564Y325136D01*
X330463Y325266D01*
X330361Y325386D01*
X330268Y325497D01*
X330176Y325589D01*
X330093Y325663D01*
X330028Y325728D01*
X329972Y325783D01*
X329926Y325820D01*
X329898Y325839D01*
X329889Y325848D01*
D02*
G37*
%LPD*%
G36*
X319437Y320890D02*
X319483Y320493D01*
X319557Y320123D01*
X319659Y319771D01*
X319770Y319457D01*
X319899Y319161D01*
X320038Y318892D01*
X320177Y318652D01*
X320315Y318430D01*
X320454Y318245D01*
X320584Y318088D01*
X320695Y317958D01*
X320796Y317856D01*
X320870Y317773D01*
X320917Y317736D01*
X320935Y317718D01*
X321231Y317495D01*
X321546Y317292D01*
X321879Y317126D01*
X322230Y316978D01*
X322572Y316857D01*
X322924Y316756D01*
X323266Y316672D01*
X323599Y316598D01*
X323904Y316552D01*
X324200Y316506D01*
X324459Y316478D01*
X324570Y316469D01*
X324681Y316459D01*
X324783Y316450D01*
X324866D01*
X324940D01*
X325005Y316441D01*
X319418D01*
Y321306D01*
X319437Y320890D01*
D02*
G37*
%LPC*%
G36*
X481480Y214632D02*
X480219D01*
Y212567D01*
X481503D01*
X481545Y212572D01*
X481591Y212576D01*
X481642Y212581D01*
X481702Y212590D01*
X481762Y212599D01*
X481900Y212627D01*
X482039Y212673D01*
X482104Y212706D01*
X482168Y212738D01*
X482233Y212775D01*
X482288Y212821D01*
X482293Y212826D01*
X482302Y212835D01*
X482316Y212849D01*
X482335Y212867D01*
X482353Y212895D01*
X482381Y212927D01*
X482404Y212969D01*
X482432Y213011D01*
X482459Y213061D01*
X482482Y213117D01*
X482510Y213177D01*
X482529Y213246D01*
X482547Y213320D01*
X482561Y213399D01*
X482570Y213482D01*
X482575Y213569D01*
Y213574D01*
Y213593D01*
Y213616D01*
X482570Y213648D01*
X482566Y213690D01*
X482561Y213736D01*
X482552Y213791D01*
X482538Y213847D01*
X482506Y213967D01*
X482482Y214032D01*
X482450Y214096D01*
X482418Y214161D01*
X482381Y214221D01*
X482335Y214281D01*
X482284Y214336D01*
X482279Y214341D01*
X482270Y214350D01*
X482251Y214364D01*
X482228Y214383D01*
X482201Y214401D01*
X482164Y214429D01*
X482122Y214452D01*
X482076Y214480D01*
X482020Y214507D01*
X481960Y214535D01*
X481896Y214558D01*
X481822Y214581D01*
X481743Y214600D01*
X481660Y214618D01*
X481572Y214628D01*
X481480Y214632D01*
D02*
G37*
G36*
X465250Y214683D02*
X465222D01*
X465185Y214678D01*
X465139Y214674D01*
X465084Y214669D01*
X465019Y214655D01*
X464950Y214641D01*
X464871Y214618D01*
X464788Y214591D01*
X464705Y214554D01*
X464617Y214512D01*
X464529Y214461D01*
X464441Y214401D01*
X464358Y214332D01*
X464280Y214253D01*
X464206Y214161D01*
X464201Y214156D01*
X464192Y214138D01*
X464173Y214106D01*
X464146Y214064D01*
X464118Y214013D01*
X464086Y213944D01*
X464053Y213870D01*
X464016Y213782D01*
X463984Y213680D01*
X463947Y213569D01*
X463915Y213449D01*
X463887Y213315D01*
X463864Y213172D01*
X463845Y213020D01*
X463832Y212858D01*
X463827Y212683D01*
Y212345D01*
Y212341D01*
Y212336D01*
Y212322D01*
Y212304D01*
Y212281D01*
X463832Y212253D01*
Y212183D01*
X463841Y212105D01*
X463845Y212008D01*
X463859Y211906D01*
X463873Y211791D01*
X463896Y211671D01*
X463919Y211551D01*
X463952Y211426D01*
X463989Y211297D01*
X464030Y211176D01*
X464081Y211056D01*
X464141Y210945D01*
X464206Y210839D01*
X464210Y210835D01*
X464224Y210816D01*
X464247Y210788D01*
X464275Y210756D01*
X464317Y210714D01*
X464363Y210673D01*
X464418Y210622D01*
X464478Y210576D01*
X464552Y210525D01*
X464631Y210474D01*
X464714Y210433D01*
X464811Y210391D01*
X464913Y210359D01*
X465019Y210331D01*
X465134Y210312D01*
X465259Y210308D01*
X465291D01*
X465324Y210312D01*
X465370Y210317D01*
X465430Y210322D01*
X465495Y210335D01*
X465569Y210349D01*
X465647Y210372D01*
X465730Y210400D01*
X465813Y210433D01*
X465901Y210474D01*
X465989Y210525D01*
X466077Y210585D01*
X466160Y210654D01*
X466234Y210733D01*
X466308Y210825D01*
X466312Y210830D01*
X466322Y210848D01*
X466340Y210881D01*
X466368Y210922D01*
X466396Y210978D01*
X466423Y211042D01*
X466460Y211121D01*
X466493Y211209D01*
X466525Y211310D01*
X466562Y211426D01*
X466590Y211551D01*
X466622Y211685D01*
X466645Y211832D01*
X466664Y211994D01*
X466673Y212165D01*
X466677Y212345D01*
Y212650D01*
Y212655D01*
Y212659D01*
Y212673D01*
Y212692D01*
Y212715D01*
X466673Y212742D01*
Y212812D01*
X466668Y212895D01*
X466659Y212987D01*
X466645Y213094D01*
X466631Y213209D01*
X466613Y213329D01*
X466585Y213449D01*
X466557Y213574D01*
X466520Y213699D01*
X466479Y213824D01*
X466428Y213944D01*
X466368Y214055D01*
X466303Y214156D01*
X466299Y214161D01*
X466285Y214179D01*
X466266Y214207D01*
X466234Y214239D01*
X466197Y214276D01*
X466151Y214323D01*
X466095Y214369D01*
X466035Y214420D01*
X465961Y214470D01*
X465883Y214517D01*
X465795Y214563D01*
X465703Y214600D01*
X465601Y214637D01*
X465490Y214660D01*
X465375Y214678D01*
X465250Y214683D01*
D02*
G37*
G36*
X420478Y216077D02*
X417553D01*
X420322D01*
X417553Y215055D01*
Y215072D01*
Y214056D01*
X419296Y214650D01*
Y208950D01*
X420478D01*
Y216077D01*
D02*
G37*
G36*
X434475Y216054D02*
X433121D01*
X431317Y210493D01*
X429530Y216054D01*
X428181D01*
X430723Y208950D01*
X428181D01*
D01*
X434475D01*
X431922D01*
X434475Y216054D01*
D02*
G37*
G36*
X427721Y216149D02*
Y209899D01*
X424424D01*
X426156Y211753D01*
X426278Y211892D01*
X426394Y212020D01*
X426505Y212147D01*
X426600Y212269D01*
X426688Y212386D01*
X426771Y212497D01*
X426844Y212597D01*
X426910Y212691D01*
X426966Y212774D01*
X427010Y212852D01*
X427055Y212919D01*
X427088Y212974D01*
X427110Y213013D01*
X427127Y213046D01*
X427138Y213069D01*
X427143Y213074D01*
X427199Y213185D01*
X427243Y213291D01*
X427282Y213396D01*
X427315Y213496D01*
X427371Y213685D01*
X427388Y213768D01*
X427404Y213851D01*
X427421Y213923D01*
X427426Y213990D01*
X427432Y214051D01*
X427437Y214095D01*
X427443Y214134D01*
Y214167D01*
Y214184D01*
Y214190D01*
X427437Y214356D01*
X427415Y214517D01*
X427388Y214661D01*
X427349Y214800D01*
X427304Y214928D01*
X427254Y215044D01*
X427199Y215155D01*
X427143Y215250D01*
X427088Y215338D01*
X427032Y215416D01*
X426982Y215477D01*
X426938Y215533D01*
X426899Y215572D01*
X426871Y215605D01*
X426849Y215621D01*
X426844Y215627D01*
X426727Y215721D01*
X426600Y215799D01*
X426472Y215871D01*
X426339Y215927D01*
X426200Y215977D01*
X426067Y216021D01*
X425934Y216054D01*
X425806Y216082D01*
X425684Y216104D01*
X425573Y216121D01*
X425467Y216132D01*
X425384Y216143D01*
X425312D01*
X425256Y216149D01*
X425212D01*
X425079Y216143D01*
X424951Y216138D01*
X424829Y216121D01*
X424713Y216104D01*
X424602Y216082D01*
X424496Y216060D01*
X424402Y216032D01*
X424313Y216004D01*
X424230Y215977D01*
X424157Y215949D01*
X424096Y215927D01*
X424047Y215905D01*
X424002Y215888D01*
X423974Y215871D01*
X423952Y215866D01*
X423947Y215860D01*
X423847Y215805D01*
X423752Y215744D01*
X423664Y215677D01*
X423586Y215610D01*
X423508Y215544D01*
X423436Y215477D01*
X423375Y215411D01*
X423319Y215350D01*
X423270Y215288D01*
X423225Y215233D01*
X423186Y215177D01*
X423159Y215139D01*
X423136Y215100D01*
X423120Y215072D01*
X423108Y215055D01*
X423103Y215050D01*
X423053Y214950D01*
X423009Y214850D01*
X422964Y214750D01*
X422931Y214650D01*
X422881Y214456D01*
X422859Y214362D01*
X422848Y214273D01*
X422831Y214190D01*
X422825Y214118D01*
X422820Y214051D01*
X422814Y213995D01*
X422809Y213945D01*
Y213990D01*
Y208950D01*
X427721D01*
Y216149D01*
D02*
G37*
%LPD*%
G36*
X425290Y215194D02*
X425373Y215189D01*
X425451Y215172D01*
X425523Y215150D01*
X425656Y215100D01*
X425711Y215072D01*
X425767Y215044D01*
X425811Y215011D01*
X425850Y214983D01*
X425889Y214955D01*
X425917Y214933D01*
X425939Y214911D01*
X425956Y214895D01*
X425961Y214889D01*
X425967Y214883D01*
X426017Y214822D01*
X426061Y214761D01*
X426100Y214695D01*
X426133Y214622D01*
X426183Y214489D01*
X426222Y214362D01*
X426233Y214301D01*
X426239Y214245D01*
X426244Y214195D01*
X426250Y214151D01*
X426255Y214118D01*
Y214090D01*
Y214073D01*
Y214068D01*
X426244Y213923D01*
X426222Y213785D01*
X426189Y213651D01*
X426150Y213535D01*
X426128Y213485D01*
X426105Y213440D01*
X426089Y213396D01*
X426072Y213363D01*
X426061Y213335D01*
X426050Y213313D01*
X426039Y213302D01*
Y213296D01*
X425994Y213224D01*
X425945Y213146D01*
X425834Y212985D01*
X425711Y212824D01*
X425595Y212674D01*
X425539Y212608D01*
X425484Y212541D01*
X425440Y212486D01*
X425395Y212436D01*
X425362Y212397D01*
X425334Y212369D01*
X425317Y212347D01*
X425312Y212341D01*
X422942Y209761D01*
Y208950D01*
X422809D01*
Y213884D01*
X423991D01*
X423996Y213995D01*
X424002Y214101D01*
X424019Y214201D01*
X424041Y214289D01*
X424063Y214378D01*
X424091Y214456D01*
X424119Y214528D01*
X424152Y214595D01*
X424180Y214650D01*
X424207Y214700D01*
X424235Y214745D01*
X424257Y214778D01*
X424280Y214806D01*
X424296Y214828D01*
X424302Y214839D01*
X424307Y214844D01*
X424368Y214906D01*
X424440Y214961D01*
X424507Y215011D01*
X424585Y215050D01*
X424657Y215083D01*
X424729Y215111D01*
X424873Y215155D01*
X424940Y215172D01*
X425001Y215183D01*
X425057Y215189D01*
X425106Y215194D01*
X425145Y215200D01*
X425201D01*
X425290Y215194D01*
D02*
G37*
%LPC*%
G36*
X365111Y216199D02*
X364950D01*
X364833Y216188D01*
X364611Y216160D01*
X364511Y216138D01*
X364417Y216115D01*
X364322Y216093D01*
X364245Y216071D01*
X364167Y216049D01*
X364101Y216027D01*
X364039Y216004D01*
X363995Y215982D01*
X363951Y215966D01*
X363923Y215954D01*
X363906Y215949D01*
X363901Y215943D01*
X363718Y215844D01*
X363634Y215788D01*
X363557Y215727D01*
X363485Y215671D01*
X363418Y215610D01*
X363357Y215555D01*
X363301Y215499D01*
X363251Y215450D01*
X363212Y215400D01*
X363174Y215355D01*
X363146Y215316D01*
X363124Y215288D01*
X363102Y215266D01*
X363096Y215250D01*
X363090Y215244D01*
X363040Y215161D01*
X362996Y215072D01*
X362957Y214989D01*
X362924Y214900D01*
X362874Y214734D01*
X362841Y214584D01*
X362824Y214511D01*
X362819Y214451D01*
X362813Y214389D01*
X362807Y214345D01*
X362802Y214306D01*
Y214273D01*
Y214256D01*
Y214251D01*
X363989D01*
X363995Y214334D01*
X364001Y214412D01*
X364039Y214550D01*
X364084Y214672D01*
X364145Y214778D01*
X364200Y214861D01*
X364223Y214895D01*
X364245Y214922D01*
X364267Y214944D01*
X364284Y214961D01*
X364289Y214967D01*
X364295Y214972D01*
X364356Y215022D01*
X364417Y215067D01*
X364483Y215100D01*
X364550Y215133D01*
X364683Y215183D01*
X364805Y215216D01*
X364916Y215233D01*
X364961Y215244D01*
X365005D01*
X365038Y215250D01*
X365083D01*
X365183Y215244D01*
X365272Y215239D01*
X365360Y215222D01*
X365438Y215205D01*
X365510Y215183D01*
X365577Y215161D01*
X365638Y215133D01*
X365693Y215111D01*
X365738Y215083D01*
X365782Y215055D01*
X365815Y215033D01*
X365843Y215011D01*
X365865Y214994D01*
X365882Y214978D01*
X365888Y214972D01*
X365893Y214967D01*
X365938Y214911D01*
X365982Y214850D01*
X366049Y214722D01*
X366093Y214595D01*
X366126Y214467D01*
X366148Y214356D01*
X366154Y214306D01*
Y214262D01*
X366160Y214229D01*
Y214201D01*
Y214184D01*
Y214178D01*
X366154Y214084D01*
X366148Y213990D01*
X366132Y213907D01*
X366110Y213829D01*
X366087Y213757D01*
X366060Y213690D01*
X366026Y213629D01*
X365999Y213574D01*
X365971Y213529D01*
X365938Y213485D01*
X365910Y213452D01*
X365888Y213418D01*
X365865Y213396D01*
X365854Y213379D01*
X365843Y213374D01*
X365838Y213368D01*
X365777Y213318D01*
X365710Y213279D01*
X365638Y213241D01*
X365571Y213207D01*
X365427Y213157D01*
X365288Y213124D01*
X365222Y213113D01*
X365161Y213107D01*
X365111Y213102D01*
X365061Y213096D01*
X365027Y213091D01*
X364250D01*
Y212153D01*
X364950D01*
X365066Y212147D01*
X365183Y212142D01*
X365283Y212125D01*
X365377Y212103D01*
X365466Y212081D01*
X365549Y212058D01*
X365621Y212031D01*
X365688Y212003D01*
X365743Y211970D01*
X365793Y211942D01*
X365838Y211920D01*
X365871Y211897D01*
X365899Y211875D01*
X365915Y211859D01*
X365927Y211853D01*
X365932Y211847D01*
X365993Y211787D01*
X366043Y211725D01*
X366087Y211659D01*
X366126Y211587D01*
X366160Y211514D01*
X366182Y211442D01*
X366226Y211304D01*
X366237Y211243D01*
X366248Y211181D01*
X366254Y211126D01*
X366260Y211082D01*
X366265Y211043D01*
Y211010D01*
Y210993D01*
Y210987D01*
X366260Y210887D01*
X366254Y210793D01*
X366237Y210704D01*
X366215Y210621D01*
X366193Y210543D01*
X366165Y210477D01*
X366137Y210410D01*
X366110Y210355D01*
X366076Y210305D01*
X366049Y210260D01*
X366021Y210221D01*
X365999Y210194D01*
X365976Y210171D01*
X365960Y210155D01*
X365954Y210144D01*
X365949Y210138D01*
X365888Y210088D01*
X365821Y210044D01*
X365749Y210005D01*
X365682Y209972D01*
X365538Y209922D01*
X365399Y209888D01*
X365333Y209872D01*
X365272Y209866D01*
X365222Y209861D01*
X365172Y209855D01*
X365138Y209850D01*
X365083D01*
X364983Y209855D01*
X364894Y209861D01*
X364805Y209877D01*
X364728Y209894D01*
X364650Y209916D01*
X364578Y209938D01*
X364517Y209966D01*
X364461Y209994D01*
X364406Y210022D01*
X364361Y210049D01*
X364322Y210071D01*
X364289Y210094D01*
X364267Y210110D01*
X364250Y210127D01*
X364239Y210133D01*
X364234Y210138D01*
X364178Y210194D01*
X364134Y210255D01*
X364089Y210316D01*
X364056Y210382D01*
X364001Y210510D01*
X363962Y210627D01*
X363940Y210737D01*
X363934Y210782D01*
X363929Y210821D01*
X363923Y210854D01*
Y210876D01*
Y210893D01*
Y210898D01*
X362735D01*
D01*
X362741Y210732D01*
X362763Y210577D01*
X362796Y210427D01*
X362835Y210288D01*
X362885Y210160D01*
X362941Y210044D01*
X363002Y209933D01*
X363063Y209833D01*
X363118Y209744D01*
X363179Y209666D01*
X363235Y209600D01*
X363285Y209544D01*
X363323Y209500D01*
X363357Y209472D01*
X363379Y209450D01*
X363385Y209444D01*
X363512Y209350D01*
X363645Y209267D01*
X363784Y209195D01*
X363923Y209128D01*
X364067Y209078D01*
X364206Y209034D01*
X364339Y208995D01*
X364472Y208967D01*
X364595Y208945D01*
X364705Y208928D01*
X364811Y208917D01*
X364894Y208912D01*
X364966Y208906D01*
X365022Y208900D01*
X362735D01*
X367447D01*
Y210987D01*
X367442Y211098D01*
X367436Y211204D01*
X367397Y211398D01*
X367375Y211487D01*
X367353Y211570D01*
X367325Y211648D01*
X367297Y211720D01*
X367264Y211787D01*
X367236Y211842D01*
X367214Y211892D01*
X367192Y211931D01*
X367170Y211964D01*
X367153Y211992D01*
X367147Y212003D01*
X367142Y212009D01*
X367081Y212086D01*
X367014Y212158D01*
X366876Y212286D01*
X366726Y212397D01*
X366581Y212486D01*
X366515Y212525D01*
X366454Y212552D01*
X366398Y212580D01*
X366348Y212602D01*
X366309Y212619D01*
X366282Y212630D01*
X366260Y212641D01*
X366254D01*
X366426Y212730D01*
X366581Y212830D01*
X366715Y212935D01*
X366776Y212985D01*
X366826Y213035D01*
X366876Y213085D01*
X366914Y213130D01*
X366953Y213168D01*
X366981Y213207D01*
X367003Y213235D01*
X367025Y213257D01*
X367031Y213268D01*
X367037Y213274D01*
X367092Y213352D01*
X367136Y213435D01*
X367181Y213512D01*
X367214Y213590D01*
X367270Y213746D01*
X367303Y213884D01*
X367314Y213945D01*
X367325Y214001D01*
X367331Y214051D01*
X367336Y214090D01*
X367342Y214129D01*
Y214151D01*
Y214167D01*
Y214173D01*
X367336Y214345D01*
X367314Y214511D01*
X367286Y214667D01*
X367247Y214806D01*
X367203Y214939D01*
X367153Y215061D01*
X367097Y215172D01*
X367042Y215277D01*
X366981Y215366D01*
X366931Y215444D01*
X366876Y215511D01*
X366831Y215561D01*
X366792Y215605D01*
X366764Y215638D01*
X366742Y215655D01*
X366737Y215660D01*
X366620Y215755D01*
X366493Y215838D01*
X366359Y215910D01*
X366221Y215971D01*
X366082Y216027D01*
X365943Y216066D01*
X365804Y216104D01*
X365677Y216132D01*
X365549Y216154D01*
X365438Y216171D01*
X365333Y216182D01*
X365244Y216193D01*
X365166D01*
X365111Y216199D01*
D02*
G37*
G36*
X352967D02*
X352806D01*
X352690Y216188D01*
X352468Y216160D01*
X352368Y216138D01*
X352274Y216115D01*
X352179Y216093D01*
X352101Y216071D01*
X352024Y216049D01*
X351957Y216027D01*
X351896Y216004D01*
X351852Y215982D01*
X351807Y215966D01*
X351780Y215954D01*
X351763Y215949D01*
X351757Y215943D01*
X351574Y215844D01*
X351491Y215788D01*
X351413Y215727D01*
X351341Y215671D01*
X351274Y215610D01*
X351213Y215555D01*
X351158Y215499D01*
X351108Y215450D01*
X351069Y215400D01*
X351030Y215355D01*
X351003Y215316D01*
X350980Y215288D01*
X350958Y215266D01*
X350953Y215250D01*
X350947Y215244D01*
X350897Y215161D01*
X350853Y215072D01*
X350814Y214989D01*
X350781Y214900D01*
X350731Y214734D01*
X350697Y214584D01*
X350681Y214511D01*
X350675Y214451D01*
X350670Y214389D01*
X350664Y214345D01*
X350658Y214306D01*
Y214273D01*
Y214256D01*
Y214251D01*
X351846D01*
X351852Y214334D01*
X351857Y214412D01*
X351896Y214550D01*
X351940Y214672D01*
X352002Y214778D01*
X352057Y214861D01*
X352079Y214895D01*
X352101Y214922D01*
X352124Y214944D01*
X352140Y214961D01*
X352146Y214967D01*
X352151Y214972D01*
X352212Y215022D01*
X352274Y215067D01*
X352340Y215100D01*
X352407Y215133D01*
X352540Y215183D01*
X352662Y215216D01*
X352773Y215233D01*
X352817Y215244D01*
X352862D01*
X352895Y215250D01*
X352940D01*
X353039Y215244D01*
X353128Y215239D01*
X353217Y215222D01*
X353295Y215205D01*
X353367Y215183D01*
X353433Y215161D01*
X353495Y215133D01*
X353550Y215111D01*
X353594Y215083D01*
X353639Y215055D01*
X353672Y215033D01*
X353700Y215011D01*
X353722Y214994D01*
X353739Y214978D01*
X353744Y214972D01*
X353750Y214967D01*
X353794Y214911D01*
X353839Y214850D01*
X353905Y214722D01*
X353950Y214595D01*
X353983Y214467D01*
X354005Y214356D01*
X354011Y214306D01*
Y214262D01*
X354016Y214229D01*
Y214201D01*
Y214184D01*
Y214178D01*
X354011Y214084D01*
X354005Y213990D01*
X353988Y213907D01*
X353966Y213829D01*
X353944Y213757D01*
X353916Y213690D01*
X353883Y213629D01*
X353855Y213574D01*
X353828Y213529D01*
X353794Y213485D01*
X353766Y213452D01*
X353744Y213418D01*
X353722Y213396D01*
X353711Y213379D01*
X353700Y213374D01*
X353694Y213368D01*
X353633Y213318D01*
X353567Y213279D01*
X353495Y213241D01*
X353428Y213207D01*
X353284Y213157D01*
X353145Y213124D01*
X353078Y213113D01*
X353017Y213107D01*
X352967Y213102D01*
X352917Y213096D01*
X352884Y213091D01*
X352107D01*
Y212153D01*
X352806D01*
X352923Y212147D01*
X353039Y212142D01*
X353139Y212125D01*
X353234Y212103D01*
X353322Y212081D01*
X353406Y212058D01*
X353478Y212031D01*
X353544Y212003D01*
X353600Y211970D01*
X353650Y211942D01*
X353694Y211920D01*
X353728Y211897D01*
X353755Y211875D01*
X353772Y211859D01*
X353783Y211853D01*
X353789Y211847D01*
X353850Y211787D01*
X353900Y211725D01*
X353944Y211659D01*
X353983Y211587D01*
X354016Y211514D01*
X354038Y211442D01*
X354083Y211304D01*
X354094Y211243D01*
X354105Y211181D01*
X354111Y211126D01*
X354116Y211082D01*
X354122Y211043D01*
Y211010D01*
Y210993D01*
Y210987D01*
X354116Y210887D01*
X354111Y210793D01*
X354094Y210704D01*
X354072Y210621D01*
X354049Y210543D01*
X354022Y210477D01*
X353994Y210410D01*
X353966Y210355D01*
X353933Y210305D01*
X353905Y210260D01*
X353877Y210221D01*
X353855Y210194D01*
X353833Y210171D01*
X353816Y210155D01*
X353811Y210144D01*
X353805Y210138D01*
X353744Y210088D01*
X353678Y210044D01*
X353606Y210005D01*
X353539Y209972D01*
X353395Y209922D01*
X353256Y209888D01*
X353189Y209872D01*
X353128Y209866D01*
X353078Y209861D01*
X353028Y209855D01*
X352995Y209850D01*
X352940D01*
X352840Y209855D01*
X352751Y209861D01*
X352662Y209877D01*
X352584Y209894D01*
X352507Y209916D01*
X352434Y209938D01*
X352373Y209966D01*
X352318Y209994D01*
X352262Y210022D01*
X352218Y210049D01*
X352179Y210071D01*
X352146Y210094D01*
X352124Y210110D01*
X352107Y210127D01*
X352096Y210133D01*
X352090Y210138D01*
X352035Y210194D01*
X351990Y210255D01*
X351946Y210316D01*
X351913Y210382D01*
X351857Y210510D01*
X351818Y210627D01*
X351796Y210737D01*
X351791Y210782D01*
X351785Y210821D01*
X351780Y210854D01*
Y210876D01*
Y210893D01*
Y210898D01*
X350592D01*
D01*
X350597Y210732D01*
X350620Y210577D01*
X350653Y210427D01*
X350692Y210288D01*
X350742Y210160D01*
X350797Y210044D01*
X350858Y209933D01*
X350919Y209833D01*
X350975Y209744D01*
X351036Y209666D01*
X351091Y209600D01*
X351141Y209544D01*
X351180Y209500D01*
X351213Y209472D01*
X351236Y209450D01*
X351241Y209444D01*
X351369Y209350D01*
X351502Y209267D01*
X351641Y209195D01*
X351780Y209128D01*
X351924Y209078D01*
X352063Y209034D01*
X352196Y208995D01*
X352329Y208967D01*
X352451Y208945D01*
X352562Y208928D01*
X352667Y208917D01*
X352751Y208912D01*
X352823Y208906D01*
X352878Y208900D01*
X350592D01*
X355304D01*
Y210987D01*
X355298Y211098D01*
X355293Y211204D01*
X355254Y211398D01*
X355232Y211487D01*
X355209Y211570D01*
X355182Y211648D01*
X355154Y211720D01*
X355121Y211787D01*
X355093Y211842D01*
X355071Y211892D01*
X355048Y211931D01*
X355026Y211964D01*
X355010Y211992D01*
X355004Y212003D01*
X354998Y212009D01*
X354938Y212086D01*
X354871Y212158D01*
X354732Y212286D01*
X354582Y212397D01*
X354438Y212486D01*
X354371Y212525D01*
X354310Y212552D01*
X354255Y212580D01*
X354205Y212602D01*
X354166Y212619D01*
X354138Y212630D01*
X354116Y212641D01*
X354111D01*
X354283Y212730D01*
X354438Y212830D01*
X354571Y212935D01*
X354632Y212985D01*
X354682Y213035D01*
X354732Y213085D01*
X354771Y213130D01*
X354810Y213168D01*
X354838Y213207D01*
X354860Y213235D01*
X354882Y213257D01*
X354888Y213268D01*
X354893Y213274D01*
X354949Y213352D01*
X354993Y213435D01*
X355037Y213512D01*
X355071Y213590D01*
X355126Y213746D01*
X355159Y213884D01*
X355171Y213945D01*
X355182Y214001D01*
X355187Y214051D01*
X355193Y214090D01*
X355198Y214129D01*
Y214151D01*
Y214167D01*
Y214173D01*
X355193Y214345D01*
X355171Y214511D01*
X355143Y214667D01*
X355104Y214806D01*
X355060Y214939D01*
X355010Y215061D01*
X354954Y215172D01*
X354899Y215277D01*
X354838Y215366D01*
X354788Y215444D01*
X354732Y215511D01*
X354688Y215561D01*
X354649Y215605D01*
X354621Y215638D01*
X354599Y215655D01*
X354593Y215660D01*
X354477Y215755D01*
X354349Y215838D01*
X354216Y215910D01*
X354077Y215971D01*
X353939Y216027D01*
X353800Y216066D01*
X353661Y216104D01*
X353533Y216132D01*
X353406Y216154D01*
X353295Y216171D01*
X353189Y216182D01*
X353100Y216193D01*
X353023D01*
X352967Y216199D01*
D02*
G37*
G36*
X362269Y216104D02*
X355975D01*
D01*
X358517Y209000D01*
X359716D01*
X362269Y216104D01*
Y209666D01*
Y216104D01*
D02*
G37*
%LPD*%
G36*
X367447Y208900D02*
X365066D01*
X365261Y208906D01*
X365449Y208923D01*
X365621Y208950D01*
X365788Y208989D01*
X365943Y209028D01*
X366082Y209078D01*
X366215Y209128D01*
X366332Y209184D01*
X366437Y209233D01*
X366531Y209283D01*
X366609Y209333D01*
X366676Y209372D01*
X366726Y209411D01*
X366764Y209439D01*
X366787Y209455D01*
X366792Y209461D01*
X366909Y209572D01*
X367009Y209689D01*
X367097Y209811D01*
X367170Y209938D01*
X367236Y210066D01*
X367286Y210194D01*
X367331Y210316D01*
X367364Y210438D01*
X367392Y210549D01*
X367414Y210654D01*
X367425Y210749D01*
X367436Y210826D01*
X367442Y210893D01*
X367447Y210943D01*
Y208900D01*
D02*
G37*
G36*
X355304D02*
X352923D01*
X353117Y208906D01*
X353306Y208923D01*
X353478Y208950D01*
X353644Y208989D01*
X353800Y209028D01*
X353939Y209078D01*
X354072Y209128D01*
X354188Y209184D01*
X354294Y209233D01*
X354388Y209283D01*
X354466Y209333D01*
X354532Y209372D01*
X354582Y209411D01*
X354621Y209439D01*
X354643Y209455D01*
X354649Y209461D01*
X354765Y209572D01*
X354865Y209689D01*
X354954Y209811D01*
X355026Y209938D01*
X355093Y210066D01*
X355143Y210194D01*
X355187Y210316D01*
X355221Y210438D01*
X355248Y210549D01*
X355271Y210654D01*
X355282Y210749D01*
X355293Y210826D01*
X355298Y210893D01*
X355304Y210943D01*
Y208900D01*
D02*
G37*
G36*
X359111Y210543D02*
X357324Y216104D01*
X360915D01*
X359111Y210543D01*
D02*
G37*
D10*
X394949Y245905D02*
X394583Y246789D01*
X393699Y247155D01*
X392815Y246789D01*
X392449Y245905D01*
X431823Y305269D02*
X432189Y304385D01*
X433073Y304019D01*
X433956Y304385D01*
X434323Y305269D01*
X394949Y285276D02*
X394583Y286159D01*
X393699Y286526D01*
X392815Y286159D01*
X392449Y285276D01*
X355579Y285282D02*
X355213Y286166D01*
X354329Y286532D01*
X353445Y286166D01*
X353079Y285282D01*
X342201Y364016D02*
X341451Y364449D01*
Y363583D01*
X342201Y364016D01*
X397778Y245905D02*
Y265905D01*
X389620D02*
X397778D01*
X389620Y245905D02*
Y265905D01*
Y245905D02*
X392449D01*
X394949D02*
X397778D01*
X347818Y248203D02*
Y256864D01*
X369629Y248033D02*
Y257033D01*
X363129Y248033D02*
X369629D01*
X359531Y252500D02*
X361500Y254468D01*
Y250532D02*
Y254468D01*
X359531Y252500D02*
X361500Y250532D01*
X358054Y250565D02*
Y254502D01*
X363129Y257033D02*
X369629D01*
X349629D02*
X356129D01*
X349629Y248033D02*
Y257033D01*
Y248033D02*
X356129D01*
X348516Y218177D02*
Y229177D01*
X369516D01*
Y218177D02*
Y229177D01*
X348516Y218177D02*
X369516D01*
X346516D02*
Y229177D01*
X325516Y218177D02*
X346516D01*
X325516D02*
Y229177D01*
X346516D01*
X438500Y218161D02*
Y229161D01*
X459500D01*
Y218161D02*
Y229161D01*
X438500Y218161D02*
X459500D01*
X436500D02*
Y229161D01*
X415500Y218161D02*
X436500D01*
X415500D02*
Y229161D01*
X436500D01*
X437198Y240620D02*
Y249282D01*
X415387Y240451D02*
Y249451D01*
X421887D01*
X423516Y243016D02*
X425484Y244984D01*
X423516Y243016D02*
Y246953D01*
X425484Y244984D01*
X426962Y242982D02*
Y246919D01*
X415387Y240451D02*
X421887D01*
X428887D02*
X435387D01*
Y249451D01*
X428887D02*
X435387D01*
X428994Y285269D02*
Y305269D01*
Y285269D02*
X437151D01*
Y305269D01*
X434323D02*
X437151D01*
X428994D02*
X431823D01*
X397778Y285276D02*
Y305276D01*
X389620D02*
X397778D01*
X389620Y285276D02*
Y305276D01*
Y285276D02*
X392449D01*
X394949D02*
X397778D01*
X358408Y285282D02*
Y305282D01*
X350250D02*
X358408D01*
X350250Y285282D02*
Y305282D01*
Y285282D02*
X353079D01*
X355579D02*
X358408D01*
X524217Y431071D02*
Y435071D01*
X468000Y439000D02*
Y465000D01*
X436500Y439000D02*
X468000D01*
X436500D02*
Y465000D01*
X468000D01*
X465500Y436500D02*
Y437500D01*
Y425500D02*
Y426500D01*
X319000Y427000D02*
Y453000D01*
X350500D01*
Y427000D02*
Y453000D01*
X319000Y427000D02*
X350500D01*
X263185Y431071D02*
Y435071D01*
X321500Y454500D02*
Y455500D01*
Y465500D02*
Y466500D01*
X343701Y324016D02*
X443701D01*
Y424016D01*
X343701D02*
X443701D01*
X343701Y324016D02*
Y424016D01*
X257700Y266339D02*
Y316339D01*
X300590Y279528D02*
Y303150D01*
X257700Y266339D02*
X296700D01*
X257700Y316339D02*
X296700D01*
X257591Y319488D02*
X296590D01*
X257591Y369488D02*
X296590D01*
X312591Y332677D02*
Y356299D01*
X257591Y319488D02*
Y369488D01*
X490702Y372638D02*
X529702D01*
X490702Y422638D02*
X529702D01*
X486811Y385827D02*
Y409449D01*
X529702Y372638D02*
Y422638D01*
X257700D02*
X296700D01*
X257700Y372638D02*
X296700D01*
X300590Y385827D02*
Y409449D01*
X257700Y372638D02*
Y422638D01*
X529811Y319488D02*
Y369488D01*
X474811Y332677D02*
Y356299D01*
X490811Y319488D02*
X529811D01*
X490811Y369488D02*
X529811D01*
X490702Y266339D02*
X529702D01*
X490702Y316339D02*
X529702D01*
X486811Y279528D02*
Y303150D01*
X529702Y266339D02*
Y316339D01*
X529811Y225095D02*
Y263094D01*
X474811Y232283D02*
Y255906D01*
X490811Y263094D02*
X529811D01*
X490811Y225095D02*
X529811D01*
X257591D02*
Y263094D01*
X312591Y232283D02*
Y255906D01*
X257591Y225095D02*
X296590D01*
X257591Y263094D02*
X296590D01*
D11*
X353232Y231429D02*
X352494Y231855D01*
Y231003D01*
X353232Y231429D01*
X432768Y265587D02*
X432029Y266013D01*
Y265160D01*
X432768Y265587D01*
X490978Y433825D02*
X490240Y434251D01*
Y433399D01*
X490978Y433825D01*
X313167Y451486D02*
X312429Y451912D01*
Y451060D01*
X313167Y451486D01*
D12*
X322000Y294500D02*
Y296500D01*
X324500Y290500D02*
X328000D01*
Y292500D01*
X324500Y300500D02*
X328000D01*
Y298500D02*
Y300500D01*
X463000Y294500D02*
Y296500D01*
X457000Y300500D02*
X460500D01*
X457000Y298500D02*
Y300500D01*
Y290500D02*
X460500D01*
X457000D02*
Y292500D01*
X346129Y258533D02*
Y264533D01*
X358129Y258533D02*
Y264533D01*
X346129D02*
X351129D01*
X353129D02*
X358129D01*
X346129Y258533D02*
X351129D01*
X353129D02*
X358129D01*
X340129Y248033D02*
X346129D01*
X340129Y260033D02*
X346129D01*
X340129Y248033D02*
Y253033D01*
Y255033D02*
Y260033D01*
X346129Y248033D02*
Y253033D01*
Y255033D02*
Y260033D01*
X363516Y244516D02*
X369516D01*
X363516Y232516D02*
X369516D01*
Y239516D02*
Y244516D01*
Y232516D02*
Y237516D01*
X363516Y239516D02*
Y244516D01*
Y232516D02*
Y237516D01*
X357516Y232516D02*
X363516D01*
X357516Y244516D02*
X363516D01*
X357516Y232516D02*
Y237516D01*
Y239516D02*
Y244516D01*
X363516Y232516D02*
Y237516D01*
Y239516D02*
Y244516D01*
X332016D02*
X338016D01*
X332016Y232516D02*
X338016D01*
Y239516D02*
Y244516D01*
Y232516D02*
Y237516D01*
X332016Y239516D02*
Y244516D01*
Y232516D02*
Y237516D01*
X438887Y237451D02*
X444887D01*
X438887Y249451D02*
X444887D01*
X438887Y237451D02*
Y242451D01*
Y244451D02*
Y249451D01*
X444887Y237451D02*
Y242451D01*
Y244451D02*
Y249451D01*
X438887Y232951D02*
Y238951D01*
X426887Y232951D02*
Y238951D01*
X433887Y232951D02*
X438887D01*
X426887D02*
X431887D01*
X433887Y238951D02*
X438887D01*
X426887D02*
X431887D01*
X447000Y264500D02*
X453000D01*
X447000Y252500D02*
X453000D01*
Y259500D02*
Y264500D01*
Y252500D02*
Y257500D01*
X447000Y259500D02*
Y264500D01*
Y252500D02*
Y257500D01*
X415500Y264500D02*
X421500D01*
X415500Y252500D02*
X421500D01*
Y259500D02*
Y264500D01*
Y252500D02*
Y257500D01*
X415500Y259500D02*
Y264500D01*
Y252500D02*
Y257500D01*
X421500Y264500D02*
X427500D01*
X421500Y252500D02*
X427500D01*
Y259500D02*
Y264500D01*
Y252500D02*
Y257500D01*
X421500Y259500D02*
Y264500D01*
Y252500D02*
Y257500D01*
X421000Y268653D02*
X426000D01*
X414000D02*
X419000D01*
X421000Y274654D02*
X426000D01*
X414000D02*
X419000D01*
X426000Y268653D02*
Y274654D01*
X414000Y268653D02*
Y274654D01*
X434071Y308024D02*
X439071D01*
X427071D02*
X432071D01*
X434071Y314024D02*
X439071D01*
X427071D02*
X432071D01*
X439071Y308024D02*
Y314024D01*
X427071Y308024D02*
Y314024D01*
X421000Y308000D02*
X426000D01*
X414000D02*
X419000D01*
X421000Y314000D02*
X426000D01*
X414000D02*
X419000D01*
X426000Y308000D02*
Y314000D01*
X414000Y308000D02*
Y314000D01*
X368500Y268653D02*
X373500D01*
X361500D02*
X366500D01*
X368500Y274654D02*
X373500D01*
X361500D02*
X366500D01*
X373500Y268653D02*
Y274654D01*
X361500Y268653D02*
Y274654D01*
X368500Y308000D02*
X373500D01*
X361500D02*
X366500D01*
X368500Y314000D02*
X373500D01*
X361500D02*
X366500D01*
X373500Y308000D02*
Y314000D01*
X361500Y308000D02*
Y314000D01*
X348331Y314024D02*
X353331D01*
X355331D02*
X360331D01*
X348331Y308024D02*
X353331D01*
X355331D02*
X360331D01*
X348331D02*
Y314024D01*
X360331Y308024D02*
Y314024D01*
X483500Y456000D02*
X490000D01*
X470000D02*
X476500D01*
X483500Y465000D02*
X490000D01*
X470000D02*
X476500D01*
X490000Y456000D02*
Y465000D01*
X470000Y456000D02*
Y465000D01*
X483500Y447000D02*
X490000D01*
X470000D02*
X476500D01*
X483500Y456000D02*
X490000D01*
X470000D02*
X476500D01*
X490000Y447000D02*
Y456000D01*
X470000Y447000D02*
Y456000D01*
X492500Y465000D02*
X498500D01*
X492500Y453000D02*
X498500D01*
Y460000D02*
Y465000D01*
Y453000D02*
Y458000D01*
X492500Y460000D02*
Y465000D01*
Y453000D02*
Y458000D01*
Y453000D02*
X498500D01*
X492500Y441000D02*
X498500D01*
Y448000D02*
Y453000D01*
Y441000D02*
Y446000D01*
X492500Y448000D02*
Y453000D01*
Y441000D02*
Y446000D01*
X497937Y430071D02*
Y436071D01*
X509937Y430071D02*
Y436071D01*
X497937D02*
X502937D01*
X504937D02*
X509937D01*
X497937Y430071D02*
X502937D01*
X504937D02*
X509937D01*
X480500Y422000D02*
X485500D01*
X473500D02*
X478500D01*
X480500Y428000D02*
X485500D01*
X473500D02*
X478500D01*
X485500Y422000D02*
Y428000D01*
X473500Y422000D02*
Y428000D01*
X416500Y465000D02*
X423500D01*
X429500D02*
X436500D01*
X416500Y452000D02*
X423500D01*
X429500D02*
X436500D01*
X416500D02*
Y465000D01*
X436500Y452000D02*
Y465000D01*
X416500Y452000D02*
X423500D01*
X429500D02*
X436500D01*
X416500Y439000D02*
X423500D01*
X429500D02*
X436500D01*
X416500D02*
Y452000D01*
X436500Y439000D02*
Y452000D01*
X289465Y430071D02*
Y436071D01*
X277465Y430071D02*
Y436071D01*
X284465Y430071D02*
X289465D01*
X277465D02*
X282465D01*
X284465Y436071D02*
X289465D01*
X277465D02*
X282465D01*
X310000Y454000D02*
Y459000D01*
Y461000D02*
Y466000D01*
X316000Y454000D02*
Y459000D01*
Y461000D02*
Y466000D01*
X310000Y454000D02*
X316000D01*
X310000Y466000D02*
X316000D01*
X303000D02*
X309000D01*
X303000Y454000D02*
X309000D01*
Y461000D02*
Y466000D01*
Y454000D02*
Y459000D01*
X303000Y461000D02*
Y466000D01*
Y454000D02*
Y459000D01*
X296000Y466000D02*
X302000D01*
X296000Y454000D02*
X302000D01*
Y461000D02*
Y466000D01*
Y454000D02*
Y459000D01*
X296000Y461000D02*
Y466000D01*
Y454000D02*
Y459000D01*
X363500Y440000D02*
X370500D01*
X350500D02*
X357500D01*
X363500Y453000D02*
X370500D01*
X350500D02*
X357500D01*
X370500Y440000D02*
Y453000D01*
X350500Y440000D02*
Y453000D01*
X363500Y427000D02*
X370500D01*
X350500D02*
X357500D01*
X363500Y440000D02*
X370500D01*
X350500D02*
X357500D01*
X370500Y427000D02*
Y440000D01*
X350500Y427000D02*
Y440000D01*
X318500Y417000D02*
X325000D01*
X305000D02*
X311500D01*
X318500Y426000D02*
X325000D01*
X305000D02*
X311500D01*
X325000Y417000D02*
Y426000D01*
X305000Y417000D02*
Y426000D01*
X318500Y408000D02*
X325000D01*
X305000D02*
X311500D01*
X318500Y417000D02*
X325000D01*
X305000D02*
X311500D01*
X325000Y408000D02*
Y417000D01*
X305000Y408000D02*
Y417000D01*
X322168Y306999D02*
Y303001D01*
X324167D01*
X324834Y303667D01*
Y306333D01*
X324167Y306999D01*
X322168D01*
X328166Y303001D02*
Y306999D01*
X326167Y305000D01*
X328832D01*
X456668Y306999D02*
Y303001D01*
X458667D01*
X459334Y303667D01*
Y306333D01*
X458667Y306999D01*
X456668D01*
X463332D02*
X460667D01*
Y305000D01*
X461999Y305666D01*
X462666D01*
X463332Y305000D01*
Y303667D01*
X462666Y303001D01*
X461333D01*
X460667Y303667D01*
X467501Y419168D02*
X470833D01*
X471499Y419834D01*
Y421167D01*
X470833Y421834D01*
X467501D01*
Y425832D02*
X468167Y424499D01*
X469500Y423167D01*
X470833D01*
X471499Y423833D01*
Y425166D01*
X470833Y425832D01*
X470166D01*
X469500Y425166D01*
Y423167D01*
X495499Y428502D02*
X491501D01*
Y430501D01*
X492167Y431167D01*
X493500D01*
X494166Y430501D01*
Y428502D01*
Y429835D02*
X495499Y431167D01*
Y432500D02*
Y433833D01*
Y433167D01*
X491501D01*
X492167Y432500D01*
X491501Y438498D02*
X492167Y437165D01*
X493500Y435833D01*
X494833D01*
X495499Y436499D01*
Y437832D01*
X494833Y438498D01*
X494166D01*
X493500Y437832D01*
Y435833D01*
X498002Y424501D02*
Y428499D01*
X500001D01*
X500667Y427833D01*
Y426500D01*
X500001Y425834D01*
X498002D01*
X499334D02*
X500667Y424501D01*
X502000D02*
X503333D01*
X502667D01*
Y428499D01*
X502000Y427833D01*
X507998Y428499D02*
X505333D01*
Y426500D01*
X506666Y427166D01*
X507332D01*
X507998Y426500D01*
Y425167D01*
X507332Y424501D01*
X505999D01*
X505333Y425167D01*
X500002Y438001D02*
Y441999D01*
X502001D01*
X502667Y441333D01*
Y440000D01*
X502001Y439334D01*
X500002D01*
X501334D02*
X502667Y438001D01*
X504000D02*
X505333D01*
X504667D01*
Y441999D01*
X504000Y441333D01*
X509332Y438001D02*
Y441999D01*
X507333Y440000D01*
X509998D01*
X432168Y436499D02*
Y432501D01*
X434834D01*
X438832D02*
X436166D01*
X438832Y435166D01*
Y435833D01*
X438166Y436499D01*
X436833D01*
X436166Y435833D01*
X512668Y428499D02*
Y424501D01*
X514668D01*
X515334Y425167D01*
Y427833D01*
X514668Y428499D01*
X512668D01*
X519333Y427833D02*
X518666Y428499D01*
X517334D01*
X516667Y427833D01*
Y427166D01*
X517334Y426500D01*
X518666D01*
X519333Y425834D01*
Y425167D01*
X518666Y424501D01*
X517334D01*
X516667Y425167D01*
X523332Y424501D02*
X520666D01*
X523332Y427166D01*
Y427833D01*
X522665Y428499D01*
X521332D01*
X520666Y427833D01*
X432168Y430999D02*
Y427001D01*
X434167D01*
X434834Y427667D01*
Y430333D01*
X434167Y430999D01*
X432168D01*
X438166Y427001D02*
Y430999D01*
X436166Y429000D01*
X438832D01*
X419167Y435833D02*
X418501Y436499D01*
X417168D01*
X416502Y435833D01*
Y433167D01*
X417168Y432501D01*
X418501D01*
X419167Y433167D01*
X420500Y432501D02*
X421833D01*
X421167D01*
Y436499D01*
X420500Y435833D01*
X426498Y436499D02*
X425166Y435833D01*
X423833Y434500D01*
Y433167D01*
X424499Y432501D01*
X425832D01*
X426498Y433167D01*
Y433834D01*
X425832Y434500D01*
X423833D01*
X419167Y430333D02*
X418501Y430999D01*
X417168D01*
X416502Y430333D01*
Y427667D01*
X417168Y427001D01*
X418501D01*
X419167Y427667D01*
X420500Y427001D02*
X421833D01*
X421167D01*
Y430999D01*
X420500Y430333D01*
X426498Y430999D02*
X423833D01*
Y429000D01*
X425166Y429666D01*
X425832D01*
X426498Y429000D01*
Y427667D01*
X425832Y427001D01*
X424499D01*
X423833Y427667D01*
X478667Y448167D02*
X478001Y447501D01*
Y446168D01*
X478667Y445502D01*
X481333D01*
X481999Y446168D01*
Y447501D01*
X481333Y448167D01*
X481999Y449500D02*
Y450833D01*
Y450167D01*
X478001D01*
X478667Y449500D01*
X481999Y454832D02*
X478001D01*
X480000Y452833D01*
Y455498D01*
X478667Y459667D02*
X478001Y459001D01*
Y457668D01*
X478667Y457002D01*
X481333D01*
X481999Y457668D01*
Y459001D01*
X481333Y459667D01*
X481999Y461000D02*
Y462333D01*
Y461667D01*
X478001D01*
X478667Y461000D01*
Y464333D02*
X478001Y464999D01*
Y466332D01*
X478667Y466998D01*
X479334D01*
X480000Y466332D01*
Y465665D01*
Y466332D01*
X480666Y466998D01*
X481333D01*
X481999Y466332D01*
Y464999D01*
X481333Y464333D01*
X476167Y418833D02*
X475501Y419499D01*
X474168D01*
X473502Y418833D01*
Y416167D01*
X474168Y415501D01*
X475501D01*
X476167Y416167D01*
X477500Y415501D02*
X478833D01*
X478167D01*
Y419499D01*
X477500Y418833D01*
X483498Y415501D02*
X480833D01*
X483498Y418166D01*
Y418833D01*
X482832Y419499D01*
X481499D01*
X480833Y418833D01*
X295501Y432168D02*
X298833D01*
X299499Y432834D01*
Y434167D01*
X298833Y434834D01*
X295501D01*
Y438832D02*
Y436166D01*
X297500D01*
X296834Y437499D01*
Y438166D01*
X297500Y438832D01*
X298833D01*
X299499Y438166D01*
Y436833D01*
X298833Y436166D01*
X289502Y448001D02*
Y451999D01*
X291501D01*
X292167Y451333D01*
Y450000D01*
X291501Y449334D01*
X289502D01*
X290834D02*
X292167Y448001D01*
X293500D02*
X294833D01*
X294167D01*
Y451999D01*
X293500Y451333D01*
X296833D02*
X297499Y451999D01*
X298832D01*
X299498Y451333D01*
Y450666D01*
X298832Y450000D01*
X298165D01*
X298832D01*
X299498Y449334D01*
Y448667D01*
X298832Y448001D01*
X297499D01*
X296833Y448667D01*
X278502Y424501D02*
Y428499D01*
X280501D01*
X281167Y427833D01*
Y426500D01*
X280501Y425834D01*
X278502D01*
X279835D02*
X281167Y424501D01*
X282500D02*
X283833D01*
X283167D01*
Y428499D01*
X282500Y427833D01*
X288498Y424501D02*
X285833D01*
X288498Y427166D01*
Y427833D01*
X287832Y428499D01*
X286499D01*
X285833Y427833D01*
X293499Y455668D02*
X289501D01*
Y457667D01*
X290167Y458334D01*
X291500D01*
X292166Y457667D01*
Y455668D01*
Y457001D02*
X293499Y458334D01*
Y459667D02*
Y461000D01*
Y460333D01*
X289501D01*
X290167Y459667D01*
X293499Y462999D02*
Y464332D01*
Y463665D01*
X289501D01*
X290167Y462999D01*
X327334Y424999D02*
Y421001D01*
X330000D01*
X331333D02*
X332666D01*
X331999D01*
Y424999D01*
X331333Y424333D01*
X264835Y428499D02*
Y424501D01*
X266834D01*
X267501Y425167D01*
Y427833D01*
X266834Y428499D01*
X264835D01*
X271499Y427833D02*
X270833Y428499D01*
X269500D01*
X268834Y427833D01*
Y427166D01*
X269500Y426500D01*
X270833D01*
X271499Y425834D01*
Y425167D01*
X270833Y424501D01*
X269500D01*
X268834Y425167D01*
X272832Y424501D02*
X274165D01*
X273499D01*
Y428499D01*
X272832Y427833D01*
X347668Y462499D02*
Y458501D01*
X349667D01*
X350334Y459167D01*
Y461833D01*
X349667Y462499D01*
X347668D01*
X351666Y461833D02*
X352333Y462499D01*
X353666D01*
X354332Y461833D01*
Y461166D01*
X353666Y460500D01*
X352999D01*
X353666D01*
X354332Y459834D01*
Y459167D01*
X353666Y458501D01*
X352333D01*
X351666Y459167D01*
X361334Y459333D02*
X360667Y459999D01*
X359334D01*
X358668Y459333D01*
Y456667D01*
X359334Y456001D01*
X360667D01*
X361334Y456667D01*
X362667Y456001D02*
X364000D01*
X363333D01*
Y459999D01*
X362667Y459333D01*
X365999Y456001D02*
X367332D01*
X366666D01*
Y459999D01*
X365999Y459333D01*
X361167Y465333D02*
X360501Y465999D01*
X359168D01*
X358502Y465333D01*
Y462667D01*
X359168Y462001D01*
X360501D01*
X361167Y462667D01*
X362500Y462001D02*
X363833D01*
X363167D01*
Y465999D01*
X362500Y465333D01*
X365833D02*
X366499Y465999D01*
X367832D01*
X368498Y465333D01*
Y462667D01*
X367832Y462001D01*
X366499D01*
X365833Y462667D01*
Y465333D01*
X329834Y411333D02*
X329167Y411999D01*
X327834D01*
X327168Y411333D01*
Y408667D01*
X327834Y408001D01*
X329167D01*
X329834Y408667D01*
X331167D02*
X331833Y408001D01*
X333166D01*
X333832Y408667D01*
Y411333D01*
X333166Y411999D01*
X331833D01*
X331167Y411333D01*
Y410666D01*
X331833Y410000D01*
X333832D01*
X329834Y417333D02*
X329167Y417999D01*
X327834D01*
X327168Y417333D01*
Y414667D01*
X327834Y414001D01*
X329167D01*
X329834Y414667D01*
X331167Y417333D02*
X331833Y417999D01*
X333166D01*
X333832Y417333D01*
Y416666D01*
X333166Y416000D01*
X333832Y415334D01*
Y414667D01*
X333166Y414001D01*
X331833D01*
X331167Y414667D01*
Y415334D01*
X331833Y416000D01*
X331167Y416666D01*
Y417333D01*
X331833Y416000D02*
X333166D01*
X295334Y445333D02*
X294667Y445999D01*
X293334D01*
X292668Y445333D01*
Y442667D01*
X293334Y442001D01*
X294667D01*
X295334Y442667D01*
X296667Y445999D02*
X299332D01*
Y445333D01*
X296667Y442667D01*
Y442001D01*
X390168Y272499D02*
Y269167D01*
X390834Y268501D01*
X392167D01*
X392834Y269167D01*
Y272499D01*
X396166Y268501D02*
Y272499D01*
X394166Y270500D01*
X396832D01*
X429668Y282999D02*
Y279667D01*
X430334Y279001D01*
X431667D01*
X432334Y279667D01*
Y282999D01*
X433667Y282333D02*
X434333Y282999D01*
X435666D01*
X436332Y282333D01*
Y281666D01*
X435666Y281000D01*
X434999D01*
X435666D01*
X436332Y280334D01*
Y279667D01*
X435666Y279001D01*
X434333D01*
X433667Y279667D01*
X351168Y282999D02*
Y279667D01*
X351834Y279001D01*
X353167D01*
X353834Y279667D01*
Y282999D01*
X357832Y279001D02*
X355167D01*
X357832Y281666D01*
Y282333D01*
X357166Y282999D01*
X355833D01*
X355167Y282333D01*
X391334Y311499D02*
Y308167D01*
X392001Y307501D01*
X393334D01*
X394000Y308167D01*
Y311499D01*
X395333Y307501D02*
X396666D01*
X395999D01*
Y311499D01*
X395333Y310833D01*
X438999Y266502D02*
X435001D01*
Y268501D01*
X435667Y269167D01*
X437000D01*
X437666Y268501D01*
Y266502D01*
Y267834D02*
X438999Y269167D01*
Y270500D02*
Y271833D01*
Y271167D01*
X435001D01*
X435667Y270500D01*
Y273833D02*
X435001Y274499D01*
Y275832D01*
X435667Y276498D01*
X438333D01*
X438999Y275832D01*
Y274499D01*
X438333Y273833D01*
X435667D01*
X432499Y268168D02*
X428501D01*
Y270167D01*
X429167Y270834D01*
X430500D01*
X431166Y270167D01*
Y268168D01*
Y269501D02*
X432499Y270834D01*
X431833Y272166D02*
X432499Y272833D01*
Y274166D01*
X431833Y274832D01*
X429167D01*
X428501Y274166D01*
Y272833D01*
X429167Y272166D01*
X429834D01*
X430500Y272833D01*
Y274832D01*
X337168Y262001D02*
Y265999D01*
X339167D01*
X339834Y265333D01*
Y264000D01*
X339167Y263334D01*
X337168D01*
X338501D02*
X339834Y262001D01*
X341166Y265333D02*
X341833Y265999D01*
X343166D01*
X343832Y265333D01*
Y264666D01*
X343166Y264000D01*
X343832Y263334D01*
Y262667D01*
X343166Y262001D01*
X341833D01*
X341166Y262667D01*
Y263334D01*
X341833Y264000D01*
X341166Y264666D01*
Y265333D01*
X341833Y264000D02*
X343166D01*
X337999Y248168D02*
X334001D01*
Y250167D01*
X334667Y250834D01*
X336000D01*
X336666Y250167D01*
Y248168D01*
Y249501D02*
X337999Y250834D01*
X334001Y252167D02*
Y254832D01*
X334667D01*
X337333Y252167D01*
X337999D01*
X447168Y266501D02*
Y270499D01*
X449167D01*
X449834Y269833D01*
Y268500D01*
X449167Y267834D01*
X447168D01*
X448501D02*
X449834Y266501D01*
X453832Y270499D02*
X452499Y269833D01*
X451166Y268500D01*
Y267167D01*
X451833Y266501D01*
X453166D01*
X453832Y267167D01*
Y267834D01*
X453166Y268500D01*
X451166D01*
X330499Y241168D02*
X326501D01*
Y243167D01*
X327167Y243834D01*
X328500D01*
X329166Y243167D01*
Y241168D01*
Y242501D02*
X330499Y243834D01*
X326501Y247832D02*
Y245166D01*
X328500D01*
X327834Y246499D01*
Y247166D01*
X328500Y247832D01*
X329833D01*
X330499Y247166D01*
Y245833D01*
X329833Y245166D01*
X330499Y232668D02*
X326501D01*
Y234667D01*
X327167Y235334D01*
X328500D01*
X329166Y234667D01*
Y232668D01*
Y234001D02*
X330499Y235334D01*
Y238666D02*
X326501D01*
X328500Y236666D01*
Y239332D01*
X324499Y241168D02*
X320501D01*
Y243167D01*
X321167Y243834D01*
X322500D01*
X323166Y243167D01*
Y241168D01*
Y242501D02*
X324499Y243834D01*
X321167Y245166D02*
X320501Y245833D01*
Y247166D01*
X321167Y247832D01*
X321834D01*
X322500Y247166D01*
Y246499D01*
Y247166D01*
X323166Y247832D01*
X323833D01*
X324499Y247166D01*
Y245833D01*
X323833Y245166D01*
X441168Y231501D02*
Y235499D01*
X443167D01*
X443834Y234833D01*
Y233500D01*
X443167Y232834D01*
X441168D01*
X442501D02*
X443834Y231501D01*
X447832D02*
X445166D01*
X447832Y234166D01*
Y234833D01*
X447166Y235499D01*
X445833D01*
X445166Y234833D01*
X447334Y238001D02*
Y241999D01*
X449334D01*
X450000Y241333D01*
Y240000D01*
X449334Y239334D01*
X447334D01*
X448667D02*
X450000Y238001D01*
X451333D02*
X452666D01*
X451999D01*
Y241999D01*
X451333Y241333D01*
X444333Y269334D02*
X441667D01*
X441001Y268667D01*
Y267334D01*
X441667Y266668D01*
X444333D01*
X444999Y267334D01*
Y268667D01*
X443666Y268001D02*
X444999Y269334D01*
Y268667D02*
X444333Y269334D01*
X444999Y273332D02*
Y270667D01*
X442334Y273332D01*
X441667D01*
X441001Y272666D01*
Y271333D01*
X441667Y270667D01*
X323833Y235500D02*
X321167D01*
X320501Y234834D01*
Y233501D01*
X321167Y232834D01*
X323833D01*
X324499Y233501D01*
Y234834D01*
X323166Y234167D02*
X324499Y235500D01*
Y234834D02*
X323833Y235500D01*
X324499Y236833D02*
Y238166D01*
Y237499D01*
X320501D01*
X321167Y236833D01*
X341499Y347835D02*
X337501D01*
Y349835D01*
X338167Y350501D01*
X339500D01*
X340166Y349835D01*
Y347835D01*
X338167Y354500D02*
X337501Y353834D01*
Y352501D01*
X338167Y351834D01*
X338834D01*
X339500Y352501D01*
Y353834D01*
X340166Y354500D01*
X340833D01*
X341499Y353834D01*
Y352501D01*
X340833Y351834D01*
X337501Y355833D02*
X340833D01*
X341499Y356499D01*
Y357832D01*
X340833Y358499D01*
X337501D01*
X341499Y359832D02*
Y361164D01*
Y360498D01*
X337501D01*
X338167Y359832D01*
X464167Y222499D02*
X462835D01*
X463501D01*
Y219167D01*
X462835Y218501D01*
X462168D01*
X461502Y219167D01*
X465500Y218501D02*
X466833D01*
X466167D01*
Y222499D01*
X465500Y221833D01*
X471498Y218501D02*
X468833D01*
X471498Y221166D01*
Y221833D01*
X470832Y222499D01*
X469499D01*
X468833Y221833D01*
X464334Y228999D02*
X463001D01*
X463667D01*
Y225667D01*
X463001Y225001D01*
X462334D01*
X461668Y225667D01*
X465667Y225001D02*
X467000D01*
X466333D01*
Y228999D01*
X465667Y228333D01*
X468999Y225001D02*
X470332D01*
X469665D01*
Y228999D01*
X468999Y228333D01*
X316167Y228999D02*
X314834D01*
X315501D01*
Y225667D01*
X314834Y225001D01*
X314168D01*
X313502Y225667D01*
X317500Y225001D02*
X318833D01*
X318167D01*
Y228999D01*
X317500Y228333D01*
X320833D02*
X321499Y228999D01*
X322832D01*
X323498Y228333D01*
Y225667D01*
X322832Y225001D01*
X321499D01*
X320833Y225667D01*
Y228333D01*
X319334Y222499D02*
X318001D01*
X318667D01*
Y219167D01*
X318001Y218501D01*
X317334D01*
X316668Y219167D01*
X320667D02*
X321333Y218501D01*
X322666D01*
X323332Y219167D01*
Y221833D01*
X322666Y222499D01*
X321333D01*
X320667Y221833D01*
Y221166D01*
X321333Y220500D01*
X323332D01*
X362668Y263499D02*
Y259501D01*
X364667D01*
X365334Y260167D01*
Y262833D01*
X364667Y263499D01*
X362668D01*
X369332Y259501D02*
X366667D01*
X369332Y262166D01*
Y262833D01*
X368666Y263499D01*
X367333D01*
X366667Y262833D01*
X415834Y238999D02*
Y235001D01*
X417834D01*
X418500Y235667D01*
Y238333D01*
X417834Y238999D01*
X415834D01*
X419833Y235001D02*
X421166D01*
X420499D01*
Y238999D01*
X419833Y238333D01*
X416834Y319333D02*
X416167Y319999D01*
X414834D01*
X414168Y319333D01*
Y316667D01*
X414834Y316001D01*
X416167D01*
X416834Y316667D01*
X420832Y319999D02*
X419499Y319333D01*
X418166Y318000D01*
Y316667D01*
X418833Y316001D01*
X420166D01*
X420832Y316667D01*
Y317334D01*
X420166Y318000D01*
X418166D01*
X363834Y279833D02*
X363167Y280499D01*
X361834D01*
X361168Y279833D01*
Y277167D01*
X361834Y276501D01*
X363167D01*
X363834Y277167D01*
X367832Y280499D02*
X365166D01*
Y278500D01*
X366499Y279166D01*
X367166D01*
X367832Y278500D01*
Y277167D01*
X367166Y276501D01*
X365833D01*
X365166Y277167D01*
X429834Y319333D02*
X429167Y319999D01*
X427834D01*
X427168Y319333D01*
Y316667D01*
X427834Y316001D01*
X429167D01*
X429834Y316667D01*
X433166Y316001D02*
Y319999D01*
X431167Y318000D01*
X433832D01*
X350834Y319333D02*
X350167Y319999D01*
X348834D01*
X348168Y319333D01*
Y316667D01*
X348834Y316001D01*
X350167D01*
X350834Y316667D01*
X352167Y319333D02*
X352833Y319999D01*
X354166D01*
X354832Y319333D01*
Y318666D01*
X354166Y318000D01*
X353499D01*
X354166D01*
X354832Y317334D01*
Y316667D01*
X354166Y316001D01*
X352833D01*
X352167Y316667D01*
X416834Y279833D02*
X416167Y280499D01*
X414834D01*
X414168Y279833D01*
Y277167D01*
X414834Y276501D01*
X416167D01*
X416834Y277167D01*
X420832Y276501D02*
X418166D01*
X420832Y279166D01*
Y279833D01*
X420166Y280499D01*
X418833D01*
X418166Y279833D01*
X364500Y319333D02*
X363834Y319999D01*
X362501D01*
X361834Y319333D01*
Y316667D01*
X362501Y316001D01*
X363834D01*
X364500Y316667D01*
X365833Y316001D02*
X367166D01*
X366499D01*
Y319999D01*
X365833Y319333D01*
D13*
X345260Y232610D02*
X349197D01*
X345260D02*
Y235760D01*
Y244421D02*
X349197D01*
X345260Y241272D02*
Y244421D01*
X435819Y264405D02*
X439756D01*
Y261256D02*
Y264405D01*
X435819Y252594D02*
X439756D01*
Y255744D01*
X474433Y444258D02*
X485456D01*
X474433Y430872D02*
X485456D01*
X445945Y437405D02*
X464055D01*
X445945Y425595D02*
X464055D01*
X445945Y436421D02*
Y437405D01*
X464055Y436421D02*
Y437405D01*
X445945Y425595D02*
Y426579D01*
X464055Y425595D02*
Y426579D01*
X456397Y429049D02*
Y434049D01*
X453897D02*
X456397Y431549D01*
X453897Y429049D02*
X456397Y431549D01*
X453897Y429049D02*
Y434049D01*
X302242Y435433D02*
Y446456D01*
X315628Y435433D02*
Y446456D01*
X322945Y454595D02*
X341055D01*
X322945Y466405D02*
X341055D01*
Y454595D02*
Y455579D01*
X322945Y454595D02*
Y455579D01*
X341055Y465421D02*
Y466405D01*
X322945Y465421D02*
Y466405D01*
X330603Y457951D02*
Y462951D01*
Y460451D02*
X333103Y457951D01*
X330603Y460451D02*
X333103Y462951D01*
Y457951D02*
Y462951D01*
M02*
