G04*
G04 #@! TF.GenerationSoftware,Altium Limited,Altium Designer,20.1.12 (249)*
G04*
G04 Layer_Physical_Order=1*
G04 Layer_Color=255*
%FSLAX25Y25*%
%MOIN*%
G70*
G04*
G04 #@! TF.SameCoordinates,187957CB-44C1-49C2-83CB-A2E739709334*
G04*
G04*
G04 #@! TF.FilePolarity,Positive*
G04*
G01*
G75*
%ADD21R,0.07301X0.02410*%
G04:AMPARAMS|DCode=22|XSize=73.01mil|YSize=24.1mil|CornerRadius=12.05mil|HoleSize=0mil|Usage=FLASHONLY|Rotation=180.000|XOffset=0mil|YOffset=0mil|HoleType=Round|Shape=RoundedRectangle|*
%AMROUNDEDRECTD22*
21,1,0.07301,0.00000,0,0,180.0*
21,1,0.04891,0.02410,0,0,180.0*
1,1,0.02410,-0.02445,0.00000*
1,1,0.02410,0.02445,0.00000*
1,1,0.02410,0.02445,0.00000*
1,1,0.02410,-0.02445,0.00000*
%
%ADD22ROUNDEDRECTD22*%
%ADD27R,0.02410X0.07301*%
G04:AMPARAMS|DCode=28|XSize=73.01mil|YSize=24.1mil|CornerRadius=12.05mil|HoleSize=0mil|Usage=FLASHONLY|Rotation=270.000|XOffset=0mil|YOffset=0mil|HoleType=Round|Shape=RoundedRectangle|*
%AMROUNDEDRECTD28*
21,1,0.07301,0.00000,0,0,270.0*
21,1,0.04891,0.02410,0,0,270.0*
1,1,0.02410,0.00000,-0.02445*
1,1,0.02410,0.00000,0.02445*
1,1,0.02410,0.00000,0.02445*
1,1,0.02410,0.00000,-0.02445*
%
%ADD28ROUNDEDRECTD28*%
%ADD36R,0.03543X0.03150*%
%ADD37R,0.06102X0.02362*%
%ADD38R,0.03000X0.04000*%
%ADD39R,0.04000X0.06000*%
%ADD40R,0.04000X0.03000*%
%ADD41R,0.03937X0.02362*%
%ADD42R,0.04700X0.07100*%
%ADD43R,0.03500X0.03500*%
%ADD44R,0.07087X0.22441*%
%ADD45R,0.09843X0.06693*%
%ADD46R,0.05118X0.11024*%
%ADD47C,0.02000*%
%ADD48C,0.04000*%
%ADD49C,0.07000*%
%ADD50C,0.07874*%
%ADD51R,0.07874X0.07874*%
%ADD52C,0.08000*%
%ADD53C,0.02362*%
G36*
X373000Y315744D02*
X372508Y315657D01*
X372065Y316318D01*
X372065Y316318D01*
X370442Y317942D01*
X369780Y318384D01*
X369000Y318539D01*
X365311D01*
X365288Y318555D01*
X364437Y318724D01*
X363586Y318555D01*
X363563Y318539D01*
X359000D01*
X358220Y318384D01*
X357558Y317942D01*
X356012Y316396D01*
X355570Y315735D01*
X355415Y314954D01*
Y314024D01*
X354954D01*
Y308024D01*
X359954D01*
Y314024D01*
X359954Y314024D01*
X360106Y314461D01*
X363563D01*
X363586Y314445D01*
X364437Y314276D01*
X365288Y314445D01*
X365311Y314461D01*
X368029D01*
X368124Y314000D01*
X368124Y314000D01*
X368124Y314000D01*
Y308000D01*
X368584D01*
Y305376D01*
X368590Y305350D01*
X368272Y304964D01*
X360908D01*
Y300601D01*
X364943D01*
X365140Y300562D01*
X367054D01*
X371283Y296334D01*
X371944Y295892D01*
X372724Y295736D01*
X373000D01*
Y294815D01*
X372776D01*
X371995Y294659D01*
X371334Y294217D01*
X369472Y292356D01*
X369010Y292547D01*
Y294964D01*
X360908D01*
Y294822D01*
X359381D01*
X358600Y294666D01*
X358553Y294635D01*
X358149Y294555D01*
X357428Y294073D01*
X356945Y293351D01*
X356776Y292500D01*
X356945Y291649D01*
X357428Y290928D01*
X358149Y290445D01*
X359000Y290276D01*
X359851Y290445D01*
X360297Y290743D01*
X360908D01*
Y290601D01*
X366570D01*
X366837Y290101D01*
X366771Y290003D01*
X365140D01*
X364943Y289964D01*
X360908D01*
Y285601D01*
X369010D01*
Y286257D01*
X369406Y286522D01*
X372538Y289654D01*
X373000Y289463D01*
Y274654D01*
X368124D01*
Y268653D01*
X368584D01*
Y267250D01*
X368569Y267227D01*
X368400Y266376D01*
X368569Y265525D01*
X369051Y264804D01*
X369773Y264322D01*
X369800Y264316D01*
X372153Y261964D01*
X372153Y261964D01*
X372814Y261522D01*
X373000Y261485D01*
Y260445D01*
X359896D01*
X359847Y260945D01*
X359851Y260945D01*
X360573Y261427D01*
X361055Y262149D01*
X361224Y263000D01*
X361055Y263851D01*
X360573Y264573D01*
X359851Y265055D01*
X359000Y265224D01*
X358149Y265055D01*
X357428Y264573D01*
X355753D01*
X355753Y264573D01*
X355556Y264533D01*
X352753D01*
Y258533D01*
X355592D01*
X355783Y258071D01*
X354284Y256573D01*
X354129D01*
X353932Y256533D01*
X350129D01*
Y252949D01*
X346129D01*
Y253410D01*
X340129D01*
Y248410D01*
X346129D01*
Y248871D01*
X350129D01*
Y248533D01*
X356129D01*
Y252796D01*
X356571Y253091D01*
X359846Y256366D01*
X363129D01*
Y255136D01*
X362629Y254869D01*
X362351Y255055D01*
X361500Y255224D01*
X360649Y255055D01*
X359928Y254573D01*
X359445Y253851D01*
X359276Y253000D01*
X359445Y252149D01*
X359928Y251428D01*
X360649Y250945D01*
X360783Y250919D01*
X361186Y250649D01*
X361967Y250494D01*
X363129D01*
Y248533D01*
X368961D01*
Y246468D01*
X366632Y244139D01*
X358854D01*
X358751Y244654D01*
X358269Y245375D01*
X357548Y245857D01*
X356697Y246026D01*
X355846Y245857D01*
X355124Y245375D01*
X354642Y244654D01*
X354637Y244626D01*
X354447Y244437D01*
X349772D01*
Y240075D01*
X352886D01*
X353364Y239755D01*
X354144Y239600D01*
X354144Y239600D01*
X357516D01*
Y239139D01*
X369516D01*
Y241255D01*
X372442Y244182D01*
X372500Y244269D01*
X373000Y244117D01*
Y194500D01*
X276000D01*
X273301Y197199D01*
X273492Y197661D01*
X279591D01*
X286591Y204661D01*
Y208661D01*
Y212661D01*
X279591Y219661D01*
X271590D01*
X264591Y212661D01*
Y208661D01*
Y206563D01*
X264129Y206371D01*
X261500Y209000D01*
Y452500D01*
X264129Y455129D01*
X264591Y454937D01*
Y452756D01*
Y448756D01*
X271590Y441756D01*
X279591D01*
X286591Y448756D01*
Y452756D01*
Y456756D01*
X279591Y463756D01*
X273409D01*
X273218Y464218D01*
X276000Y467000D01*
X373000D01*
Y315744D01*
D02*
G37*
G36*
X514282Y464218D02*
X514091Y463756D01*
X507811D01*
X500811Y456756D01*
Y452756D01*
Y448756D01*
X507811Y441756D01*
X515811D01*
X522811Y448756D01*
Y452756D01*
Y455036D01*
X523273Y455227D01*
X526000Y452500D01*
Y209000D01*
X523273Y206273D01*
X522811Y206464D01*
Y208661D01*
Y212661D01*
X515811Y219661D01*
X507811D01*
X500811Y212661D01*
Y208661D01*
Y204661D01*
X507811Y197661D01*
X514008D01*
X514199Y197199D01*
X511500Y194500D01*
X414000D01*
Y249963D01*
X414462Y250154D01*
X415058Y249558D01*
X415058Y249558D01*
X415513Y249254D01*
X415736Y249073D01*
X415887Y248672D01*
X415887Y248573D01*
Y240951D01*
X419690D01*
X419887Y240912D01*
X422418D01*
X423222Y240109D01*
X423227Y240082D01*
X423709Y239360D01*
X424431Y238878D01*
X424458Y238873D01*
X427263Y236067D01*
Y232951D01*
X432263D01*
Y238951D01*
X430147D01*
X427342Y241756D01*
X427336Y241783D01*
X426854Y242505D01*
X426132Y242987D01*
X426105Y242992D01*
X424705Y244393D01*
X424044Y244835D01*
X423263Y244990D01*
X421887D01*
X421887Y248951D01*
X422383Y248961D01*
X424993D01*
X428445Y245509D01*
X428887Y245214D01*
Y240951D01*
X434887D01*
Y244535D01*
X438887D01*
Y244075D01*
X444887D01*
Y249075D01*
X438887D01*
Y248614D01*
X434887D01*
Y248951D01*
X431084D01*
X430887Y248990D01*
X430731D01*
X427345Y252376D01*
X427438Y252876D01*
X427500D01*
Y253117D01*
X427563Y253147D01*
X428000Y253308D01*
X428783Y253153D01*
X428921Y253180D01*
X429307Y252863D01*
Y252579D01*
X435244D01*
Y256941D01*
X432130D01*
X431652Y257260D01*
X430872Y257416D01*
X429657D01*
X429634Y257431D01*
X428783Y257600D01*
X428000Y257445D01*
X427563Y257606D01*
X427500Y257635D01*
Y257876D01*
X418384D01*
X417598Y258662D01*
X417790Y259124D01*
X427500D01*
Y259584D01*
X430872D01*
X431652Y259740D01*
X432130Y260059D01*
X435244D01*
Y264421D01*
X429307D01*
Y263663D01*
X427500D01*
Y264124D01*
X418331D01*
X418179Y264624D01*
X418449Y264804D01*
X418931Y265525D01*
X419100Y266376D01*
X418931Y267227D01*
X418916Y267250D01*
Y268653D01*
X419376D01*
Y274654D01*
X414376D01*
X414000Y274952D01*
Y289463D01*
X414462Y289654D01*
X417608Y286508D01*
X418270Y286066D01*
X418392Y286042D01*
Y285588D01*
X426494D01*
Y289950D01*
X422459D01*
X422262Y289989D01*
X419895D01*
X415666Y294217D01*
X415005Y294659D01*
X414224Y294815D01*
X414000D01*
Y295736D01*
X414276D01*
X415056Y295892D01*
X415718Y296334D01*
X417930Y298546D01*
X418392Y298354D01*
Y295588D01*
X426494D01*
Y295729D01*
X427671D01*
X427953Y295786D01*
X428000Y295776D01*
X428851Y295945D01*
X429572Y296427D01*
X430055Y297149D01*
X430224Y298000D01*
X430055Y298851D01*
X429572Y299572D01*
X428851Y300055D01*
X428000Y300224D01*
X427149Y300055D01*
X426994Y299951D01*
X426494Y299950D01*
Y299950D01*
X420481D01*
X420214Y300450D01*
X420280Y300548D01*
X422262D01*
X422459Y300588D01*
X426494D01*
Y304950D01*
X419218D01*
X418831Y305450D01*
X418916Y305876D01*
Y308000D01*
X419376D01*
Y311303D01*
X419416Y311500D01*
X419416Y311500D01*
Y313532D01*
X420845Y314961D01*
X425626D01*
X425649Y314945D01*
X426500Y314776D01*
X427351Y314945D01*
X427374Y314961D01*
X433655D01*
X434093Y314524D01*
X434004Y314024D01*
X433695D01*
Y308024D01*
X438694D01*
Y314024D01*
X438234D01*
Y315305D01*
X438078Y316086D01*
X437636Y316747D01*
X435942Y318442D01*
X435280Y318884D01*
X434500Y319039D01*
X427374D01*
X427351Y319055D01*
X426500Y319224D01*
X425649Y319055D01*
X425626Y319039D01*
X420000D01*
X419220Y318884D01*
X418558Y318442D01*
X415935Y315818D01*
X415492Y315157D01*
X415337Y314376D01*
Y314000D01*
X414376D01*
X414000Y314299D01*
Y467000D01*
X511500D01*
X514282Y464218D01*
D02*
G37*
%LPC*%
G36*
X313000Y466150D02*
X312217Y466046D01*
X311487Y465744D01*
X311330Y465624D01*
X310000D01*
Y463320D01*
X309974Y463124D01*
X310000Y462927D01*
Y460624D01*
X311221D01*
X311968Y459876D01*
X311761Y459376D01*
X310000D01*
Y454376D01*
X310961D01*
Y452951D01*
X310930Y452904D01*
X310797Y452239D01*
X310467Y452115D01*
X310274Y452109D01*
X308507Y453876D01*
X308715Y454376D01*
X309000D01*
Y459376D01*
X305290D01*
X305099Y459838D01*
X305884Y460624D01*
X309000D01*
Y465624D01*
X303000D01*
Y463507D01*
X298869Y459376D01*
X296000D01*
Y454376D01*
X296961D01*
Y451668D01*
X297116Y450888D01*
X297558Y450226D01*
X301557Y446227D01*
X302218Y445785D01*
X302946Y445641D01*
Y443028D01*
X303118Y442168D01*
X303605Y441438D01*
X303894Y441245D01*
Y440644D01*
X303605Y440451D01*
X303118Y439721D01*
X302946Y438861D01*
Y438414D01*
X302574Y437929D01*
X302272Y437199D01*
X302169Y436416D01*
X302272Y435633D01*
X302574Y434903D01*
X302946Y434418D01*
Y433970D01*
X303118Y433110D01*
X303605Y432381D01*
X303974Y432134D01*
Y424092D01*
X304077Y423309D01*
X304380Y422579D01*
X304860Y421952D01*
X305024Y421789D01*
X305042Y421653D01*
Y416950D01*
Y407950D01*
X305366D01*
Y393645D01*
X301339Y389618D01*
X295871D01*
X295120Y390194D01*
X293904Y390698D01*
X292598Y390870D01*
X291293Y390698D01*
X290077Y390194D01*
X289032Y389393D01*
X288231Y388348D01*
X287727Y387132D01*
X287555Y385827D01*
X287727Y384522D01*
X288231Y383305D01*
X289032Y382261D01*
X290077Y381459D01*
X291293Y380956D01*
X292598Y380784D01*
X293904Y380956D01*
X295120Y381459D01*
X296164Y382261D01*
X296966Y383305D01*
X297074Y383566D01*
X302592D01*
X303375Y383669D01*
X304105Y383972D01*
X304732Y384453D01*
X310531Y390252D01*
X311012Y390879D01*
X311315Y391609D01*
X311418Y392392D01*
X311418Y392392D01*
Y407950D01*
X311742D01*
Y416950D01*
Y426050D01*
X310026D01*
Y432048D01*
X310496Y432362D01*
X310637Y432426D01*
X310972D01*
X311113Y432362D01*
X311815Y431893D01*
X312675Y431722D01*
X313535Y431893D01*
X314265Y432381D01*
X314661Y432974D01*
X319457D01*
Y427779D01*
X328543D01*
Y452220D01*
X327089D01*
Y456153D01*
X330047D01*
Y464847D01*
X322976D01*
X322779Y464872D01*
X316000D01*
Y465624D01*
X314670D01*
X314513Y465744D01*
X313783Y466046D01*
X313000Y466150D01*
D02*
G37*
G36*
X282841Y436071D02*
X277841D01*
Y435110D01*
X275435D01*
Y435821D01*
X269935D01*
Y430321D01*
X275435D01*
Y431032D01*
X277841D01*
Y430071D01*
X282841D01*
Y436071D01*
D02*
G37*
G36*
X266500Y438724D02*
X265649Y438555D01*
X264928Y438072D01*
X264445Y437351D01*
X264276Y436500D01*
X264334Y436207D01*
X264017Y435821D01*
X263935D01*
Y430321D01*
X269435D01*
Y435821D01*
X269098D01*
X268688Y436321D01*
X268724Y436500D01*
X268555Y437351D01*
X268073Y438072D01*
X267351Y438555D01*
X266500Y438724D01*
D02*
G37*
G36*
X345795Y464847D02*
X333953D01*
Y456153D01*
X345795D01*
Y457474D01*
X354599D01*
X363340Y448733D01*
Y439988D01*
Y426988D01*
X370458D01*
Y439988D01*
Y453012D01*
X367619D01*
X357992Y462640D01*
X357365Y463121D01*
X356635Y463423D01*
X355852Y463526D01*
X345795D01*
Y464847D01*
D02*
G37*
G36*
X324958Y426050D02*
X318258D01*
Y422429D01*
X315595Y419766D01*
X315315Y419650D01*
X314688Y419169D01*
X314208Y418542D01*
X313905Y417813D01*
X313802Y417029D01*
X313905Y416246D01*
X314208Y415517D01*
X314688Y414890D01*
X315315Y414409D01*
X316045Y414107D01*
X316828Y414004D01*
X317138D01*
X317758Y414085D01*
X318258Y413768D01*
Y407950D01*
X324958D01*
Y416950D01*
Y426050D01*
D02*
G37*
G36*
X292598Y414492D02*
X291293Y414320D01*
X290077Y413816D01*
X289032Y413015D01*
X288231Y411970D01*
X287727Y410754D01*
X287555Y409449D01*
X287727Y408144D01*
X288231Y406927D01*
X289032Y405883D01*
X290077Y405081D01*
X291293Y404577D01*
X292598Y404406D01*
X293904Y404577D01*
X295120Y405081D01*
X296164Y405883D01*
X296966Y406927D01*
X297470Y408144D01*
X297642Y409449D01*
X297470Y410754D01*
X296966Y411970D01*
X296164Y413015D01*
X295120Y413816D01*
X293904Y414320D01*
X292598Y414492D01*
D02*
G37*
G36*
Y402681D02*
X291293Y402509D01*
X290077Y402005D01*
X289032Y401204D01*
X288231Y400159D01*
X287727Y398943D01*
X287555Y397638D01*
X287727Y396333D01*
X288231Y395116D01*
X289032Y394072D01*
X290077Y393270D01*
X291293Y392766D01*
X292598Y392595D01*
X293904Y392766D01*
X295120Y393270D01*
X296164Y394072D01*
X296966Y395116D01*
X297470Y396333D01*
X297642Y397638D01*
X297470Y398943D01*
X296966Y400159D01*
X296164Y401204D01*
X295120Y402005D01*
X293904Y402509D01*
X292598Y402681D01*
D02*
G37*
G36*
X275590Y404577D02*
X274237Y404443D01*
X272935Y404048D01*
X271736Y403407D01*
X270684Y402544D01*
X269821Y401493D01*
X269180Y400293D01*
X268785Y398991D01*
X268652Y397638D01*
X268785Y396284D01*
X269180Y394982D01*
X269821Y393783D01*
X270684Y392731D01*
X271736Y391868D01*
X272935Y391227D01*
X274237Y390832D01*
X275590Y390699D01*
X276944Y390832D01*
X278246Y391227D01*
X279446Y391868D01*
X280497Y392731D01*
X281360Y393783D01*
X282001Y394982D01*
X282396Y396284D01*
X282529Y397638D01*
X282396Y398991D01*
X282001Y400293D01*
X281360Y401493D01*
X280497Y402544D01*
X279446Y403407D01*
X278246Y404048D01*
X276944Y404443D01*
X275590Y404577D01*
D02*
G37*
G36*
X353740Y389232D02*
X352451Y389062D01*
X351250Y388564D01*
X350219Y387773D01*
X349428Y386742D01*
X348930Y385541D01*
X348761Y384252D01*
X348930Y382963D01*
X349428Y381762D01*
X350219Y380731D01*
X351250Y379940D01*
X352451Y379442D01*
X353740Y379272D01*
X355029Y379442D01*
X356230Y379940D01*
X357261Y380731D01*
X358053Y381762D01*
X358550Y382963D01*
X358720Y384252D01*
X358550Y385541D01*
X358053Y386742D01*
X357261Y387773D01*
X356230Y388564D01*
X355029Y389062D01*
X353740Y389232D01*
D02*
G37*
G36*
Y419153D02*
X352451Y418983D01*
X351250Y418486D01*
X350219Y417694D01*
X349428Y416663D01*
X348930Y415462D01*
X348761Y414173D01*
X348930Y412884D01*
X349428Y411683D01*
X350219Y410652D01*
X351250Y409861D01*
X352451Y409363D01*
X353740Y409194D01*
X354359Y409275D01*
X362974Y400660D01*
Y377686D01*
X354398Y369110D01*
X348803D01*
Y359236D01*
X358677D01*
Y364831D01*
X368140Y374293D01*
X368620Y374920D01*
X368923Y375650D01*
X369026Y376433D01*
Y401913D01*
X368923Y402697D01*
X368620Y403426D01*
X368140Y404053D01*
X358638Y413554D01*
X358720Y414173D01*
X358550Y415462D01*
X358053Y416663D01*
X357261Y417694D01*
X356230Y418486D01*
X355029Y418983D01*
X353740Y419153D01*
D02*
G37*
G36*
X292590Y361342D02*
X291285Y361171D01*
X290069Y360667D01*
X289024Y359865D01*
X288223Y358821D01*
X287719Y357605D01*
X287547Y356299D01*
X287719Y354994D01*
X288223Y353778D01*
X289024Y352733D01*
X290069Y351932D01*
X291285Y351428D01*
X292590Y351256D01*
X293896Y351428D01*
X295112Y351932D01*
X296157Y352733D01*
X296958Y353778D01*
X297462Y354994D01*
X297634Y356299D01*
X297462Y357605D01*
X296958Y358821D01*
X296157Y359865D01*
X295112Y360667D01*
X293896Y361171D01*
X292590Y361342D01*
D02*
G37*
G36*
Y349531D02*
X291285Y349359D01*
X290069Y348856D01*
X289024Y348054D01*
X288223Y347010D01*
X287719Y345793D01*
X287547Y344488D01*
X287719Y343183D01*
X288223Y341967D01*
X289024Y340922D01*
X290069Y340121D01*
X291285Y339617D01*
X292590Y339445D01*
X293896Y339617D01*
X295112Y340121D01*
X296157Y340922D01*
X296958Y341967D01*
X297462Y343183D01*
X297634Y344488D01*
X297462Y345793D01*
X296958Y347010D01*
X296157Y348054D01*
X295112Y348856D01*
X293896Y349359D01*
X292590Y349531D01*
D02*
G37*
G36*
X275590Y351427D02*
X274237Y351294D01*
X272935Y350899D01*
X271736Y350258D01*
X270684Y349395D01*
X269821Y348343D01*
X269180Y347144D01*
X268785Y345842D01*
X268652Y344488D01*
X268785Y343134D01*
X269180Y341833D01*
X269821Y340633D01*
X270684Y339582D01*
X271736Y338719D01*
X272935Y338077D01*
X274237Y337683D01*
X275590Y337549D01*
X276944Y337683D01*
X278246Y338077D01*
X279446Y338719D01*
X280497Y339582D01*
X281360Y340633D01*
X282001Y341833D01*
X282396Y343134D01*
X282529Y344488D01*
X282396Y345842D01*
X282001Y347144D01*
X281360Y348343D01*
X280497Y349395D01*
X279446Y350258D01*
X278246Y350899D01*
X276944Y351294D01*
X275590Y351427D01*
D02*
G37*
G36*
X292590Y337720D02*
X291285Y337548D01*
X290069Y337045D01*
X289024Y336243D01*
X288223Y335199D01*
X287719Y333982D01*
X287547Y332677D01*
X287719Y331372D01*
X288223Y330156D01*
X289024Y329111D01*
X290069Y328310D01*
X291285Y327806D01*
X292590Y327634D01*
X293896Y327806D01*
X295112Y328310D01*
X296157Y329111D01*
X296958Y330156D01*
X297462Y331372D01*
X297634Y332677D01*
X297462Y333982D01*
X296958Y335199D01*
X296157Y336243D01*
X295112Y337045D01*
X293896Y337548D01*
X292590Y337720D01*
D02*
G37*
G36*
X347750Y304964D02*
X339648D01*
Y300601D01*
X347750D01*
Y304964D01*
D02*
G37*
G36*
X292598Y308193D02*
X291293Y308021D01*
X290077Y307517D01*
X289032Y306716D01*
X288231Y305671D01*
X287727Y304455D01*
X287555Y303150D01*
X287727Y301844D01*
X288231Y300628D01*
X289032Y299584D01*
X290077Y298782D01*
X291293Y298278D01*
X292598Y298107D01*
X293904Y298278D01*
X295120Y298782D01*
X296164Y299584D01*
X296966Y300628D01*
X297470Y301844D01*
X297642Y303150D01*
X297470Y304455D01*
X296966Y305671D01*
X296164Y306716D01*
X295120Y307517D01*
X293904Y308021D01*
X292598Y308193D01*
D02*
G37*
G36*
X315500Y305224D02*
X314649Y305055D01*
X313928Y304573D01*
X313445Y303851D01*
X313276Y303000D01*
X313445Y302149D01*
X313461Y302126D01*
Y297000D01*
X313616Y296220D01*
X314058Y295558D01*
X315558Y294058D01*
X316220Y293616D01*
X317000Y293461D01*
X318291D01*
Y289185D01*
X323835D01*
Y289721D01*
X333708D01*
X333878Y289221D01*
X333466Y288604D01*
X333297Y287753D01*
X333466Y286902D01*
X333948Y286181D01*
X334670Y285699D01*
X335521Y285530D01*
X336372Y285699D01*
X336438Y285743D01*
X339648D01*
Y285601D01*
X347750D01*
Y289964D01*
X339648D01*
Y289822D01*
X336392D01*
X336261Y290045D01*
X336257Y290340D01*
X336660Y290743D01*
X339648D01*
Y290601D01*
X347750D01*
Y294964D01*
X339648D01*
Y294822D01*
X336700D01*
X336351Y295055D01*
X335500Y295224D01*
X334649Y295055D01*
X333927Y294572D01*
X333445Y293851D01*
X333435Y293799D01*
X331709D01*
Y297201D01*
X333317D01*
X333599Y296919D01*
X333927Y296427D01*
X334649Y295945D01*
X335500Y295776D01*
X335575Y295791D01*
X335816Y295743D01*
X339648D01*
Y295601D01*
X347750D01*
Y299964D01*
X339648D01*
Y299822D01*
X336700D01*
X336351Y300055D01*
X336202Y300084D01*
X335604Y300682D01*
X334942Y301124D01*
X334162Y301279D01*
X323835D01*
Y301815D01*
X318291D01*
Y297961D01*
X317791Y297753D01*
X317539Y297980D01*
Y302126D01*
X317555Y302149D01*
X317724Y303000D01*
X317555Y303851D01*
X317073Y304573D01*
X316351Y305055D01*
X315500Y305224D01*
D02*
G37*
G36*
X304410Y349531D02*
X303104Y349359D01*
X301888Y348856D01*
X300843Y348054D01*
X300042Y347010D01*
X299538Y345793D01*
X299366Y344488D01*
X299538Y343183D01*
X300042Y341967D01*
X300843Y340922D01*
X301888Y340121D01*
X303104Y339617D01*
X304410Y339445D01*
X305715Y339617D01*
X306931Y340121D01*
X307250Y340366D01*
X311461Y336155D01*
Y327845D01*
X299558Y315942D01*
X299116Y315280D01*
X298961Y314500D01*
Y298874D01*
X298945Y298851D01*
X298940Y298824D01*
X295517Y295401D01*
X295120Y295706D01*
X293904Y296210D01*
X292598Y296382D01*
X291293Y296210D01*
X290077Y295706D01*
X289032Y294905D01*
X288231Y293860D01*
X287727Y292644D01*
X287555Y291339D01*
X287727Y290033D01*
X288231Y288817D01*
X289032Y287772D01*
X290077Y286971D01*
X291293Y286467D01*
X292598Y286295D01*
X293904Y286467D01*
X295120Y286971D01*
X296164Y287772D01*
X296966Y288817D01*
X297470Y290033D01*
X297642Y291339D01*
X297582Y291791D01*
X297860Y291976D01*
X301824Y295940D01*
X301851Y295945D01*
X302572Y296427D01*
X303055Y297149D01*
X303224Y298000D01*
X303055Y298851D01*
X303039Y298874D01*
Y313655D01*
X314942Y325558D01*
X315384Y326220D01*
X315539Y327000D01*
Y337000D01*
X315384Y337780D01*
X314942Y338442D01*
X309388Y343996D01*
X309453Y344488D01*
X309281Y345793D01*
X308777Y347010D01*
X307976Y348054D01*
X306931Y348856D01*
X305715Y349359D01*
X304410Y349531D01*
D02*
G37*
G36*
Y337720D02*
X303104Y337548D01*
X301888Y337045D01*
X300843Y336243D01*
X300042Y335199D01*
X299538Y333982D01*
X299366Y332677D01*
X299538Y331372D01*
X300042Y330156D01*
X300843Y329111D01*
X301804Y328374D01*
Y327688D01*
X283558Y309442D01*
X283116Y308780D01*
X282961Y308000D01*
Y292060D01*
X282461Y292036D01*
X282396Y292692D01*
X282001Y293994D01*
X281360Y295194D01*
X280497Y296245D01*
X279446Y297108D01*
X278246Y297749D01*
X276944Y298144D01*
X275590Y298277D01*
X274237Y298144D01*
X272935Y297749D01*
X271736Y297108D01*
X270684Y296245D01*
X269821Y295194D01*
X269180Y293994D01*
X268785Y292692D01*
X268652Y291339D01*
X268785Y289985D01*
X269180Y288683D01*
X269821Y287484D01*
X270684Y286432D01*
X271736Y285569D01*
X272935Y284928D01*
X274237Y284533D01*
X275590Y284400D01*
X276944Y284533D01*
X278246Y284928D01*
X279446Y285569D01*
X280497Y286432D01*
X281360Y287484D01*
X282001Y288683D01*
X282396Y289985D01*
X282461Y290642D01*
X282961Y290617D01*
Y287126D01*
X283116Y286346D01*
X283558Y285684D01*
X287927Y281315D01*
X287727Y280833D01*
X287555Y279528D01*
X287727Y278222D01*
X288231Y277006D01*
X289032Y275961D01*
X290077Y275160D01*
X291293Y274656D01*
X292598Y274484D01*
X293904Y274656D01*
X295120Y275160D01*
X296164Y275961D01*
X296966Y277006D01*
X297470Y278222D01*
X297642Y279528D01*
X297470Y280833D01*
X297270Y281315D01*
X302373Y286418D01*
X302815Y287080D01*
X302970Y287860D01*
Y289022D01*
X303055Y289149D01*
X303224Y290000D01*
X303055Y290851D01*
X302572Y291572D01*
X301851Y292055D01*
X301000Y292224D01*
X300149Y292055D01*
X299428Y291572D01*
X298945Y290851D01*
X298776Y290000D01*
X298891Y289420D01*
Y288704D01*
X294386Y284199D01*
X293904Y284399D01*
X292598Y284571D01*
X291293Y284399D01*
X290811Y284199D01*
X287039Y287971D01*
Y307155D01*
X305286Y325402D01*
X305728Y326063D01*
X305883Y326844D01*
Y327875D01*
X306931Y328310D01*
X307976Y329111D01*
X308777Y330156D01*
X309281Y331372D01*
X309453Y332677D01*
X309281Y333982D01*
X308777Y335199D01*
X307976Y336243D01*
X306931Y337045D01*
X305715Y337548D01*
X304410Y337720D01*
D02*
G37*
G36*
X351505Y264533D02*
X346505D01*
Y261417D01*
X344784Y259696D01*
X343629D01*
X343629Y259696D01*
X343432Y259657D01*
X340129D01*
Y259196D01*
X337872D01*
X337784Y259327D01*
X337063Y259809D01*
X336211Y259979D01*
X335361Y259809D01*
X334639Y259327D01*
X334157Y258606D01*
X333988Y257755D01*
X334157Y256904D01*
X334639Y256182D01*
X335361Y255700D01*
X335541Y255664D01*
X336127Y255273D01*
X336907Y255118D01*
X340129D01*
Y254657D01*
X346129D01*
Y255717D01*
X346409Y255773D01*
X347071Y256215D01*
X349389Y258533D01*
X351505D01*
Y264533D01*
D02*
G37*
G36*
X304410Y255043D02*
X303104Y254871D01*
X301888Y254367D01*
X300843Y253566D01*
X300042Y252522D01*
X299538Y251305D01*
X299366Y250000D01*
X299538Y248695D01*
X300042Y247478D01*
X300843Y246434D01*
X301888Y245633D01*
X303104Y245129D01*
X304410Y244957D01*
X305715Y245129D01*
X306931Y245633D01*
X307976Y246434D01*
X308777Y247478D01*
X309281Y248695D01*
X309453Y250000D01*
X309281Y251305D01*
X308777Y252522D01*
X307976Y253566D01*
X306931Y254367D01*
X305715Y254871D01*
X304410Y255043D01*
D02*
G37*
G36*
X275590Y251033D02*
X274237Y250900D01*
X272935Y250505D01*
X271736Y249864D01*
X270684Y249001D01*
X269821Y247950D01*
X269180Y246750D01*
X268785Y245448D01*
X268652Y244094D01*
X268785Y242741D01*
X269180Y241439D01*
X269821Y240239D01*
X270684Y239188D01*
X271736Y238325D01*
X272935Y237684D01*
X274237Y237289D01*
X275590Y237156D01*
X276944Y237289D01*
X278246Y237684D01*
X279446Y238325D01*
X280497Y239188D01*
X281360Y240239D01*
X282001Y241439D01*
X282396Y242741D01*
X282529Y244094D01*
X282396Y245448D01*
X282001Y246750D01*
X281360Y247950D01*
X280497Y249001D01*
X279446Y249864D01*
X278246Y250505D01*
X276944Y250900D01*
X275590Y251033D01*
D02*
G37*
G36*
X369516Y237892D02*
X357516D01*
Y236815D01*
X355709D01*
Y236957D01*
X349772D01*
Y232594D01*
X355709D01*
Y232736D01*
X365399D01*
X366180Y232892D01*
X366180Y232892D01*
X369516D01*
Y237892D01*
D02*
G37*
G36*
X308790Y260039D02*
X300590D01*
X299810Y259884D01*
X299149Y259442D01*
X294378Y254672D01*
X293896Y254871D01*
X292590Y255043D01*
X291285Y254871D01*
X290069Y254367D01*
X289024Y253566D01*
X288223Y252522D01*
X287719Y251305D01*
X287547Y250000D01*
X287719Y248695D01*
X288223Y247478D01*
X289024Y246434D01*
X290069Y245633D01*
X291285Y245129D01*
X292590Y244957D01*
X293896Y245129D01*
X295112Y245633D01*
X296157Y246434D01*
X296958Y247478D01*
X297462Y248695D01*
X297634Y250000D01*
X297462Y251305D01*
X297262Y251788D01*
X301435Y255961D01*
X307945D01*
X323708Y240197D01*
X323708Y240197D01*
X324370Y239755D01*
X325150Y239600D01*
X332016D01*
Y239139D01*
X334815D01*
X335601Y238354D01*
X335409Y237892D01*
X332016D01*
Y232892D01*
X335132D01*
X338691Y229332D01*
Y227566D01*
X337806Y226887D01*
X337085Y225947D01*
X336632Y224852D01*
X336477Y223677D01*
X336632Y222502D01*
X337085Y221408D01*
X337806Y220468D01*
X338746Y219746D01*
X339841Y219293D01*
X341016Y219138D01*
X342191Y219293D01*
X343285Y219746D01*
X344225Y220468D01*
X344947Y221408D01*
X345400Y222502D01*
X345555Y223677D01*
X345400Y224852D01*
X344947Y225947D01*
X344225Y226887D01*
X343285Y227608D01*
X342770Y227821D01*
Y230177D01*
X342615Y230958D01*
X342173Y231619D01*
X338042Y235750D01*
X338057Y236259D01*
X338323Y236477D01*
X340323D01*
Y236335D01*
X346260D01*
Y240697D01*
X340323D01*
Y240555D01*
X339167D01*
X338016Y241707D01*
Y244139D01*
X332016D01*
Y243678D01*
X325995D01*
X310232Y259442D01*
X309570Y259884D01*
X308790Y260039D01*
D02*
G37*
G36*
X304410Y243232D02*
X303104Y243060D01*
X301888Y242557D01*
X300843Y241755D01*
X300042Y240711D01*
X299538Y239494D01*
X299366Y238189D01*
X299538Y236884D01*
X300042Y235667D01*
X300843Y234623D01*
X301888Y233822D01*
X303104Y233318D01*
X304410Y233146D01*
X305715Y233318D01*
X306931Y233822D01*
X307976Y234623D01*
X308777Y235667D01*
X309281Y236884D01*
X309453Y238189D01*
X309281Y239494D01*
X308777Y240711D01*
X307976Y241755D01*
X306931Y242557D01*
X305715Y243060D01*
X304410Y243232D01*
D02*
G37*
G36*
X292590D02*
X291285Y243060D01*
X290069Y242557D01*
X289024Y241755D01*
X288223Y240711D01*
X287719Y239494D01*
X287547Y238189D01*
X287719Y236884D01*
X288223Y235667D01*
X289024Y234623D01*
X290069Y233822D01*
X291285Y233318D01*
X292590Y233146D01*
X293896Y233318D01*
X295112Y233822D01*
X296157Y234623D01*
X296958Y235667D01*
X297462Y236884D01*
X297634Y238189D01*
X297462Y239494D01*
X296958Y240711D01*
X296157Y241755D01*
X295112Y242557D01*
X293896Y243060D01*
X292590Y243232D01*
D02*
G37*
G36*
X354016Y228216D02*
X352841Y228061D01*
X351746Y227608D01*
X350806Y226887D01*
X350085Y225947D01*
X349632Y224852D01*
X349477Y223677D01*
X349632Y222502D01*
X350085Y221408D01*
X350806Y220468D01*
X351746Y219746D01*
X352841Y219293D01*
X354016Y219138D01*
X355190Y219293D01*
X356285Y219746D01*
X357225Y220468D01*
X357946Y221408D01*
X358400Y222502D01*
X358555Y223677D01*
X358400Y224852D01*
X357946Y225947D01*
X357225Y226887D01*
X356285Y227608D01*
X355190Y228061D01*
X354016Y228216D01*
D02*
G37*
G36*
X331016D02*
X329841Y228061D01*
X328746Y227608D01*
X327806Y226887D01*
X327085Y225947D01*
X326632Y224852D01*
X326477Y223677D01*
X326632Y222502D01*
X327085Y221408D01*
X327806Y220468D01*
X328746Y219746D01*
X329841Y219293D01*
X331016Y219138D01*
X332190Y219293D01*
X333285Y219746D01*
X334225Y220468D01*
X334946Y221408D01*
X335400Y222502D01*
X335555Y223677D01*
X335400Y224852D01*
X334946Y225947D01*
X334225Y226887D01*
X333285Y227608D01*
X332190Y228061D01*
X331016Y228216D01*
D02*
G37*
%LPD*%
G36*
X318205Y456153D02*
X321037D01*
Y452220D01*
X319457D01*
Y439026D01*
X314891D01*
X314752Y439721D01*
X314350Y440323D01*
X314540Y440823D01*
X314880D01*
Y450124D01*
X314853D01*
Y451483D01*
X314884Y451530D01*
X315039Y452310D01*
Y454376D01*
X316000D01*
Y458821D01*
X318205D01*
Y456153D01*
D02*
G37*
%LPC*%
G36*
X489958Y465050D02*
X483258D01*
Y462780D01*
X482758Y462680D01*
X482620Y463013D01*
X482140Y463640D01*
X481513Y464120D01*
X480783Y464423D01*
X480000Y464526D01*
X476742D01*
Y465050D01*
X470042D01*
Y455950D01*
Y446950D01*
X470366D01*
Y441108D01*
X470469Y440325D01*
X470771Y439595D01*
X471252Y438969D01*
X471255Y438966D01*
X470893Y438425D01*
X470722Y437565D01*
X470893Y436705D01*
X471032Y436497D01*
X470797Y436056D01*
X465979D01*
X465979Y436056D01*
X465963Y436070D01*
Y439780D01*
X467543D01*
Y464221D01*
X458457D01*
Y439780D01*
X459911D01*
Y435847D01*
X456953D01*
Y427153D01*
X468795D01*
Y430004D01*
X474337D01*
Y428000D01*
X473876D01*
Y422000D01*
X478876D01*
Y428000D01*
X478416D01*
Y431687D01*
X478722Y431748D01*
X479323Y432150D01*
X479823Y431960D01*
Y431620D01*
X480584D01*
Y428000D01*
X480124D01*
Y422000D01*
X485124D01*
Y428000D01*
X484663D01*
Y431620D01*
X489124D01*
Y435461D01*
X492500D01*
X493280Y435616D01*
X493942Y436058D01*
X496324Y438440D01*
X496351Y438445D01*
X497073Y438928D01*
X497555Y439649D01*
X497724Y440500D01*
X497649Y440876D01*
X498059Y441376D01*
X498500D01*
Y446376D01*
X494790D01*
X494598Y446838D01*
X495384Y447624D01*
X498500D01*
Y452624D01*
X497539D01*
Y453376D01*
X498500D01*
Y458376D01*
X492500D01*
Y453376D01*
X493461D01*
Y452624D01*
X492500D01*
Y450507D01*
X490420Y448428D01*
X489958Y448619D01*
Y455950D01*
Y465050D01*
D02*
G37*
G36*
X420000Y466224D02*
X419149Y466055D01*
X418428Y465573D01*
X418053Y465012D01*
X416542D01*
Y451988D01*
Y438988D01*
X416974D01*
Y437000D01*
X417077Y436217D01*
X417380Y435487D01*
X417860Y434860D01*
X418487Y434379D01*
X419217Y434077D01*
X420000Y433974D01*
X420783Y434077D01*
X421513Y434379D01*
X422140Y434860D01*
X422620Y435487D01*
X422923Y436217D01*
X423026Y437000D01*
Y438988D01*
X423660D01*
Y451988D01*
Y465012D01*
X421947D01*
X421572Y465573D01*
X420851Y466055D01*
X420000Y466224D01*
D02*
G37*
G36*
X520500Y439724D02*
X519649Y439555D01*
X518927Y439073D01*
X518445Y438351D01*
X518276Y437500D01*
X518445Y436649D01*
X518665Y436321D01*
X518566Y435821D01*
X517967D01*
Y430321D01*
X523466D01*
Y435821D01*
X522756D01*
Y437284D01*
X522718Y437472D01*
X522724Y437500D01*
X522555Y438351D01*
X522073Y439073D01*
X521351Y439555D01*
X520500Y439724D01*
D02*
G37*
G36*
X509561Y436071D02*
X504561D01*
Y430071D01*
X509561D01*
Y431032D01*
X511967D01*
Y430321D01*
X517466D01*
Y435821D01*
X511967D01*
Y435110D01*
X509561D01*
Y436071D01*
D02*
G37*
G36*
X453047Y435847D02*
X441205D01*
Y427153D01*
X443974D01*
Y426500D01*
X444077Y425717D01*
X444380Y424987D01*
X444860Y424360D01*
X445487Y423879D01*
X446217Y423577D01*
X447000Y423474D01*
X447783Y423577D01*
X448513Y423879D01*
X449140Y424360D01*
X449620Y424987D01*
X449923Y425717D01*
X450026Y426500D01*
Y427153D01*
X453047D01*
Y435847D01*
D02*
G37*
G36*
X433661Y419153D02*
X432373Y418983D01*
X431172Y418486D01*
X430140Y417694D01*
X429349Y416663D01*
X428852Y415462D01*
X428682Y414173D01*
X428852Y412884D01*
X429349Y411683D01*
X430140Y410652D01*
X431172Y409861D01*
X432373Y409363D01*
X433661Y409194D01*
X434950Y409363D01*
X436151Y409861D01*
X437183Y410652D01*
X437974Y411683D01*
X438471Y412884D01*
X438641Y414173D01*
X438471Y415462D01*
X437974Y416663D01*
X437183Y417694D01*
X436151Y418486D01*
X434950Y418983D01*
X433661Y419153D01*
D02*
G37*
G36*
X494803Y414492D02*
X493498Y414320D01*
X492282Y413816D01*
X491237Y413015D01*
X490436Y411970D01*
X489932Y410754D01*
X489760Y409449D01*
X489932Y408144D01*
X490436Y406927D01*
X491237Y405883D01*
X492282Y405081D01*
X493498Y404577D01*
X494803Y404406D01*
X496108Y404577D01*
X497325Y405081D01*
X498369Y405883D01*
X499171Y406927D01*
X499674Y408144D01*
X499846Y409449D01*
X499674Y410754D01*
X499171Y411970D01*
X498369Y413015D01*
X497325Y413816D01*
X496108Y414320D01*
X494803Y414492D01*
D02*
G37*
G36*
X506988Y417341D02*
X506137Y417172D01*
X505415Y416690D01*
X504933Y415968D01*
X504764Y415117D01*
X504933Y414266D01*
X504949Y414243D01*
Y410667D01*
X496591Y402309D01*
X496108Y402509D01*
X494803Y402681D01*
X493498Y402509D01*
X492282Y402005D01*
X491237Y401204D01*
X490436Y400159D01*
X489932Y398943D01*
X489760Y397638D01*
X489932Y396333D01*
X490436Y395116D01*
X491237Y394072D01*
X492282Y393270D01*
X493498Y392766D01*
X494803Y392595D01*
X496108Y392766D01*
X497325Y393270D01*
X498369Y394072D01*
X499171Y395116D01*
X499674Y396333D01*
X499846Y397638D01*
X499674Y398943D01*
X499475Y399426D01*
X508430Y408381D01*
X508872Y409042D01*
X509027Y409822D01*
Y414243D01*
X509042Y414266D01*
X509211Y415117D01*
X509042Y415968D01*
X508560Y416690D01*
X507839Y417172D01*
X506988Y417341D01*
D02*
G37*
G36*
X511811Y404577D02*
X510457Y404443D01*
X509156Y404048D01*
X507956Y403407D01*
X506905Y402544D01*
X506041Y401493D01*
X505400Y400293D01*
X505005Y398991D01*
X504872Y397638D01*
X505005Y396284D01*
X505400Y394982D01*
X506041Y393783D01*
X506905Y392731D01*
X507956Y391868D01*
X509156Y391227D01*
X510457Y390832D01*
X511811Y390699D01*
X513165Y390832D01*
X514466Y391227D01*
X515666Y391868D01*
X516718Y392731D01*
X517581Y393783D01*
X518222Y394982D01*
X518617Y396284D01*
X518750Y397638D01*
X518617Y398991D01*
X518222Y400293D01*
X517581Y401493D01*
X516718Y402544D01*
X515666Y403407D01*
X514466Y404048D01*
X513165Y404443D01*
X511811Y404577D01*
D02*
G37*
G36*
X433661Y378995D02*
X432373Y378826D01*
X431172Y378328D01*
X430140Y377537D01*
X429349Y376505D01*
X428852Y375305D01*
X428682Y374016D01*
X428852Y372727D01*
X429349Y371526D01*
X430140Y370495D01*
X431172Y369703D01*
X432373Y369206D01*
X433661Y369036D01*
X434950Y369206D01*
X436151Y369703D01*
X437183Y370495D01*
X437974Y371526D01*
X438471Y372727D01*
X438641Y374016D01*
X438471Y375305D01*
X437974Y376505D01*
X437183Y377537D01*
X436151Y378328D01*
X434950Y378826D01*
X433661Y378995D01*
D02*
G37*
G36*
X494803Y390870D02*
X493498Y390698D01*
X492282Y390194D01*
X491237Y389393D01*
X490436Y388348D01*
X489932Y387132D01*
X489760Y385827D01*
X489932Y384522D01*
X490436Y383305D01*
X491237Y382261D01*
X492282Y381459D01*
X493498Y380956D01*
X494803Y380784D01*
X495363Y380857D01*
X501974Y374247D01*
Y355930D01*
X499648Y353604D01*
X499224Y353888D01*
X499682Y354994D01*
X499854Y356299D01*
X499682Y357605D01*
X499179Y358821D01*
X498377Y359865D01*
X497333Y360667D01*
X496116Y361171D01*
X494811Y361342D01*
X493506Y361171D01*
X492289Y360667D01*
X491245Y359865D01*
X490444Y358821D01*
X489940Y357605D01*
X489768Y356299D01*
X489940Y354994D01*
X490444Y353778D01*
X491245Y352733D01*
X492289Y351932D01*
X493506Y351428D01*
X494811Y351256D01*
X496116Y351428D01*
X497223Y351886D01*
X497506Y351462D01*
X495486Y349443D01*
X494811Y349531D01*
X493506Y349359D01*
X492289Y348856D01*
X491245Y348054D01*
X490444Y347010D01*
X489940Y345793D01*
X489768Y344488D01*
X489940Y343183D01*
X490444Y341967D01*
X491245Y340922D01*
X492289Y340121D01*
X493506Y339617D01*
X494811Y339445D01*
X496116Y339617D01*
X497333Y340121D01*
X498377Y340922D01*
X499179Y341967D01*
X499682Y343183D01*
X499854Y344488D01*
X499765Y345163D01*
X507140Y352537D01*
X507140Y352537D01*
X507620Y353164D01*
X507923Y353894D01*
X508026Y354677D01*
Y375500D01*
X507923Y376283D01*
X507620Y377013D01*
X507140Y377640D01*
X507140Y377640D01*
X499742Y385037D01*
X499846Y385827D01*
X499674Y387132D01*
X499171Y388348D01*
X498369Y389393D01*
X497325Y390194D01*
X496108Y390698D01*
X494803Y390870D01*
D02*
G37*
G36*
X482992Y361342D02*
X481687Y361171D01*
X480471Y360667D01*
X479426Y359865D01*
X478625Y358821D01*
X478121Y357605D01*
X477949Y356299D01*
X478120Y355003D01*
X472058Y348942D01*
X471616Y348280D01*
X471461Y347500D01*
Y324453D01*
X471616Y323672D01*
X472058Y323011D01*
X490132Y304937D01*
X489932Y304455D01*
X489760Y303150D01*
X489932Y301844D01*
X490436Y300628D01*
X491237Y299584D01*
X492282Y298782D01*
X493498Y298278D01*
X494803Y298107D01*
X496108Y298278D01*
X497325Y298782D01*
X498369Y299584D01*
X498961Y300355D01*
X499461Y300185D01*
Y298880D01*
X496591Y296010D01*
X496108Y296210D01*
X494803Y296382D01*
X493498Y296210D01*
X492282Y295706D01*
X491237Y294905D01*
X490436Y293860D01*
X489932Y292644D01*
X489760Y291339D01*
X489932Y290033D01*
X490436Y288817D01*
X491237Y287772D01*
X492282Y286971D01*
X493498Y286467D01*
X494803Y286295D01*
X496108Y286467D01*
X497325Y286971D01*
X498369Y287772D01*
X499171Y288817D01*
X499674Y290033D01*
X499846Y291339D01*
X499674Y292644D01*
X499475Y293126D01*
X502942Y296593D01*
X503384Y297255D01*
X503539Y298035D01*
Y307000D01*
X503384Y307780D01*
X502942Y308442D01*
X492442Y318942D01*
X491780Y319384D01*
X491000Y319539D01*
X486845D01*
X478539Y327845D01*
Y337151D01*
X481205Y339817D01*
X481687Y339617D01*
X482992Y339445D01*
X484297Y339617D01*
X485514Y340121D01*
X486558Y340922D01*
X487360Y341967D01*
X487863Y343183D01*
X488035Y344488D01*
X487863Y345793D01*
X487360Y347010D01*
X486558Y348054D01*
X485514Y348856D01*
X484297Y349359D01*
X482992Y349531D01*
X481687Y349359D01*
X480471Y348856D01*
X479426Y348054D01*
X478625Y347010D01*
X478121Y345793D01*
X477949Y344488D01*
X478121Y343183D01*
X478321Y342701D01*
X476001Y340381D01*
X475539Y340572D01*
Y346655D01*
X480715Y351831D01*
X481687Y351428D01*
X482992Y351256D01*
X484297Y351428D01*
X485514Y351932D01*
X486558Y352733D01*
X487360Y353778D01*
X487863Y354994D01*
X488035Y356299D01*
X487863Y357605D01*
X487360Y358821D01*
X486558Y359865D01*
X485514Y360667D01*
X484297Y361171D01*
X482992Y361342D01*
D02*
G37*
G36*
X511811Y351427D02*
X510457Y351294D01*
X509156Y350899D01*
X507956Y350258D01*
X506905Y349395D01*
X506041Y348343D01*
X505400Y347144D01*
X505005Y345842D01*
X504872Y344488D01*
X505005Y343134D01*
X505400Y341833D01*
X506041Y340633D01*
X506905Y339582D01*
X507956Y338719D01*
X509156Y338077D01*
X510457Y337683D01*
X511811Y337549D01*
X513165Y337683D01*
X514466Y338077D01*
X515666Y338719D01*
X516718Y339582D01*
X517581Y340633D01*
X518222Y341833D01*
X518617Y343134D01*
X518750Y344488D01*
X518617Y345842D01*
X518222Y347144D01*
X517581Y348343D01*
X516718Y349395D01*
X515666Y350258D01*
X514466Y350899D01*
X513165Y351294D01*
X511811Y351427D01*
D02*
G37*
G36*
X433661Y338838D02*
X432373Y338668D01*
X431172Y338171D01*
X430140Y337379D01*
X429349Y336348D01*
X428852Y335147D01*
X428682Y333858D01*
X428852Y332570D01*
X429349Y331368D01*
X430140Y330337D01*
X431172Y329546D01*
X432373Y329048D01*
X433661Y328879D01*
X434950Y329048D01*
X436151Y329546D01*
X437183Y330337D01*
X437974Y331368D01*
X438471Y332570D01*
X438641Y333858D01*
X438471Y335147D01*
X437974Y336348D01*
X437183Y337379D01*
X436151Y338171D01*
X434950Y338668D01*
X433661Y338838D01*
D02*
G37*
G36*
X494811Y337720D02*
X493506Y337548D01*
X492289Y337045D01*
X491245Y336243D01*
X490444Y335199D01*
X489940Y333982D01*
X489768Y332677D01*
X489940Y331372D01*
X490444Y330156D01*
X491245Y329111D01*
X492289Y328310D01*
X493506Y327806D01*
X494811Y327634D01*
X496116Y327806D01*
X497333Y328310D01*
X498377Y329111D01*
X499179Y330156D01*
X499682Y331372D01*
X499854Y332677D01*
X499682Y333982D01*
X499179Y335199D01*
X498377Y336243D01*
X497333Y337045D01*
X496116Y337548D01*
X494811Y337720D01*
D02*
G37*
G36*
X447754Y304950D02*
X439651D01*
Y300588D01*
X447365D01*
X447655Y300588D01*
X448126Y300460D01*
X448149Y300445D01*
X448841Y300308D01*
X448791Y299808D01*
X447754D01*
Y299950D01*
X439651D01*
Y295588D01*
X447754D01*
Y295729D01*
X448662D01*
X448727Y295660D01*
X448751Y295111D01*
X448607Y294970D01*
X443864D01*
X443764Y294950D01*
X439651D01*
Y290588D01*
X447754D01*
Y290892D01*
X449323D01*
X450396Y289818D01*
X451058Y289376D01*
X451838Y289221D01*
X461165D01*
Y289185D01*
X466709D01*
Y293461D01*
X468328D01*
X469109Y293616D01*
X469770Y294058D01*
X470942Y295230D01*
X470942Y295230D01*
X471384Y295891D01*
X471539Y296672D01*
Y301126D01*
X471555Y301149D01*
X471724Y302000D01*
X471555Y302851D01*
X471072Y303573D01*
X470351Y304055D01*
X469500Y304224D01*
X468649Y304055D01*
X467928Y303573D01*
X467445Y302851D01*
X467276Y302000D01*
X467445Y301149D01*
X467461Y301126D01*
Y297539D01*
X466709D01*
Y301815D01*
X461165D01*
Y301114D01*
X451673D01*
X451241Y301028D01*
X450940Y301478D01*
X451055Y301649D01*
X451224Y302500D01*
X451055Y303351D01*
X450572Y304072D01*
X449851Y304555D01*
X449577Y304609D01*
X449512Y304653D01*
X448731Y304808D01*
X447754D01*
Y304950D01*
D02*
G37*
G36*
Y289950D02*
X439651D01*
Y285588D01*
X447754D01*
Y289950D01*
D02*
G37*
G36*
X511811Y298277D02*
X510457Y298144D01*
X509156Y297749D01*
X507956Y297108D01*
X506905Y296245D01*
X506041Y295194D01*
X505400Y293994D01*
X505005Y292692D01*
X504872Y291339D01*
X505005Y289985D01*
X505400Y288683D01*
X506041Y287484D01*
X506905Y286432D01*
X507956Y285569D01*
X509156Y284928D01*
X510457Y284533D01*
X511811Y284400D01*
X513165Y284533D01*
X514466Y284928D01*
X515666Y285569D01*
X516718Y286432D01*
X517581Y287484D01*
X518222Y288683D01*
X518617Y289985D01*
X518750Y291339D01*
X518617Y292692D01*
X518222Y293994D01*
X517581Y295194D01*
X516718Y296245D01*
X515666Y297108D01*
X514466Y297749D01*
X513165Y298144D01*
X511811Y298277D01*
D02*
G37*
G36*
X494803Y284571D02*
X493498Y284399D01*
X492282Y283895D01*
X491237Y283094D01*
X490436Y282049D01*
X489932Y280833D01*
X489760Y279528D01*
X489932Y278222D01*
X490436Y277006D01*
X491237Y275961D01*
X492282Y275160D01*
X493498Y274656D01*
X494803Y274484D01*
X496108Y274656D01*
X497325Y275160D01*
X498369Y275961D01*
X499171Y277006D01*
X499674Y278222D01*
X499846Y279528D01*
X499674Y280833D01*
X499171Y282049D01*
X498369Y283094D01*
X497325Y283895D01*
X496108Y284399D01*
X494803Y284571D01*
D02*
G37*
G36*
X453000Y264124D02*
X447000D01*
Y259124D01*
X450116D01*
X450902Y258338D01*
X450710Y257876D01*
X447000D01*
Y257416D01*
X445845D01*
X445816Y257445D01*
X445712Y257964D01*
X445270Y258625D01*
X444693Y259203D01*
Y260681D01*
X438756D01*
Y256319D01*
X441809D01*
X441841Y256287D01*
X441945Y255768D01*
X442386Y255106D01*
X443558Y253935D01*
X443558Y253935D01*
X444220Y253492D01*
X445000Y253337D01*
X447000D01*
Y252876D01*
X447961D01*
Y248339D01*
X448116Y247558D01*
X448558Y246897D01*
X455545Y239910D01*
X455550Y239883D01*
X456032Y239161D01*
X456754Y238679D01*
X457450Y238541D01*
X457668Y238052D01*
X457155Y237539D01*
X451500D01*
X450720Y237384D01*
X450058Y236942D01*
X442985Y229869D01*
X442543Y229207D01*
X442388Y228427D01*
Y227864D01*
X441731Y227592D01*
X440791Y226871D01*
X440069Y225931D01*
X439616Y224836D01*
X439461Y223661D01*
X439616Y222487D01*
X440069Y221392D01*
X440791Y220452D01*
X441731Y219731D01*
X442825Y219277D01*
X444000Y219123D01*
X445175Y219277D01*
X446269Y219731D01*
X447209Y220452D01*
X447931Y221392D01*
X448384Y222487D01*
X448539Y223661D01*
X448384Y224836D01*
X447931Y225931D01*
X447209Y226871D01*
X446770Y227208D01*
X446732Y227848D01*
X452345Y233461D01*
X458000D01*
X458780Y233616D01*
X459442Y234058D01*
X463442Y238058D01*
X463884Y238720D01*
X464039Y239500D01*
Y250124D01*
X463884Y250904D01*
X463442Y251566D01*
X458872Y256136D01*
X458866Y256163D01*
X458384Y256884D01*
X457663Y257366D01*
X457636Y257372D01*
X453000Y262007D01*
Y264124D01*
D02*
G37*
G36*
X494811Y255043D02*
X493506Y254871D01*
X492289Y254367D01*
X491245Y253566D01*
X490444Y252522D01*
X489940Y251305D01*
X489768Y250000D01*
X489940Y248695D01*
X490444Y247478D01*
X491245Y246434D01*
X492289Y245633D01*
X493506Y245129D01*
X494811Y244957D01*
X496116Y245129D01*
X497333Y245633D01*
X498377Y246434D01*
X499179Y247478D01*
X499682Y248695D01*
X499854Y250000D01*
X499682Y251305D01*
X499179Y252522D01*
X498377Y253566D01*
X497333Y254367D01*
X496116Y254871D01*
X494811Y255043D01*
D02*
G37*
G36*
X482992D02*
X481687Y254871D01*
X480471Y254367D01*
X479426Y253566D01*
X478625Y252522D01*
X478121Y251305D01*
X477949Y250000D01*
X478121Y248695D01*
X478625Y247478D01*
X479426Y246434D01*
X480471Y245633D01*
X481687Y245129D01*
X482992Y244957D01*
X484297Y245129D01*
X485514Y245633D01*
X486558Y246434D01*
X487360Y247478D01*
X487863Y248695D01*
X488035Y250000D01*
X487863Y251305D01*
X487360Y252522D01*
X486558Y253566D01*
X485514Y254367D01*
X484297Y254871D01*
X482992Y255043D01*
D02*
G37*
G36*
X444887Y242827D02*
X438887D01*
Y240711D01*
X437166Y238990D01*
X436510D01*
X436510Y238990D01*
X436313Y238951D01*
X433510D01*
Y232951D01*
X438510D01*
Y235011D01*
X438791Y235067D01*
X439452Y235509D01*
X441771Y237827D01*
X444887D01*
Y238030D01*
X445522D01*
X445649Y237945D01*
X446500Y237776D01*
X447351Y237945D01*
X448072Y238427D01*
X448555Y239149D01*
X448724Y240000D01*
X448555Y240851D01*
X448072Y241572D01*
X447351Y242055D01*
X446500Y242224D01*
X445920Y242108D01*
X444887D01*
Y242827D01*
D02*
G37*
G36*
X511811Y251033D02*
X510457Y250900D01*
X509156Y250505D01*
X507956Y249864D01*
X506905Y249001D01*
X506041Y247950D01*
X505400Y246750D01*
X505005Y245448D01*
X504872Y244094D01*
X505005Y242741D01*
X505400Y241439D01*
X506041Y240239D01*
X506905Y239188D01*
X507956Y238325D01*
X509156Y237684D01*
X510457Y237289D01*
X511811Y237156D01*
X513165Y237289D01*
X514466Y237684D01*
X515666Y238325D01*
X516718Y239188D01*
X517581Y240239D01*
X518222Y241439D01*
X518617Y242741D01*
X518750Y244094D01*
X518617Y245448D01*
X518222Y246750D01*
X517581Y247950D01*
X516718Y249001D01*
X515666Y249864D01*
X514466Y250505D01*
X513165Y250900D01*
X511811Y251033D01*
D02*
G37*
G36*
X494811Y243232D02*
X493506Y243060D01*
X492289Y242557D01*
X491245Y241755D01*
X490444Y240711D01*
X489940Y239494D01*
X489768Y238189D01*
X489940Y236884D01*
X490444Y235667D01*
X491245Y234623D01*
X492289Y233822D01*
X493506Y233318D01*
X494811Y233146D01*
X496116Y233318D01*
X497333Y233822D01*
X498377Y234623D01*
X499179Y235667D01*
X499682Y236884D01*
X499854Y238189D01*
X499682Y239494D01*
X499179Y240711D01*
X498377Y241755D01*
X497333Y242557D01*
X496116Y243060D01*
X494811Y243232D01*
D02*
G37*
G36*
X482992D02*
X481687Y243060D01*
X480471Y242557D01*
X479426Y241755D01*
X478625Y240711D01*
X478121Y239494D01*
X477949Y238189D01*
X478121Y236884D01*
X478625Y235667D01*
X479426Y234623D01*
X480471Y233822D01*
X481687Y233318D01*
X482992Y233146D01*
X484297Y233318D01*
X485514Y233822D01*
X486558Y234623D01*
X487360Y235667D01*
X487863Y236884D01*
X488035Y238189D01*
X487863Y239494D01*
X487360Y240711D01*
X486558Y241755D01*
X485514Y242557D01*
X484297Y243060D01*
X482992Y243232D01*
D02*
G37*
G36*
X431000Y228200D02*
X429825Y228046D01*
X428731Y227592D01*
X427791Y226871D01*
X427069Y225931D01*
X426616Y224836D01*
X426461Y223661D01*
X426616Y222487D01*
X427069Y221392D01*
X427791Y220452D01*
X428731Y219731D01*
X429825Y219277D01*
X431000Y219123D01*
X432175Y219277D01*
X433269Y219731D01*
X434209Y220452D01*
X434931Y221392D01*
X435384Y222487D01*
X435539Y223661D01*
X435384Y224836D01*
X434931Y225931D01*
X434209Y226871D01*
X433269Y227592D01*
X432175Y228046D01*
X431000Y228200D01*
D02*
G37*
G36*
X421000D02*
X419825Y228046D01*
X418731Y227592D01*
X417791Y226871D01*
X417069Y225931D01*
X416616Y224836D01*
X416461Y223661D01*
X416616Y222487D01*
X417069Y221392D01*
X417791Y220452D01*
X418731Y219731D01*
X419825Y219277D01*
X421000Y219123D01*
X422175Y219277D01*
X423269Y219731D01*
X424209Y220452D01*
X424931Y221392D01*
X425384Y222487D01*
X425539Y223661D01*
X425384Y224836D01*
X424931Y225931D01*
X424209Y226871D01*
X423269Y227592D01*
X422175Y228046D01*
X421000Y228200D01*
D02*
G37*
%LPD*%
G36*
X479594Y457974D02*
X479254Y457532D01*
X478952Y456802D01*
X478849Y456019D01*
X478952Y455236D01*
X479254Y454506D01*
X479735Y453879D01*
X480362Y453398D01*
X480479Y453350D01*
X483258Y450571D01*
Y446950D01*
X488289D01*
X488481Y446488D01*
X485555Y443563D01*
X485549Y443553D01*
X482028D01*
X481168Y443382D01*
X480438Y442895D01*
X480245Y442606D01*
X479644D01*
X479451Y442895D01*
X478722Y443382D01*
X477861Y443553D01*
X476418D01*
Y446950D01*
X476742D01*
Y455950D01*
Y458474D01*
X479358D01*
X479594Y457974D01*
D02*
G37*
G36*
X497944Y307672D02*
X497614Y307295D01*
X497325Y307517D01*
X496108Y308021D01*
X494803Y308193D01*
X493498Y308021D01*
X493015Y307821D01*
X485788Y315049D01*
X486083Y315461D01*
X490155D01*
X497944Y307672D01*
D02*
G37*
G36*
X454752Y254488D02*
X454757Y254461D01*
X455239Y253739D01*
X455961Y253257D01*
X455988Y253252D01*
X459961Y249279D01*
Y242034D01*
X459461Y241882D01*
X459177Y242306D01*
X458456Y242788D01*
X458429Y242794D01*
X452039Y249183D01*
Y252876D01*
X453000D01*
Y255587D01*
X453462Y255778D01*
X454752Y254488D01*
D02*
G37*
D21*
X484473Y433825D02*
D03*
D22*
Y437565D02*
D03*
Y441305D02*
D03*
X475416D02*
D03*
Y437565D02*
D03*
Y433825D02*
D03*
D27*
X312675Y445473D02*
D03*
D28*
X308935D02*
D03*
X305195D02*
D03*
Y436416D02*
D03*
X308935D02*
D03*
X312675D02*
D03*
D36*
X328937Y295500D02*
D03*
X321063Y299240D02*
D03*
Y291760D02*
D03*
X456063Y295500D02*
D03*
X463937Y291760D02*
D03*
Y299240D02*
D03*
D37*
X383069Y263405D02*
D03*
Y258405D02*
D03*
Y253405D02*
D03*
Y248406D02*
D03*
X404329Y263405D02*
D03*
Y258405D02*
D03*
Y253405D02*
D03*
Y248406D02*
D03*
X443703Y287769D02*
D03*
Y292769D02*
D03*
Y297769D02*
D03*
Y302769D02*
D03*
X422443Y287769D02*
D03*
Y292769D02*
D03*
Y297769D02*
D03*
Y302769D02*
D03*
X383069Y302776D02*
D03*
Y297776D02*
D03*
Y292776D02*
D03*
Y287776D02*
D03*
X404329Y302776D02*
D03*
Y297776D02*
D03*
Y292776D02*
D03*
Y287776D02*
D03*
X343699Y302783D02*
D03*
Y297782D02*
D03*
Y292782D02*
D03*
Y287783D02*
D03*
X364959Y302783D02*
D03*
Y297782D02*
D03*
Y292782D02*
D03*
Y287783D02*
D03*
D38*
X355253Y261533D02*
D03*
X349005D02*
D03*
X429763Y235951D02*
D03*
X436010D02*
D03*
X416876Y271654D02*
D03*
X423124D02*
D03*
X429947Y311024D02*
D03*
X436195D02*
D03*
X416876Y311000D02*
D03*
X423124D02*
D03*
X364376Y271654D02*
D03*
X370624D02*
D03*
X364376Y311000D02*
D03*
X370624D02*
D03*
X357454Y311024D02*
D03*
X351207D02*
D03*
X507061Y433071D02*
D03*
X500813D02*
D03*
X476376Y425000D02*
D03*
X482624D02*
D03*
X280341Y433071D02*
D03*
X286588D02*
D03*
D39*
X366129Y252533D02*
D03*
X353129D02*
D03*
X418887Y244951D02*
D03*
X431887D02*
D03*
D40*
X343129Y257157D02*
D03*
Y250910D02*
D03*
X366516Y235392D02*
D03*
Y241639D02*
D03*
X360516D02*
D03*
Y235392D02*
D03*
X335016D02*
D03*
Y241639D02*
D03*
X441887Y246574D02*
D03*
Y240327D02*
D03*
X450000Y255376D02*
D03*
Y261624D02*
D03*
X418500Y255376D02*
D03*
Y261624D02*
D03*
X424500Y255376D02*
D03*
Y261624D02*
D03*
X495500Y455876D02*
D03*
Y462124D02*
D03*
Y443876D02*
D03*
Y450124D02*
D03*
X313000Y463124D02*
D03*
Y456876D02*
D03*
X306000D02*
D03*
Y463124D02*
D03*
X299000Y456876D02*
D03*
Y463124D02*
D03*
D41*
X352740Y234776D02*
D03*
Y242256D02*
D03*
X343291Y238516D02*
D03*
X432276Y262240D02*
D03*
Y254760D02*
D03*
X441724Y258500D02*
D03*
D42*
X473392Y460500D02*
D03*
X486608D02*
D03*
X473392Y451500D02*
D03*
X486608D02*
D03*
X308392Y421500D02*
D03*
X321608D02*
D03*
X308392Y412500D02*
D03*
X321608D02*
D03*
D43*
X514716Y433071D02*
D03*
X520716D02*
D03*
X272685D02*
D03*
X266685D02*
D03*
D44*
X463000Y452000D02*
D03*
X441500D02*
D03*
X324000Y440000D02*
D03*
X345500D02*
D03*
D45*
X447126Y431500D02*
D03*
X462874D02*
D03*
X339874Y460500D02*
D03*
X324126D02*
D03*
D46*
X432899Y458500D02*
D03*
X420101D02*
D03*
X432899Y445500D02*
D03*
X420101D02*
D03*
X354101Y446500D02*
D03*
X366899D02*
D03*
X354101Y433500D02*
D03*
X366899D02*
D03*
D47*
X469500Y296672D02*
Y302000D01*
X315500Y297000D02*
Y303000D01*
X317000Y295500D02*
X328937D01*
X315500Y297000D02*
X317000Y295500D01*
X456063D02*
X468328D01*
X469500Y296672D01*
X463772Y299075D02*
X463937Y299240D01*
X451673Y299075D02*
X463772D01*
X450167Y297569D02*
X451673Y299075D01*
X449833Y297569D02*
X450167D01*
X451838Y291260D02*
X463937D01*
X450098Y293000D02*
X451838Y291260D01*
X450000Y293000D02*
X450098D01*
X321063Y299240D02*
X334162D01*
X335402Y298000D01*
X335500D01*
X334793Y291760D02*
X335816Y292782D01*
X321063Y291760D02*
X334793D01*
X364376Y277376D02*
X374776Y287776D01*
X364376Y271654D02*
Y277376D01*
X374776Y287776D02*
X383069D01*
X451500Y235500D02*
X458000D01*
X444000Y223661D02*
X444427Y224088D01*
Y228427D01*
X451500Y235500D01*
X462000Y239500D02*
Y250124D01*
X458000Y235500D02*
X462000Y239500D01*
X456812Y255312D02*
X462000Y250124D01*
X450500Y261624D02*
X456812Y255312D01*
X450000Y261624D02*
X450500D01*
X450000Y248339D02*
Y255376D01*
Y248339D02*
X457605Y240734D01*
X441645Y240069D02*
X446431D01*
X441387Y240327D02*
X441645Y240069D01*
X446431D02*
X446500Y240000D01*
X447839Y217500D02*
X454000Y223661D01*
X417500Y217500D02*
X447839D01*
X415000Y220000D02*
Y239604D01*
Y220000D02*
X417500Y217500D01*
X404329Y248406D02*
X406199D01*
X415000Y239604D01*
X441724Y258500D02*
X442512D01*
X443828Y257183D01*
Y256548D02*
Y257183D01*
Y256548D02*
X445000Y255376D01*
X450000D01*
X424500Y261624D02*
X430872D01*
X418500D02*
X424500D01*
X430872D02*
X431488Y262240D01*
X432276D01*
X416876Y266376D02*
Y271654D01*
X404329Y263405D02*
X413905D01*
X416876Y266376D01*
X424500Y255376D02*
X428783D01*
X430872D01*
X431488Y254760D01*
X432276D01*
X423263Y242951D02*
X425281Y240932D01*
X429763Y235951D02*
Y236451D01*
X425281Y240932D02*
X429763Y236451D01*
X419887Y242951D02*
X423263D01*
X418887Y243951D02*
X419887Y242951D01*
X418887Y243951D02*
Y244951D01*
X438010Y236951D02*
X441387Y240327D01*
X436510Y236951D02*
X438010D01*
X436010Y236451D02*
X436510Y236951D01*
X436010Y235951D02*
Y236451D01*
X432510Y246574D02*
X441887D01*
X431887Y245951D02*
X432510Y246574D01*
X430887Y246951D02*
X431887Y245951D01*
X429887Y246951D02*
X430887D01*
X425838Y251000D02*
X429887Y246951D01*
X416500Y251000D02*
X425838D01*
X404329Y253405D02*
X414094D01*
X416500Y251000D01*
X404329Y258405D02*
X414971D01*
X418000Y255376D01*
X418500D01*
X490749Y445872D02*
Y445872D01*
X484473Y441305D02*
X486808D01*
X486997Y441495D01*
Y442121D01*
X490749Y445872D01*
Y445872D02*
X495000Y450124D01*
X495500D01*
X494803Y397638D02*
X506988Y409822D01*
Y415117D01*
X482624Y425000D02*
Y433620D01*
X482829Y433825D01*
X484473D01*
X476376Y425000D02*
Y433636D01*
X476187Y433825D02*
X476376Y433636D01*
X475416Y433825D02*
X476187D01*
X495500Y450124D02*
Y455876D01*
Y440500D02*
Y443876D01*
X520500Y437500D02*
X520716Y437284D01*
Y433071D02*
Y437284D01*
X507061Y433071D02*
X514716D01*
X484473Y437565D02*
X484538Y437500D01*
X492500D01*
X495500Y440500D01*
X501500Y298035D02*
Y307000D01*
X486000Y317500D02*
X491000D01*
X501500Y307000D01*
X494803Y291339D02*
X501500Y298035D01*
X494803Y291339D02*
X494803D01*
X476500Y327000D02*
X486000Y317500D01*
X476500Y327000D02*
Y337996D01*
X482992Y344488D01*
X482299Y356299D02*
X482992D01*
X473500Y347500D02*
X482299Y356299D01*
X473500Y324453D02*
X494803Y303150D01*
X473500Y324453D02*
Y347500D01*
X443703Y292769D02*
X443864Y292931D01*
X449931D01*
X450000Y293000D01*
X443703Y297769D02*
X449633D01*
X420000Y317000D02*
X426500D01*
X434500D01*
X416876Y311000D02*
X417376Y311500D01*
Y314376D01*
X420000Y317000D01*
X434500D02*
X436195Y315305D01*
Y311024D02*
Y315305D01*
X448731Y302769D02*
X449000Y302500D01*
X443703Y302769D02*
X448731D01*
X422443Y297769D02*
X427671D01*
X427902Y298000D01*
X428000D01*
X423124Y271654D02*
Y278876D01*
X404329Y287776D02*
X414224D01*
X423124Y278876D01*
X404329Y292776D02*
X414224D01*
X419050Y287950D02*
X422262D01*
X414224Y292776D02*
X419050Y287950D01*
X422262D02*
X422443Y287769D01*
X413776Y302776D02*
X416876Y305876D01*
Y311000D01*
X404329Y302776D02*
X413776D01*
X404329Y297776D02*
X414276D01*
X422262Y302588D02*
X422443Y302769D01*
X419088Y302588D02*
X422262D01*
X414276Y297776D02*
X419088Y302588D01*
X354144Y241639D02*
X360516D01*
X353528Y242256D02*
X355150D01*
X352740D02*
X353528D01*
X355150D02*
X356697Y243803D01*
X336907Y257157D02*
X343129D01*
X336310Y257755D02*
X336907Y257157D01*
X336211Y257755D02*
X336310D01*
X292590Y250000D02*
X300590Y258000D01*
X308790D02*
X325150Y241639D01*
X300590Y258000D02*
X308790D01*
X325150Y241639D02*
X335016D01*
X338323Y238516D02*
X343291D01*
X336016Y240823D02*
X338323Y238516D01*
X336016Y240823D02*
Y241139D01*
X335516Y241639D02*
X336016Y241139D01*
X335016Y241639D02*
X335516D01*
X340731Y223962D02*
X341016Y223677D01*
X340731Y223962D02*
Y230177D01*
X335516Y235392D02*
X340731Y230177D01*
X335016Y235392D02*
X335516D01*
X364016Y223677D02*
X371500Y231161D01*
X381199Y248406D02*
X383069D01*
X371500Y238706D02*
X381199Y248406D01*
X371500Y231161D02*
Y238706D01*
X367016Y241639D02*
X371000Y245624D01*
Y251500D01*
X366516Y241639D02*
X367016D01*
X372905Y253405D02*
X383069D01*
X371000Y251500D02*
X372905Y253405D01*
X352740Y234776D02*
X365399D01*
X366016Y235392D01*
X366516D01*
X353528Y242256D02*
X354144Y241639D01*
X361500Y253000D02*
X361967Y252533D01*
X366129D01*
X355253Y261533D02*
Y262033D01*
X355753Y262533D01*
X358435D01*
X358902Y263000D01*
X359000D01*
X370624Y266376D02*
X373594Y263405D01*
X370624Y266376D02*
Y271654D01*
X373594Y263405D02*
X383069D01*
X353129Y252533D02*
Y253533D01*
X354129Y254533D01*
X355129D01*
X359001Y258405D01*
X383069D01*
X343129Y250910D02*
X352129D01*
X353129Y251910D01*
Y252533D01*
X349005Y261033D02*
Y261533D01*
X345629Y257657D02*
X349005Y261033D01*
X343629Y257657D02*
X345629D01*
X343129Y257157D02*
X343629Y257657D01*
X335521Y287753D02*
X335550Y287783D01*
X343699D01*
X292598Y279528D02*
X300931Y287860D01*
Y289931D01*
X301000Y290000D01*
X335816Y292782D02*
X343699D01*
X335816Y297782D02*
X343699D01*
X335598Y298000D02*
X335816Y297782D01*
X335500Y298000D02*
X335598D01*
X296418Y293418D02*
X301000Y298000D01*
X296302Y293418D02*
X296418D01*
X294222Y291339D02*
X296302Y293418D01*
X292598Y291339D02*
X294222D01*
X359381Y292782D02*
X364959D01*
X359098Y292500D02*
X359381Y292782D01*
X359000Y292500D02*
X359098D01*
X372776Y292776D02*
X383069D01*
X364959Y287783D02*
X365140Y287964D01*
X367964D01*
X372776Y292776D01*
X370624Y305376D02*
X373224Y302776D01*
X383069D01*
X370624Y305376D02*
Y314876D01*
X365140Y302601D02*
X367899D01*
X372724Y297776D01*
X383069D01*
X364959Y302783D02*
X365140Y302601D01*
X364437Y316500D02*
X369000D01*
X359000D02*
X364437D01*
X369000D02*
X370624Y314876D01*
X357454Y314954D02*
X359000Y316500D01*
X357454Y311024D02*
Y314954D01*
X301000Y298000D02*
Y314500D01*
X313500Y327000D01*
X285000Y287126D02*
Y308000D01*
X303844Y326844D01*
Y332111D01*
X313500Y327000D02*
Y337000D01*
X303844Y332111D02*
X304410Y332677D01*
X285000Y287126D02*
X292598Y279528D01*
X304410Y344488D02*
X306012D01*
X313500Y337000D01*
X266569Y433187D02*
X266685Y433071D01*
X266569Y433187D02*
Y436431D01*
X266500Y436500D02*
X266569Y436431D01*
X272685Y433071D02*
X280341D01*
X312675Y445473D02*
X312814Y445612D01*
Y452124D01*
X313000Y452310D01*
Y456876D01*
X321205Y461846D02*
X324000Y459051D01*
X305500Y463124D02*
X306000D01*
X300000Y457624D02*
X305500Y463124D01*
X300000Y457376D02*
Y457624D01*
X299500Y456876D02*
X300000Y457376D01*
X299000Y456876D02*
X299500D01*
X299000Y451668D02*
Y456876D01*
X305005Y447669D02*
X305195Y447480D01*
Y445473D02*
Y447480D01*
X299000Y451668D02*
X302999Y447669D01*
X305005D01*
X308856Y445552D02*
Y450644D01*
X306000Y453500D02*
Y456876D01*
Y453500D02*
X308856Y450644D01*
Y445552D02*
X308935Y445473D01*
X308856Y434611D02*
Y436337D01*
X308935Y436416D01*
D48*
X494803Y385697D02*
Y385827D01*
X505000Y354677D02*
Y375500D01*
X494803Y385697D02*
X505000Y375500D01*
X477000Y461500D02*
X480000D01*
X473742D02*
X477000D01*
X473392Y441108D02*
X475500Y439000D01*
X473392Y441108D02*
Y451500D01*
Y460500D02*
Y461150D01*
X473742Y461500D01*
X420000Y445399D02*
X420101Y445500D01*
X420000Y437000D02*
Y445399D01*
X420101Y445500D02*
Y458500D01*
X447000Y431374D02*
X447126Y431500D01*
X447000Y426500D02*
Y431374D01*
X465979Y433030D02*
X474621D01*
X464449Y431500D02*
X465979Y433030D01*
X462874Y431500D02*
X464449D01*
X462874D02*
X462937Y431563D01*
Y451937D01*
X463000Y452000D01*
X481875Y456019D02*
X482089D01*
X486608Y451500D01*
Y460500D01*
X473392Y451500D02*
Y460500D01*
X494811Y344488D02*
X505000Y354677D01*
X316828Y417029D02*
X317138D01*
X321608Y421500D01*
X353740Y414173D02*
X366000Y401913D01*
Y376433D02*
Y401913D01*
X353740Y364173D02*
X366000Y376433D01*
X308392Y392392D02*
Y412500D01*
X302592Y386592D02*
X308392Y392392D01*
X292598Y385827D02*
X293364Y386592D01*
X302592D01*
X355852Y460500D02*
X366899Y449453D01*
Y433500D02*
Y446500D01*
X339874Y460500D02*
X355852D01*
X366899Y446500D02*
Y449453D01*
X321205Y461846D02*
X322779D01*
X314277D02*
X321205D01*
X322779D02*
X324126Y460500D01*
X313000Y463124D02*
X314277Y461846D01*
X324000Y440000D02*
X324063Y440063D01*
Y460437D01*
X324126Y460500D01*
X314000Y436000D02*
X322457D01*
X324000Y437543D02*
Y440000D01*
X322457Y436000D02*
X324000Y437543D01*
X305195Y436416D02*
X307000Y434611D01*
Y424092D02*
Y434611D01*
X308042Y421850D02*
X308392Y421500D01*
X307000Y424092D02*
X308042Y423050D01*
Y421850D02*
Y423050D01*
X308392Y412500D02*
Y421500D01*
X321608Y412500D02*
Y421500D01*
D49*
X354016Y223677D02*
D03*
X364016D02*
D03*
X341016D02*
D03*
X331016D02*
D03*
X444000Y223661D02*
D03*
X454000D02*
D03*
X431000D02*
D03*
X421000D02*
D03*
D50*
X353740Y414173D02*
D03*
X433661D02*
D03*
Y374016D02*
D03*
Y333858D02*
D03*
X353740Y384252D02*
D03*
D51*
Y364173D02*
D03*
D52*
X292598Y279528D02*
D03*
Y291339D02*
D03*
Y303150D02*
D03*
X292590Y356299D02*
D03*
X304410D02*
D03*
Y344488D02*
D03*
Y332677D02*
D03*
X292590Y344488D02*
D03*
Y332677D02*
D03*
X494803Y385827D02*
D03*
Y397638D02*
D03*
Y409449D02*
D03*
X292598D02*
D03*
Y397638D02*
D03*
Y385827D02*
D03*
X494811Y356299D02*
D03*
Y344488D02*
D03*
X482992Y356299D02*
D03*
Y344488D02*
D03*
Y332677D02*
D03*
X494811D02*
D03*
X494803Y279528D02*
D03*
Y291339D02*
D03*
Y303150D02*
D03*
X494811Y250000D02*
D03*
Y238189D02*
D03*
X482992Y250000D02*
D03*
Y238189D02*
D03*
X292590D02*
D03*
Y250000D02*
D03*
X304410Y238189D02*
D03*
Y250000D02*
D03*
D53*
X469500Y302000D02*
D03*
X315500Y303000D02*
D03*
X420000Y464000D02*
D03*
Y452000D02*
D03*
X456812Y255312D02*
D03*
X457605Y240734D02*
D03*
X446500Y240000D02*
D03*
X416876Y266376D02*
D03*
X428783Y255376D02*
D03*
X425281Y240932D02*
D03*
X506988Y415117D02*
D03*
X480000Y461500D02*
D03*
X477000D02*
D03*
X420000Y437000D02*
D03*
X447000Y426500D02*
D03*
X495500Y440500D02*
D03*
X520500Y437500D02*
D03*
X481875Y456019D02*
D03*
X450000Y293000D02*
D03*
Y297500D02*
D03*
X426500Y317000D02*
D03*
X449000Y302500D02*
D03*
X428000Y298000D02*
D03*
X356697Y243803D02*
D03*
X336211Y257755D02*
D03*
X361500Y253000D02*
D03*
X359000Y263000D02*
D03*
X370624Y266376D02*
D03*
X335521Y287753D02*
D03*
X301000Y290000D02*
D03*
X335500Y293000D02*
D03*
X301000Y298000D02*
D03*
X335500D02*
D03*
X359000Y292500D02*
D03*
X364437Y316500D02*
D03*
X316828Y417029D02*
D03*
X266500Y436500D02*
D03*
X306000Y453500D02*
D03*
X360138Y456298D02*
D03*
X358000Y458500D02*
D03*
X352500Y460500D02*
D03*
X356000D02*
D03*
M02*
