G04*
G04 #@! TF.GenerationSoftware,Altium Limited,Altium Designer,20.1.12 (249)*
G04*
G04 Layer_Physical_Order=2*
G04 Layer_Color=16711680*
%FSLAX25Y25*%
%MOIN*%
G70*
G04*
G04 #@! TF.SameCoordinates,187957CB-44C1-49C2-83CB-A2E739709334*
G04*
G04*
G04 #@! TF.FilePolarity,Positive*
G04*
G01*
G75*
%ADD47C,0.02000*%
%ADD48C,0.04000*%
%ADD49C,0.07000*%
%ADD50C,0.07874*%
%ADD51R,0.07874X0.07874*%
%ADD52C,0.08000*%
%ADD53C,0.02362*%
G36*
X514282Y464218D02*
X514091Y463756D01*
X507811D01*
X500811Y456756D01*
Y452756D01*
Y449175D01*
X500311Y448968D01*
X485640Y463640D01*
X485013Y464120D01*
X484283Y464423D01*
X483500Y464526D01*
X477000D01*
X476217Y464423D01*
X475487Y464120D01*
X474860Y463640D01*
X474379Y463013D01*
X474077Y462283D01*
X473974Y461500D01*
X474077Y460717D01*
X474379Y459987D01*
X474860Y459360D01*
X475487Y458880D01*
X476217Y458577D01*
X477000Y458474D01*
X482247D01*
X497974Y442747D01*
Y413883D01*
X497526Y413662D01*
X497325Y413816D01*
X496108Y414320D01*
X494803Y414492D01*
X493498Y414320D01*
X492282Y413816D01*
X491237Y413015D01*
X490436Y411970D01*
X489932Y410754D01*
X489760Y409449D01*
X489932Y408144D01*
X490436Y406927D01*
X491237Y405883D01*
X492282Y405081D01*
X493498Y404577D01*
X494803Y404406D01*
X496108Y404577D01*
X497325Y405081D01*
X498369Y405883D01*
X498911Y406589D01*
X499063Y406526D01*
X499846Y406423D01*
X516798D01*
X519474Y403747D01*
Y359325D01*
X498792D01*
X498377Y359865D01*
X497333Y360667D01*
X496116Y361171D01*
X494811Y361342D01*
X494136Y361253D01*
X485750Y369640D01*
X485123Y370121D01*
X484393Y370423D01*
X483610Y370526D01*
X467303D01*
X466520Y370423D01*
X465790Y370121D01*
X465164Y369640D01*
X434280Y338756D01*
X433661Y338838D01*
X432373Y338668D01*
X431172Y338171D01*
X430140Y337379D01*
X429349Y336348D01*
X428852Y335147D01*
X428682Y333858D01*
X428852Y332570D01*
X429349Y331368D01*
X430140Y330337D01*
X431172Y329546D01*
X432373Y329048D01*
X433661Y328879D01*
X434950Y329048D01*
X436151Y329546D01*
X437183Y330337D01*
X437974Y331368D01*
X438471Y332570D01*
X438641Y333858D01*
X438560Y334477D01*
X468556Y364474D01*
X482357D01*
X485700Y361130D01*
X485417Y360707D01*
X484297Y361171D01*
X482992Y361342D01*
X481687Y361171D01*
X480471Y360667D01*
X479426Y359865D01*
X478625Y358821D01*
X478121Y357605D01*
X477949Y356299D01*
X478121Y354994D01*
X478625Y353778D01*
X479426Y352733D01*
X480471Y351932D01*
X481687Y351428D01*
X482992Y351256D01*
X484297Y351428D01*
X485514Y351932D01*
X486558Y352733D01*
X487360Y353778D01*
X487863Y354994D01*
X488035Y356299D01*
X487863Y357605D01*
X487400Y358724D01*
X487823Y359008D01*
X489857Y356974D01*
X489768Y356299D01*
X489940Y354994D01*
X490444Y353778D01*
X491245Y352733D01*
X492289Y351932D01*
X493506Y351428D01*
X494811Y351256D01*
X496116Y351428D01*
X497333Y351932D01*
X498377Y352733D01*
X498792Y353273D01*
X518403D01*
X518974Y352703D01*
Y346386D01*
X518474Y346312D01*
X518222Y347144D01*
X517581Y348343D01*
X516718Y349395D01*
X515666Y350258D01*
X514466Y350899D01*
X513165Y351294D01*
X511811Y351427D01*
X510457Y351294D01*
X509156Y350899D01*
X507956Y350258D01*
X506905Y349395D01*
X506041Y348343D01*
X505400Y347144D01*
X505005Y345842D01*
X504872Y344488D01*
X505005Y343134D01*
X505400Y341833D01*
X506041Y340633D01*
X506905Y339582D01*
X507956Y338719D01*
X509156Y338077D01*
X510457Y337683D01*
X511811Y337549D01*
X513165Y337683D01*
X514466Y338077D01*
X515666Y338719D01*
X516718Y339582D01*
X517581Y340633D01*
X518222Y341833D01*
X518474Y342665D01*
X518974Y342590D01*
Y293236D01*
X518474Y293162D01*
X518222Y293994D01*
X517581Y295194D01*
X516718Y296245D01*
X515666Y297108D01*
X514466Y297749D01*
X513165Y298144D01*
X511811Y298277D01*
X510457Y298144D01*
X509156Y297749D01*
X507956Y297108D01*
X506905Y296245D01*
X506041Y295194D01*
X505400Y293994D01*
X505005Y292692D01*
X504872Y291339D01*
X505005Y289985D01*
X505400Y288683D01*
X506041Y287484D01*
X506905Y286432D01*
X507956Y285569D01*
X509156Y284928D01*
X510457Y284533D01*
X511811Y284400D01*
X513165Y284533D01*
X514466Y284928D01*
X515666Y285569D01*
X516718Y286432D01*
X517581Y287484D01*
X518222Y288683D01*
X518474Y289515D01*
X518974Y289441D01*
Y245992D01*
X518474Y245918D01*
X518222Y246750D01*
X517581Y247950D01*
X516718Y249001D01*
X515666Y249864D01*
X514466Y250505D01*
X513165Y250900D01*
X511811Y251033D01*
X510457Y250900D01*
X509156Y250505D01*
X507956Y249864D01*
X506905Y249001D01*
X506041Y247950D01*
X505400Y246750D01*
X505005Y245448D01*
X504872Y244094D01*
X505005Y242741D01*
X505400Y241439D01*
X506041Y240239D01*
X506905Y239188D01*
X507956Y238325D01*
X509156Y237684D01*
X510457Y237289D01*
X511811Y237156D01*
X513165Y237289D01*
X514466Y237684D01*
X515666Y238325D01*
X516718Y239188D01*
X517581Y240239D01*
X518222Y241439D01*
X518474Y242271D01*
X518974Y242197D01*
Y238253D01*
X509747Y229026D01*
X498000D01*
X498000Y229026D01*
X497217Y228923D01*
X496487Y228621D01*
X495860Y228140D01*
X486171Y218450D01*
X428026D01*
Y218850D01*
X427923Y219633D01*
X427870Y219761D01*
X428280Y220076D01*
X428731Y219731D01*
X429825Y219277D01*
X431000Y219123D01*
X432175Y219277D01*
X433269Y219731D01*
X434209Y220452D01*
X434350Y220636D01*
X440650D01*
X440791Y220452D01*
X441731Y219731D01*
X442825Y219277D01*
X444000Y219123D01*
X445175Y219277D01*
X446269Y219731D01*
X447209Y220452D01*
X447931Y221392D01*
X448384Y222487D01*
X448539Y223661D01*
X448384Y224836D01*
X447931Y225931D01*
X447209Y226871D01*
X446269Y227592D01*
X445175Y228046D01*
X444000Y228200D01*
X442825Y228046D01*
X441731Y227592D01*
X440791Y226871D01*
X440650Y226687D01*
X434350D01*
X434209Y226871D01*
X433269Y227592D01*
X432175Y228046D01*
X431000Y228200D01*
X429825Y228046D01*
X428731Y227592D01*
X427791Y226871D01*
X427069Y225931D01*
X426616Y224836D01*
X426461Y223661D01*
X426616Y222487D01*
X426804Y222032D01*
X426380Y221748D01*
X425414Y222715D01*
X425539Y223661D01*
X425384Y224836D01*
X424931Y225931D01*
X424209Y226871D01*
X423269Y227592D01*
X422175Y228046D01*
X421000Y228200D01*
X419825Y228046D01*
X418731Y227592D01*
X417791Y226871D01*
X417069Y225931D01*
X416616Y224836D01*
X416461Y223661D01*
X416616Y222487D01*
X417069Y221392D01*
X417791Y220452D01*
X418731Y219731D01*
X419825Y219277D01*
X420364Y219206D01*
X421974Y217596D01*
Y216843D01*
X422077Y216060D01*
X422379Y215330D01*
X422860Y214703D01*
X424279Y213285D01*
X424279Y213285D01*
X424906Y212804D01*
X425636Y212502D01*
X426419Y212399D01*
X426419Y212399D01*
X487424D01*
X488207Y212502D01*
X488937Y212804D01*
X489564Y213285D01*
X499253Y222974D01*
X511000D01*
X511783Y223077D01*
X512513Y223379D01*
X513140Y223860D01*
X524140Y234860D01*
X524620Y235487D01*
X524923Y236217D01*
X525026Y237000D01*
Y352820D01*
X525120Y352943D01*
X525423Y353673D01*
X525500Y354259D01*
X526000Y354227D01*
Y209000D01*
X523273Y206273D01*
X522811Y206464D01*
Y208661D01*
Y212661D01*
X515811Y219661D01*
X507811D01*
X500811Y212661D01*
Y208661D01*
Y204661D01*
X507811Y197661D01*
X514008D01*
X514199Y197199D01*
X511500Y194500D01*
X414000D01*
Y467000D01*
X511500D01*
X514282Y464218D01*
D02*
G37*
G36*
X526000Y452500D02*
Y405229D01*
X525500Y405197D01*
X525423Y405783D01*
X525120Y406513D01*
X524640Y407140D01*
X520191Y411588D01*
X519564Y412069D01*
X518834Y412372D01*
X518051Y412475D01*
X504026D01*
Y444000D01*
X504026Y444000D01*
X503923Y444783D01*
X503814Y445046D01*
X504238Y445329D01*
X507811Y441756D01*
X515811D01*
X522811Y448756D01*
Y452756D01*
Y455036D01*
X523273Y455227D01*
X526000Y452500D01*
D02*
G37*
G36*
X373000Y194500D02*
X276000D01*
X273301Y197199D01*
X273492Y197661D01*
X279591D01*
X286591Y204661D01*
Y208661D01*
Y212661D01*
X279591Y219661D01*
X271590D01*
X264591Y212661D01*
Y208661D01*
Y206563D01*
X264129Y206371D01*
X261500Y209000D01*
Y234771D01*
X262000Y234803D01*
X262077Y234217D01*
X262380Y233487D01*
X262860Y232860D01*
X274183Y221537D01*
X274810Y221057D01*
X275540Y220754D01*
X276323Y220651D01*
X327665D01*
X327806Y220468D01*
X328746Y219746D01*
X329841Y219293D01*
X331016Y219138D01*
X332190Y219293D01*
X333285Y219746D01*
X334225Y220468D01*
X334946Y221408D01*
X335400Y222502D01*
X335555Y223677D01*
X335400Y224852D01*
X334946Y225947D01*
X334225Y226887D01*
X333285Y227608D01*
X332190Y228061D01*
X331016Y228216D01*
X329841Y228061D01*
X328746Y227608D01*
X327806Y226887D01*
X327665Y226703D01*
X277576D01*
X268026Y236253D01*
Y327101D01*
X270576Y329651D01*
X288610D01*
X289024Y329111D01*
X290069Y328310D01*
X291285Y327806D01*
X292590Y327634D01*
X293896Y327806D01*
X295112Y328310D01*
X296157Y329111D01*
X296958Y330156D01*
X297462Y331372D01*
X297634Y332677D01*
X297462Y333982D01*
X296958Y335199D01*
X296157Y336243D01*
X295112Y337045D01*
X293896Y337548D01*
X292590Y337720D01*
X291285Y337548D01*
X290069Y337045D01*
X289024Y336243D01*
X288610Y335703D01*
X270576D01*
X268026Y338253D01*
Y356975D01*
X291923Y380873D01*
X292598Y380784D01*
X293904Y380956D01*
X295120Y381459D01*
X296164Y382261D01*
X296579Y382801D01*
X330833D01*
X348803Y364831D01*
Y359236D01*
X358677D01*
Y369110D01*
X353082D01*
X334226Y387966D01*
X333600Y388447D01*
X332870Y388750D01*
X332087Y388853D01*
X296579D01*
X296164Y389393D01*
X295120Y390194D01*
X293904Y390698D01*
X292598Y390870D01*
X291293Y390698D01*
X290077Y390194D01*
X289032Y389393D01*
X288231Y388348D01*
X287727Y387132D01*
X287555Y385827D01*
X287644Y385152D01*
X262860Y360368D01*
X262380Y359741D01*
X262077Y359012D01*
X262000Y358425D01*
X261500Y358458D01*
Y452500D01*
X264129Y455129D01*
X264591Y454937D01*
Y452756D01*
Y448756D01*
X271590Y441756D01*
X279591D01*
X286591Y448756D01*
Y452756D01*
Y456756D01*
X279591Y463756D01*
X273409D01*
X273218Y464218D01*
X276000Y467000D01*
X373000D01*
Y194500D01*
D02*
G37*
%LPC*%
G36*
X511811Y404577D02*
X510457Y404443D01*
X509156Y404048D01*
X507956Y403407D01*
X506905Y402544D01*
X506041Y401493D01*
X505400Y400293D01*
X505005Y398991D01*
X504872Y397638D01*
X505005Y396284D01*
X505400Y394982D01*
X506041Y393783D01*
X506905Y392731D01*
X507956Y391868D01*
X509156Y391227D01*
X510457Y390832D01*
X511811Y390699D01*
X513165Y390832D01*
X514466Y391227D01*
X515666Y391868D01*
X516718Y392731D01*
X517581Y393783D01*
X518222Y394982D01*
X518617Y396284D01*
X518750Y397638D01*
X518617Y398991D01*
X518222Y400293D01*
X517581Y401493D01*
X516718Y402544D01*
X515666Y403407D01*
X514466Y404048D01*
X513165Y404443D01*
X511811Y404577D01*
D02*
G37*
G36*
X433661Y419153D02*
X432373Y418983D01*
X431172Y418486D01*
X430140Y417694D01*
X429349Y416663D01*
X428852Y415462D01*
X428682Y414173D01*
X428852Y412884D01*
X429349Y411683D01*
X430140Y410652D01*
X431172Y409861D01*
X432373Y409363D01*
X433661Y409194D01*
X434280Y409275D01*
X459868Y383687D01*
X459868Y383687D01*
X460495Y383206D01*
X461225Y382904D01*
X462008Y382801D01*
X490823D01*
X491237Y382261D01*
X492282Y381459D01*
X493498Y380956D01*
X494803Y380784D01*
X496108Y380956D01*
X497325Y381459D01*
X498369Y382261D01*
X499171Y383305D01*
X499674Y384522D01*
X499846Y385827D01*
X499674Y387132D01*
X499171Y388348D01*
X498369Y389393D01*
X497325Y390194D01*
X496108Y390698D01*
X494803Y390870D01*
X493498Y390698D01*
X492282Y390194D01*
X491237Y389393D01*
X490823Y388853D01*
X463261D01*
X438560Y413554D01*
X438641Y414173D01*
X438471Y415462D01*
X437974Y416663D01*
X437183Y417694D01*
X436151Y418486D01*
X434950Y418983D01*
X433661Y419153D01*
D02*
G37*
G36*
X494811Y349531D02*
X493506Y349359D01*
X492289Y348856D01*
X491245Y348054D01*
X490444Y347010D01*
X489940Y345793D01*
X489768Y344488D01*
X489940Y343183D01*
X490444Y341967D01*
X491245Y340922D01*
X492289Y340121D01*
X493506Y339617D01*
X494811Y339445D01*
X496116Y339617D01*
X497333Y340121D01*
X498377Y340922D01*
X499179Y341967D01*
X499682Y343183D01*
X499854Y344488D01*
X499682Y345793D01*
X499179Y347010D01*
X498377Y348054D01*
X497333Y348856D01*
X496116Y349359D01*
X494811Y349531D01*
D02*
G37*
G36*
X482992D02*
X481687Y349359D01*
X480471Y348856D01*
X479426Y348054D01*
X478625Y347010D01*
X478121Y345793D01*
X477949Y344488D01*
X478121Y343183D01*
X478625Y341967D01*
X479426Y340922D01*
X480471Y340121D01*
X481687Y339617D01*
X482992Y339445D01*
X484297Y339617D01*
X485514Y340121D01*
X486558Y340922D01*
X487360Y341967D01*
X487863Y343183D01*
X488035Y344488D01*
X487863Y345793D01*
X487360Y347010D01*
X486558Y348054D01*
X485514Y348856D01*
X484297Y349359D01*
X482992Y349531D01*
D02*
G37*
G36*
Y337720D02*
X481687Y337548D01*
X480471Y337045D01*
X479426Y336243D01*
X478625Y335199D01*
X478121Y333982D01*
X477949Y332677D01*
X478121Y331372D01*
X478625Y330156D01*
X479426Y329111D01*
X480471Y328310D01*
X481687Y327806D01*
X482992Y327634D01*
X484297Y327806D01*
X485514Y328310D01*
X486558Y329111D01*
X487360Y330156D01*
X487863Y331372D01*
X488035Y332677D01*
X487863Y333982D01*
X487360Y335199D01*
X486558Y336243D01*
X485514Y337045D01*
X484297Y337548D01*
X482992Y337720D01*
D02*
G37*
G36*
X494803Y308193D02*
X493498Y308021D01*
X492282Y307517D01*
X491237Y306716D01*
X490436Y305671D01*
X489932Y304455D01*
X489760Y303150D01*
X489932Y301844D01*
X490132Y301362D01*
X488309Y299539D01*
X450874D01*
X450851Y299555D01*
X450000Y299724D01*
X449149Y299555D01*
X448427Y299073D01*
X447945Y298351D01*
X447776Y297500D01*
X447945Y296649D01*
X448427Y295928D01*
X449026Y295528D01*
X449057Y295409D01*
Y295091D01*
X449026Y294972D01*
X448427Y294572D01*
X447945Y293851D01*
X447776Y293000D01*
X447945Y292149D01*
X448427Y291427D01*
X449149Y290945D01*
X450000Y290776D01*
X450851Y290945D01*
X450874Y290961D01*
X489810D01*
X489932Y290033D01*
X490436Y288817D01*
X491237Y287772D01*
X492282Y286971D01*
X493498Y286467D01*
X494803Y286295D01*
X496108Y286467D01*
X497325Y286971D01*
X498369Y287772D01*
X499171Y288817D01*
X499674Y290033D01*
X499846Y291339D01*
X499674Y292644D01*
X499171Y293860D01*
X498369Y294905D01*
X497325Y295706D01*
X496108Y296210D01*
X494803Y296382D01*
X493498Y296210D01*
X492282Y295706D01*
X491252Y294916D01*
X490632Y295039D01*
X489597D01*
X489547Y295539D01*
X489934Y295616D01*
X490595Y296058D01*
X493015Y298478D01*
X493498Y298278D01*
X494803Y298107D01*
X496108Y298278D01*
X497325Y298782D01*
X498369Y299584D01*
X499171Y300628D01*
X499674Y301844D01*
X499846Y303150D01*
X499674Y304455D01*
X499171Y305671D01*
X498369Y306716D01*
X497325Y307517D01*
X496108Y308021D01*
X494803Y308193D01*
D02*
G37*
G36*
X482992Y255043D02*
X481687Y254871D01*
X480471Y254367D01*
X479426Y253566D01*
X478625Y252522D01*
X478425Y252039D01*
X456500D01*
X456500Y252039D01*
X455720Y251884D01*
X455058Y251442D01*
X455058Y251442D01*
X445676Y242060D01*
X445649Y242055D01*
X444928Y241572D01*
X444445Y240851D01*
X444276Y240000D01*
X444445Y239149D01*
X444928Y238427D01*
X445649Y237945D01*
X446500Y237776D01*
X447351Y237945D01*
X448072Y238427D01*
X448555Y239149D01*
X448560Y239176D01*
X457345Y247961D01*
X478425D01*
X478625Y247478D01*
X479426Y246434D01*
X480471Y245633D01*
X481687Y245129D01*
X482992Y244957D01*
X484297Y245129D01*
X485514Y245633D01*
X486558Y246434D01*
X487360Y247478D01*
X487863Y248695D01*
X488035Y250000D01*
X487863Y251305D01*
X487360Y252522D01*
X486558Y253566D01*
X485514Y254367D01*
X484297Y254871D01*
X482992Y255043D01*
D02*
G37*
G36*
X486311Y260539D02*
X460000D01*
X459220Y260384D01*
X458558Y259942D01*
X455988Y257372D01*
X455961Y257366D01*
X455239Y256884D01*
X454757Y256163D01*
X454588Y255312D01*
X454757Y254461D01*
X455239Y253739D01*
X455961Y253257D01*
X456812Y253088D01*
X457663Y253257D01*
X458384Y253739D01*
X458866Y254461D01*
X458872Y254488D01*
X460845Y256461D01*
X485466D01*
X490139Y251788D01*
X489940Y251305D01*
X489768Y250000D01*
X489940Y248695D01*
X490444Y247478D01*
X491245Y246434D01*
X492289Y245633D01*
X493506Y245129D01*
X494811Y244957D01*
X496116Y245129D01*
X497333Y245633D01*
X498377Y246434D01*
X499179Y247478D01*
X499682Y248695D01*
X499854Y250000D01*
X499682Y251305D01*
X499179Y252522D01*
X498377Y253566D01*
X497333Y254367D01*
X496116Y254871D01*
X494811Y255043D01*
X493506Y254871D01*
X493023Y254672D01*
X487753Y259942D01*
X487091Y260384D01*
X486311Y260539D01*
D02*
G37*
G36*
X494811Y243232D02*
X493506Y243060D01*
X492289Y242557D01*
X491245Y241755D01*
X490444Y240711D01*
X489940Y239494D01*
X489768Y238189D01*
X489940Y236884D01*
X490139Y236401D01*
X485277Y231539D01*
X469683D01*
X459665Y241558D01*
X459659Y241585D01*
X459177Y242306D01*
X458456Y242788D01*
X457605Y242958D01*
X456754Y242788D01*
X456032Y242306D01*
X455550Y241585D01*
X455381Y240734D01*
X455550Y239883D01*
X456032Y239161D01*
X456754Y238679D01*
X456781Y238674D01*
X467397Y228058D01*
X468058Y227616D01*
X468839Y227461D01*
X486122D01*
X486902Y227616D01*
X487564Y228058D01*
X493023Y233518D01*
X493506Y233318D01*
X494811Y233146D01*
X496116Y233318D01*
X497333Y233822D01*
X498377Y234623D01*
X499179Y235667D01*
X499682Y236884D01*
X499854Y238189D01*
X499682Y239494D01*
X499179Y240711D01*
X498377Y241755D01*
X497333Y242557D01*
X496116Y243060D01*
X494811Y243232D01*
D02*
G37*
G36*
X454000Y228200D02*
X452825Y228046D01*
X451731Y227592D01*
X450791Y226871D01*
X450069Y225931D01*
X449616Y224836D01*
X449461Y223661D01*
X449616Y222487D01*
X450069Y221392D01*
X450791Y220452D01*
X451731Y219731D01*
X452825Y219277D01*
X454000Y219123D01*
X455175Y219277D01*
X456269Y219731D01*
X457209Y220452D01*
X457931Y221392D01*
X458384Y222487D01*
X458539Y223661D01*
X458384Y224836D01*
X457931Y225931D01*
X457209Y226871D01*
X456269Y227592D01*
X455175Y228046D01*
X454000Y228200D01*
D02*
G37*
G36*
X353740Y419153D02*
X352451Y418983D01*
X351250Y418486D01*
X350219Y417694D01*
X349428Y416663D01*
X348930Y415462D01*
X348761Y414173D01*
X348930Y412884D01*
X349428Y411683D01*
X350219Y410652D01*
X351250Y409861D01*
X352451Y409363D01*
X353740Y409194D01*
X355029Y409363D01*
X356230Y409861D01*
X357261Y410652D01*
X358053Y411683D01*
X358550Y412884D01*
X358720Y414173D01*
X358550Y415462D01*
X358053Y416663D01*
X357261Y417694D01*
X356230Y418486D01*
X355029Y418983D01*
X353740Y419153D01*
D02*
G37*
G36*
X292598Y414492D02*
X291293Y414320D01*
X290077Y413816D01*
X289032Y413015D01*
X288231Y411970D01*
X287727Y410754D01*
X287555Y409449D01*
X287727Y408144D01*
X288231Y406927D01*
X289032Y405883D01*
X290077Y405081D01*
X291293Y404577D01*
X292598Y404406D01*
X293904Y404577D01*
X295120Y405081D01*
X296164Y405883D01*
X296966Y406927D01*
X297470Y408144D01*
X297642Y409449D01*
X297470Y410754D01*
X296966Y411970D01*
X296164Y413015D01*
X295120Y413816D01*
X293904Y414320D01*
X292598Y414492D01*
D02*
G37*
G36*
X275590Y404577D02*
X274237Y404443D01*
X272935Y404048D01*
X271736Y403407D01*
X270684Y402544D01*
X269821Y401493D01*
X269180Y400293D01*
X268785Y398991D01*
X268652Y397638D01*
X268785Y396284D01*
X269180Y394982D01*
X269821Y393783D01*
X270684Y392731D01*
X271736Y391868D01*
X272935Y391227D01*
X274237Y390832D01*
X275590Y390699D01*
X276944Y390832D01*
X278246Y391227D01*
X279446Y391868D01*
X280497Y392731D01*
X281360Y393783D01*
X282001Y394982D01*
X282396Y396284D01*
X282529Y397638D01*
X282396Y398991D01*
X282001Y400293D01*
X281360Y401493D01*
X280497Y402544D01*
X279446Y403407D01*
X278246Y404048D01*
X276944Y404443D01*
X275590Y404577D01*
D02*
G37*
G36*
X304410Y361342D02*
X303104Y361171D01*
X301888Y360667D01*
X300843Y359865D01*
X300042Y358821D01*
X299538Y357605D01*
X299366Y356299D01*
X299538Y354994D01*
X300042Y353778D01*
X300843Y352733D01*
X301888Y351932D01*
X303104Y351428D01*
X304410Y351256D01*
X305715Y351428D01*
X306931Y351932D01*
X307976Y352733D01*
X308777Y353778D01*
X309281Y354994D01*
X309453Y356299D01*
X309281Y357605D01*
X308777Y358821D01*
X307976Y359865D01*
X306931Y360667D01*
X305715Y361171D01*
X304410Y361342D01*
D02*
G37*
G36*
Y349531D02*
X303104Y349359D01*
X301888Y348856D01*
X300843Y348054D01*
X300042Y347010D01*
X299538Y345793D01*
X299366Y344488D01*
X299538Y343183D01*
X300042Y341967D01*
X300843Y340922D01*
X301888Y340121D01*
X303104Y339617D01*
X304410Y339445D01*
X305715Y339617D01*
X306931Y340121D01*
X307976Y340922D01*
X308777Y341967D01*
X309281Y343183D01*
X309453Y344488D01*
X309281Y345793D01*
X308777Y347010D01*
X307976Y348054D01*
X306931Y348856D01*
X305715Y349359D01*
X304410Y349531D01*
D02*
G37*
G36*
X292590D02*
X291285Y349359D01*
X290069Y348856D01*
X289024Y348054D01*
X288223Y347010D01*
X287719Y345793D01*
X287547Y344488D01*
X287719Y343183D01*
X288223Y341967D01*
X289024Y340922D01*
X290069Y340121D01*
X291285Y339617D01*
X292590Y339445D01*
X293896Y339617D01*
X295112Y340121D01*
X296157Y340922D01*
X296958Y341967D01*
X297462Y343183D01*
X297634Y344488D01*
X297462Y345793D01*
X296958Y347010D01*
X296157Y348054D01*
X295112Y348856D01*
X293896Y349359D01*
X292590Y349531D01*
D02*
G37*
G36*
X275590Y351427D02*
X274237Y351294D01*
X272935Y350899D01*
X271736Y350258D01*
X270684Y349395D01*
X269821Y348343D01*
X269180Y347144D01*
X268785Y345842D01*
X268652Y344488D01*
X268785Y343134D01*
X269180Y341833D01*
X269821Y340633D01*
X270684Y339582D01*
X271736Y338719D01*
X272935Y338077D01*
X274237Y337683D01*
X275590Y337549D01*
X276944Y337683D01*
X278246Y338077D01*
X279446Y338719D01*
X280497Y339582D01*
X281360Y340633D01*
X282001Y341833D01*
X282396Y343134D01*
X282529Y344488D01*
X282396Y345842D01*
X282001Y347144D01*
X281360Y348343D01*
X280497Y349395D01*
X279446Y350258D01*
X278246Y350899D01*
X276944Y351294D01*
X275590Y351427D01*
D02*
G37*
G36*
X304410Y337720D02*
X303104Y337548D01*
X301888Y337045D01*
X300843Y336243D01*
X300042Y335199D01*
X299538Y333982D01*
X299366Y332677D01*
X299538Y331372D01*
X300042Y330156D01*
X300843Y329111D01*
X301888Y328310D01*
X303104Y327806D01*
X304410Y327634D01*
X305715Y327806D01*
X306931Y328310D01*
X307976Y329111D01*
X308777Y330156D01*
X309281Y331372D01*
X309453Y332677D01*
X309281Y333982D01*
X308777Y335199D01*
X307976Y336243D01*
X306931Y337045D01*
X305715Y337548D01*
X304410Y337720D01*
D02*
G37*
G36*
X335500Y300224D02*
X334649Y300055D01*
X334626Y300039D01*
X301874D01*
X301851Y300055D01*
X301000Y300224D01*
X300149Y300055D01*
X299428Y299572D01*
X298945Y298851D01*
X298776Y298000D01*
X298945Y297149D01*
X299428Y296427D01*
X300149Y295945D01*
X301000Y295776D01*
X301851Y295945D01*
X301874Y295961D01*
X334626D01*
X334649Y295945D01*
X335500Y295776D01*
X336351Y295945D01*
X337072Y296427D01*
X337555Y297149D01*
X337724Y298000D01*
X337555Y298851D01*
X337072Y299572D01*
X336351Y300055D01*
X335500Y300224D01*
D02*
G37*
G36*
Y295224D02*
X334649Y295055D01*
X334626Y295039D01*
X304000D01*
X303220Y294884D01*
X302558Y294442D01*
X300176Y292060D01*
X300149Y292055D01*
X299428Y291572D01*
X298945Y290851D01*
X298776Y290000D01*
X298945Y289149D01*
X299428Y288427D01*
X300149Y287945D01*
X301000Y287776D01*
X301851Y287945D01*
X302572Y288427D01*
X303055Y289149D01*
X303060Y289176D01*
X304845Y290961D01*
X334626D01*
X334649Y290945D01*
X335500Y290776D01*
X336351Y290945D01*
X337072Y291427D01*
X337555Y292149D01*
X337724Y293000D01*
X337555Y293851D01*
X337072Y294572D01*
X336351Y295055D01*
X335500Y295224D01*
D02*
G37*
G36*
X292598Y296382D02*
X291293Y296210D01*
X290077Y295706D01*
X289032Y294905D01*
X288231Y293860D01*
X287727Y292644D01*
X287555Y291339D01*
X287727Y290033D01*
X288231Y288817D01*
X289032Y287772D01*
X290077Y286971D01*
X291293Y286467D01*
X292598Y286295D01*
X293904Y286467D01*
X295120Y286971D01*
X296164Y287772D01*
X296966Y288817D01*
X297470Y290033D01*
X297642Y291339D01*
X297470Y292644D01*
X296966Y293860D01*
X296164Y294905D01*
X295120Y295706D01*
X293904Y296210D01*
X292598Y296382D01*
D02*
G37*
G36*
X275590Y298277D02*
X274237Y298144D01*
X272935Y297749D01*
X271736Y297108D01*
X270684Y296245D01*
X269821Y295194D01*
X269180Y293994D01*
X268785Y292692D01*
X268652Y291339D01*
X268785Y289985D01*
X269180Y288683D01*
X269821Y287484D01*
X270684Y286432D01*
X271736Y285569D01*
X272935Y284928D01*
X274237Y284533D01*
X275590Y284400D01*
X276944Y284533D01*
X278246Y284928D01*
X279446Y285569D01*
X280497Y286432D01*
X281360Y287484D01*
X282001Y288683D01*
X282396Y289985D01*
X282529Y291339D01*
X282396Y292692D01*
X282001Y293994D01*
X281360Y295194D01*
X280497Y296245D01*
X279446Y297108D01*
X278246Y297749D01*
X276944Y298144D01*
X275590Y298277D01*
D02*
G37*
G36*
X292598Y284571D02*
X291293Y284399D01*
X290077Y283895D01*
X289032Y283094D01*
X288231Y282049D01*
X287727Y280833D01*
X287555Y279528D01*
X287727Y278222D01*
X288231Y277006D01*
X289032Y275961D01*
X290077Y275160D01*
X291293Y274656D01*
X292598Y274484D01*
X293904Y274656D01*
X295120Y275160D01*
X296164Y275961D01*
X296966Y277006D01*
X297470Y278222D01*
X297642Y279528D01*
X297470Y280833D01*
X296966Y282049D01*
X296164Y283094D01*
X295120Y283895D01*
X293904Y284399D01*
X292598Y284571D01*
D02*
G37*
G36*
X292590Y255043D02*
X291285Y254871D01*
X290069Y254367D01*
X289024Y253566D01*
X288223Y252522D01*
X287719Y251305D01*
X287547Y250000D01*
X287719Y248695D01*
X288223Y247478D01*
X289024Y246434D01*
X290069Y245633D01*
X291285Y245129D01*
X292590Y244957D01*
X293896Y245129D01*
X295112Y245633D01*
X296157Y246434D01*
X296958Y247478D01*
X297462Y248695D01*
X297634Y250000D01*
X297462Y251305D01*
X296958Y252522D01*
X296157Y253566D01*
X295112Y254367D01*
X293896Y254871D01*
X292590Y255043D01*
D02*
G37*
G36*
X336211Y259979D02*
X335361Y259809D01*
X334639Y259327D01*
X334157Y258606D01*
X334152Y258579D01*
X315801Y240228D01*
X308977D01*
X308777Y240711D01*
X307976Y241755D01*
X306931Y242557D01*
X305715Y243060D01*
X304410Y243232D01*
X303104Y243060D01*
X301888Y242557D01*
X300843Y241755D01*
X300042Y240711D01*
X299538Y239494D01*
X299366Y238189D01*
X299538Y236884D01*
X300042Y235667D01*
X300843Y234623D01*
X301622Y234026D01*
X301452Y233526D01*
X296983D01*
X296382Y234127D01*
Y234916D01*
X296958Y235667D01*
X297462Y236884D01*
X297634Y238189D01*
X297462Y239494D01*
X296958Y240711D01*
X296157Y241755D01*
X295112Y242557D01*
X293896Y243060D01*
X292590Y243232D01*
X291285Y243060D01*
X290069Y242557D01*
X289024Y241755D01*
X288223Y240711D01*
X287719Y239494D01*
X287547Y238189D01*
X287719Y236884D01*
X288223Y235667D01*
X289024Y234623D01*
X290069Y233822D01*
X290330Y233713D01*
Y232874D01*
X290433Y232091D01*
X290735Y231361D01*
X291216Y230734D01*
X293590Y228360D01*
X293590Y228360D01*
X294217Y227880D01*
X294947Y227577D01*
X295730Y227474D01*
X295730Y227474D01*
X314500D01*
X315283Y227577D01*
X316013Y227880D01*
X316640Y228360D01*
X319253Y230974D01*
X334747D01*
X337926Y227795D01*
Y226978D01*
X337806Y226887D01*
X337085Y225947D01*
X336632Y224852D01*
X336477Y223677D01*
X336632Y222502D01*
X337085Y221408D01*
X337806Y220468D01*
X338746Y219746D01*
X339841Y219293D01*
X341016Y219138D01*
X342191Y219293D01*
X343285Y219746D01*
X344225Y220468D01*
X344366Y220651D01*
X350665D01*
X350806Y220468D01*
X351746Y219746D01*
X352841Y219293D01*
X354016Y219138D01*
X355190Y219293D01*
X356285Y219746D01*
X357225Y220468D01*
X357946Y221408D01*
X358400Y222502D01*
X358555Y223677D01*
X358400Y224852D01*
X357946Y225947D01*
X357225Y226887D01*
X356285Y227608D01*
X355190Y228061D01*
X354016Y228216D01*
X352841Y228061D01*
X351746Y227608D01*
X350806Y226887D01*
X350665Y226703D01*
X344366D01*
X344225Y226887D01*
X343978Y227077D01*
Y229048D01*
X343875Y229831D01*
X343572Y230561D01*
X343091Y231188D01*
X343091Y231188D01*
X338140Y236140D01*
X337513Y236620D01*
X336783Y236923D01*
X336000Y237026D01*
X319020D01*
X318828Y237488D01*
X337035Y255695D01*
X337063Y255700D01*
X337784Y256182D01*
X338266Y256904D01*
X338435Y257755D01*
X338266Y258606D01*
X337784Y259327D01*
X337063Y259809D01*
X336211Y259979D01*
D02*
G37*
G36*
X275590Y251033D02*
X274237Y250900D01*
X272935Y250505D01*
X271736Y249864D01*
X270684Y249001D01*
X269821Y247950D01*
X269180Y246750D01*
X268785Y245448D01*
X268652Y244094D01*
X268785Y242741D01*
X269180Y241439D01*
X269821Y240239D01*
X270684Y239188D01*
X271736Y238325D01*
X272935Y237684D01*
X274237Y237289D01*
X275590Y237156D01*
X276944Y237289D01*
X278246Y237684D01*
X279446Y238325D01*
X280497Y239188D01*
X281360Y240239D01*
X282001Y241439D01*
X282396Y242741D01*
X282529Y244094D01*
X282396Y245448D01*
X282001Y246750D01*
X281360Y247950D01*
X280497Y249001D01*
X279446Y249864D01*
X278246Y250505D01*
X276944Y250900D01*
X275590Y251033D01*
D02*
G37*
G36*
X364016Y228216D02*
X362841Y228061D01*
X361746Y227608D01*
X360806Y226887D01*
X360085Y225947D01*
X359632Y224852D01*
X359477Y223677D01*
X359632Y222502D01*
X360085Y221408D01*
X360806Y220468D01*
X361746Y219746D01*
X362841Y219293D01*
X364016Y219138D01*
X365191Y219293D01*
X366285Y219746D01*
X367225Y220468D01*
X367947Y221408D01*
X368400Y222502D01*
X368555Y223677D01*
X368400Y224852D01*
X367947Y225947D01*
X367225Y226887D01*
X366285Y227608D01*
X365191Y228061D01*
X364016Y228216D01*
D02*
G37*
%LPD*%
D47*
X489153Y297500D02*
X494803Y303150D01*
X491145Y292487D02*
X493655D01*
X450000Y297500D02*
X489153D01*
X493655Y292487D02*
X494803Y291339D01*
X450000Y293000D02*
X490632D01*
X491145Y292487D01*
X456812Y255312D02*
X460000Y258500D01*
X486311D01*
X494811Y250000D01*
X457605Y240734D02*
X468839Y229500D01*
X486122D02*
X494811Y238189D01*
X468839Y229500D02*
X486122D01*
X456500Y250000D02*
X482992D01*
X446500Y240000D02*
X456500Y250000D01*
X506988Y415117D02*
Y423988D01*
X520500Y437500D01*
X316646Y238189D02*
X336211Y257755D01*
X304410Y238189D02*
X316646D01*
X304000Y293000D02*
X335500D01*
X301000Y290000D02*
X304000Y293000D01*
X301000Y298000D02*
X335500D01*
D48*
X433661Y414173D02*
X462008Y385827D01*
X494803D01*
X483610Y367500D02*
X494811Y356299D01*
X467303Y367500D02*
X483610D01*
X433661Y333858D02*
X467303Y367500D01*
X480000Y461500D02*
X483500D01*
X477000D02*
X480000D01*
X499846Y409449D02*
X518051D01*
X501000Y410603D02*
Y444000D01*
X499846Y409449D02*
X501000Y410603D01*
X483500Y461500D02*
X501000Y444000D01*
X522500Y354456D02*
Y405000D01*
X522000Y353956D02*
X522500Y354456D01*
X518051Y409449D02*
X522500Y405000D01*
X494811Y356299D02*
X519657D01*
X522000Y353956D01*
X511000Y226000D02*
X522000Y237000D01*
Y353956D01*
X487424Y215424D02*
X498000Y226000D01*
X511000D01*
X425000Y216843D02*
Y218850D01*
Y216843D02*
X426419Y215424D01*
X487424D01*
X421000Y222850D02*
Y223661D01*
Y222850D02*
X425000Y218850D01*
X431000Y223661D02*
X444000D01*
X341016Y223677D02*
X354016D01*
X340581D02*
X341016D01*
X314500Y230500D02*
X318000Y234000D01*
X295730Y230500D02*
X314500D01*
X292590Y238189D02*
X293356Y237424D01*
Y232874D02*
Y237424D01*
Y232874D02*
X295730Y230500D01*
X276323Y223677D02*
X331016D01*
X265000Y235000D02*
X276323Y223677D01*
X318000Y234000D02*
X336000D01*
X340952Y223741D02*
X341016Y223677D01*
X340952Y223741D02*
Y229048D01*
X336000Y234000D02*
X340952Y229048D01*
X265000Y235000D02*
Y328354D01*
X269323Y332677D01*
X265000Y358228D02*
X292598Y385827D01*
X265000Y337000D02*
Y358228D01*
X269323Y332677D02*
X292590D01*
X265000Y337000D02*
X269323Y332677D01*
X332087Y385827D02*
X353740Y364173D01*
X292598Y385827D02*
X332087D01*
D49*
X354016Y223677D02*
D03*
X364016D02*
D03*
X341016D02*
D03*
X331016D02*
D03*
X444000Y223661D02*
D03*
X454000D02*
D03*
X431000D02*
D03*
X421000D02*
D03*
D50*
X353740Y414173D02*
D03*
X433661D02*
D03*
Y374016D02*
D03*
Y333858D02*
D03*
X353740Y384252D02*
D03*
D51*
Y364173D02*
D03*
D52*
X292598Y279528D02*
D03*
Y291339D02*
D03*
Y303150D02*
D03*
X292590Y356299D02*
D03*
X304410D02*
D03*
Y344488D02*
D03*
Y332677D02*
D03*
X292590Y344488D02*
D03*
Y332677D02*
D03*
X494803Y385827D02*
D03*
Y397638D02*
D03*
Y409449D02*
D03*
X292598D02*
D03*
Y397638D02*
D03*
Y385827D02*
D03*
X494811Y356299D02*
D03*
Y344488D02*
D03*
X482992Y356299D02*
D03*
Y344488D02*
D03*
Y332677D02*
D03*
X494811D02*
D03*
X494803Y279528D02*
D03*
Y291339D02*
D03*
Y303150D02*
D03*
X494811Y250000D02*
D03*
Y238189D02*
D03*
X482992Y250000D02*
D03*
Y238189D02*
D03*
X292590D02*
D03*
Y250000D02*
D03*
X304410Y238189D02*
D03*
Y250000D02*
D03*
D53*
X469500Y302000D02*
D03*
X315500Y303000D02*
D03*
X420000Y464000D02*
D03*
Y452000D02*
D03*
X456812Y255312D02*
D03*
X457605Y240734D02*
D03*
X446500Y240000D02*
D03*
X416876Y266376D02*
D03*
X428783Y255376D02*
D03*
X425281Y240932D02*
D03*
X506988Y415117D02*
D03*
X480000Y461500D02*
D03*
X477000D02*
D03*
X420000Y437000D02*
D03*
X447000Y426500D02*
D03*
X495500Y440500D02*
D03*
X520500Y437500D02*
D03*
X481875Y456019D02*
D03*
X450000Y293000D02*
D03*
Y297500D02*
D03*
X426500Y317000D02*
D03*
X449000Y302500D02*
D03*
X428000Y298000D02*
D03*
X356697Y243803D02*
D03*
X336211Y257755D02*
D03*
X361500Y253000D02*
D03*
X359000Y263000D02*
D03*
X370624Y266376D02*
D03*
X335521Y287753D02*
D03*
X301000Y290000D02*
D03*
X335500Y293000D02*
D03*
X301000Y298000D02*
D03*
X335500D02*
D03*
X359000Y292500D02*
D03*
X364437Y316500D02*
D03*
X316828Y417029D02*
D03*
X266500Y436500D02*
D03*
X306000Y453500D02*
D03*
X360138Y456298D02*
D03*
X358000Y458500D02*
D03*
X352500Y460500D02*
D03*
X356000D02*
D03*
M02*
